<svg xmlns="http://www.w3.org/2000/svg" width="104.294" height="16.902" viewBox="0 0 104.294 16.902">
  <g id="bank_sathi" data-name="bank sathi" transform="translate(-0.103 -0.011)">
    <path id="Path_208998" data-name="Path 208998" d="M1622.707,152.1c1.9-.444,2.663-1.527,2.663-2.929,0-1.9-1.456-3.143-3.835-3.143h-5.415v12.428h5.894c2.273,0,3.8-1.332,3.8-3.5C1625.814,153.658,1625.051,152.433,1622.707,152.1Zm-4.279-4.012h2.841c1.03,0,1.651.462,1.651,1.456a1.453,1.453,0,0,1-1.633,1.669h-2.858Zm3.107,8.309h-3.107v-3.249h2.965c1.243,0,1.971.5,1.971,1.527C1623.364,155.86,1622.76,156.393,1621.535,156.393Z" transform="translate(-1590.726 -143.728)" fill="#14363d"/>
    <path id="Path_208999" data-name="Path 208999" d="M2269.657,373.086v1.953a3.184,3.184,0,0,0-3.125-2.131c-2.432,0-3.853,1.811-3.853,4.545,0,2.7,1.474,4.51,3.959,4.51a3.081,3.081,0,0,0,3.018-2.077v1.9h2.255v-8.7Zm-2.344,6.835c-1.634,0-2.362-.763-2.362-2.468,0-1.74.728-2.5,2.362-2.5,1.687,0,2.415.763,2.415,2.5C2269.729,379.158,2269,379.921,2267.314,379.921Z" transform="translate(-2227.167 -367.061)" fill="#14363d"/>
    <path id="Path_209000" data-name="Path 209000" d="M2963.161,372.908a2.762,2.762,0,0,0-2.876,2.2v-2.024h-2.255v8.7h2.255v-4.154c0-1.793.781-2.681,2.042-2.681a1.54,1.54,0,0,1,1.687,1.758v5.078h2.255v-5.2C2966.268,374.133,2965.221,372.908,2963.161,372.908Z" transform="translate(-2911.634 -367.061)" fill="#14363d"/>
    <path id="Path_209001" data-name="Path 209001" d="M3589.607,158.452h2.7l-3.427-5.131,3.32-3.569h-2.823l-2.166,2.7-1.225,1.953v-8.38h-2.255v12.428h2.255V156.41l1.492-1.6Z" transform="translate(-3527.542 -143.728)" fill="#14363d"/>
    <path id="Path_209002" data-name="Path 209002" d="M4143.575,147.465c2.895,0,4.723-1.562,4.723-3.924,0-1.988-1.243-2.983-3.249-3.356l-1.954-.373c-1.3-.231-1.882-.479-1.882-1.58s.568-1.527,2.06-1.527,2.5.391,2.61,2.468l2.237-.621c-.231-2.628-2.1-3.87-4.829-3.87-2.682,0-4.51,1.456-4.51,3.657a3.412,3.412,0,0,0,3.143,3.569l2.113.408c1.367.266,1.847.479,1.847,1.545,0,1.154-.64,1.616-2.255,1.616s-2.557-.5-2.752-2.592l-2.4.639C4138.853,146.311,4140.842,147.465,4143.575,147.465Z" transform="translate(-4073.61 -132.563)" fill="#14363d"/>
    <path id="Path_209003" data-name="Path 209003" d="M4796.667,373.088v1.953a3.183,3.183,0,0,0-3.124-2.13c-2.433,0-3.853,1.811-3.853,4.545,0,2.7,1.474,4.51,3.959,4.51a3.08,3.08,0,0,0,3.018-2.077v1.9h2.255v-8.7Zm-2.343,6.835c-1.633,0-2.361-.763-2.361-2.468,0-1.74.729-2.5,2.361-2.5,1.687,0,2.415.763,2.415,2.5C4796.738,379.16,4796.01,379.923,4794.324,379.923Z" transform="translate(-4714.628 -367.063)" fill="#14363d"/>
    <path id="Path_209004" data-name="Path 209004" d="M5430.224,223.21v-1.988H5427.7v-2.592h-2.255v2.592h-1.668v1.988h1.668v4.012a2.554,2.554,0,0,0,2.7,2.7h1.864v-1.988H5427.7V223.21Z" transform="translate(-5338.793 -215.197)" fill="#14363d"/>
    <path id="Path_209005" data-name="Path 209005" d="M5898.731,149.577a2.761,2.761,0,0,0-2.876,2.2v-5.752H5893.6v12.428h2.255V154.3c0-1.793.781-2.681,2.042-2.681a1.54,1.54,0,0,1,1.687,1.758v5.078h2.254v-5.2C5901.838,150.8,5900.791,149.577,5898.731,149.577Z" transform="translate(-5801.262 -143.73)" fill="#14363d"/>
    <path id="Path_209006" data-name="Path 209006" d="M6519.311,392.954h2.255v-8.7h-2.255Z" transform="translate(-6417.179 -378.229)" fill="#14363d"/>
    <path id="Path_209007" data-name="Path 209007" d="M6517.49,152.485h2.294v2.179h-2.294Z" transform="translate(-6415.387 -150.088)" fill="#14363d"/>
    <path id="Path_209008" data-name="Path 209008" d="M651.964,75.282a1.77,1.77,0,0,1-1.155,1.66l-5.392,2v3.778l6.622-2.454a5.31,5.31,0,0,0,3.465-4.98V69.812a2.95,2.95,0,0,0-3.958-2.773l-6.937,2.551v3.747l7.355-2.683Z" transform="translate(-634.419 -65.802)" fill="#a882dd"/>
    <path id="Path_209009" data-name="Path 209009" d="M3.643,7.445A1.77,1.77,0,0,1,4.8,5.785l5.392-2V.011L3.568,2.465A5.311,5.311,0,0,0,.1,7.445v5.469A2.95,2.95,0,0,0,4.06,15.688L11,13.136V9.39L3.643,12.072Z" transform="translate(0)" fill="#49d49d"/>
  </g>
</svg>
