<svg xmlns="http://www.w3.org/2000/svg" width="21.003" height="19.999" viewBox="0 0 21.003 19.999">
  <g id="cart" transform="translate(0 -10.915)">
    <g id="Group_493" data-name="Group 493" transform="translate(13.463 26.029)">
      <g id="Group_492" data-name="Group 492">
        <path id="Path_114273" data-name="Path 114273" d="M295.1,339.465a2.442,2.442,0,1,0,2.44,2.445v0A2.445,2.445,0,0,0,295.1,339.465Z" transform="translate(-292.659 -339.465)" fill="#fff"/>
      </g>
    </g>
    <g id="Group_495" data-name="Group 495" transform="translate(0 10.915)">
      <g id="Group_494" data-name="Group 494" transform="translate(0 0)">
        <path id="Path_114274" data-name="Path 114274" d="M20.24,14.333a.94.94,0,0,0-.177-.017H5.191L4.956,12.74a2.12,2.12,0,0,0-2.1-1.825H.942a.942.942,0,1,0,0,1.884H2.859a.236.236,0,0,1,.236.207l1.451,9.944a2.6,2.6,0,0,0,2.565,2.2h9.8a2.591,2.591,0,0,0,2.541-2.07l1.533-7.643A.942.942,0,0,0,20.24,14.333Z" transform="translate(0 -10.915)" fill="#fff"/>
      </g>
    </g>
    <g id="Group_497" data-name="Group 497" transform="translate(5.132 26.031)">
      <g id="Group_496" data-name="Group 496" transform="translate(0 0)">
        <path id="Path_114275" data-name="Path 114275" d="M116.35,341.851a2.442,2.442,0,0,0-2.449-2.336h0a2.442,2.442,0,0,0,.057,4.883h.059A2.442,2.442,0,0,0,116.35,341.851Z" transform="translate(-111.558 -339.516)" fill="#fff"/>
      </g>
    </g>
  </g>
</svg>
