<svg xmlns="http://www.w3.org/2000/svg" width="30" height="30.516" viewBox="0 0 30 30.516">
  <g id="Doctor" transform="translate(-44 -305.923)">
    <rect id="Rectangle_167549" data-name="Rectangle 167549" width="30" height="30" transform="translate(44 306.032)" fill="none"/>
    <g id="doctor-2" data-name="doctor" transform="translate(47.299 306.423)">
      <path id="Path_114053" data-name="Path 114053" d="M19.987,0A6.411,6.411,0,1,0,26.4,6.41,6.416,6.416,0,0,0,19.987,0Z" transform="translate(-8.483)" fill="#fff" stroke="#ffb125" stroke-width="1"/>
      <path id="Path_114054" data-name="Path 114054" d="M21.747,23.265a14.106,14.106,0,0,1,.469,3.822c.943.836,3.416,3.3,2.878,5.73a2.847,2.847,0,0,1-1.992,2.02.615.615,0,0,1-.4-1.164,1.661,1.661,0,0,0,1.184-1.091c.368-1.667-1.477-3.691-2.5-4.59-1.227.6-3.548,2.058-3.638,3.731a1.649,1.649,0,0,0,.846,1.4.615.615,0,1,1-.692,1.018,2.842,2.842,0,0,1-1.38-2.511c.14-2.6,3.535-4.368,4.483-4.814a16.758,16.758,0,0,0-.609-3.9.684.684,0,0,1-.006-.1,10.656,10.656,0,0,0-2.8-.385H16.006a10.677,10.677,0,0,0-3.129.469.562.562,0,0,1-.034.132,26.748,26.748,0,0,0-1.981,7.017,2.519,2.519,0,1,1-1.239-.028,29.989,29.989,0,0,1,1.668-6.482,10.72,10.72,0,0,0-6,9.609v4.395a.614.614,0,0,0,.615.615H27.687a.622.622,0,0,0,.615-.624V33.141a10.736,10.736,0,0,0-6.555-9.876Z" transform="translate(-5.291 -8.635)" fill="#fff" stroke="#25d18e" stroke-width="1"/>
    </g>
  </g>
</svg>
