<svg xmlns="http://www.w3.org/2000/svg" width="36" height="19" viewBox="0 0 36 19">
  <g id="car" transform="translate(0 -110.39)">
    <path id="Path_204944" data-name="Path 204944" d="M42.533,120.2a3.913,3.913,0,0,0-3.154-2.379l-5.492-.634-2.93-4.813a4.107,4.107,0,0,0-3.506-1.981h-9.46a5.487,5.487,0,0,0-5.281,4.067l-.074.272a4.515,4.515,0,0,1-1.138,1.984,4.456,4.456,0,0,1-1.956,1.163,1.9,1.9,0,0,0-1.375,1.835v5.342l2.991-.707a4.276,4.276,0,0,1,.214-.432,4.164,4.164,0,0,1,7.255,0,4.119,4.119,0,0,1,.214.432h12.7a4.021,4.021,0,0,1,.211-.427,4.164,4.164,0,0,1,7.258,0,4.118,4.118,0,0,1,.214.432h3.334l.021,0,.243-2.156c.01-.088.017-.176.021-.263A3.969,3.969,0,0,0,42.533,120.2Z" transform="translate(-7.524)" fill="#008db3"/>
    <path id="Path_204945" data-name="Path 204945" d="M411.36,288.67h0a.948.948,0,0,1-.948.948h-3.053c0-.072.006-.146.006-.219a4.215,4.215,0,0,0-.348-1.68l3.4,0A.948.948,0,0,1,411.36,288.67Z" transform="translate(-375.36 -163.374)" fill="#ccc"/>
    <path id="Path_204946" data-name="Path 204946" d="M321.657,269.665c0,.073,0,.146-.007.219a3.365,3.365,0,0,1-6.716,0c0-.072-.007-.146-.007-.219a3.365,3.365,0,1,1,6.73,0Zm-1.985,0a1.38,1.38,0,1,0-1.38,1.38A1.381,1.381,0,0,0,319.672,269.665Z" transform="translate(-290.518 -143.64)" fill="#666"/>
    <path id="Path_204947" data-name="Path 204947" d="M341.527,291.52a1.38,1.38,0,1,1-1.38,1.38A1.381,1.381,0,0,1,341.527,291.52Z" transform="translate(-313.676 -166.875)" fill="#e6e6e6"/>
    <path id="Path_204948" data-name="Path 204948" d="M157.744,289.4c0,.073,0,.147.006.219H145.6c0-.073.006-.146.006-.219a4.215,4.215,0,0,0-.348-1.68h12.835A4.236,4.236,0,0,0,157.744,289.4Z" transform="translate(-134.008 -163.374)" fill="#ccc"/>
    <path id="Path_204949" data-name="Path 204949" d="M85.131,138.39v4.591H82.5s.307-1.246.5-1.951l.075-.272a3.546,3.546,0,0,1,.143-.419A3.644,3.644,0,0,1,85.131,138.39Z" transform="translate(-76.077 -25.796)" fill="#76cdce"/>
    <path id="Path_204950" data-name="Path 204950" d="M136.4,134.55v4.893h-5.435V134.56c.088-.007.177-.01.266-.01Z" transform="translate(-120.785 -22.259)" fill="#76cdce"/>
    <path id="Path_204951" data-name="Path 204951" d="M222.512,139.443h-7.485V134.55h3.213a2.274,2.274,0,0,1,1.924,1.076Z" transform="translate(-198.324 -22.259)" fill="#76cdce"/>
    <path id="Path_204952" data-name="Path 204952" d="M59.89,269.884a3.365,3.365,0,0,1-6.716,0c0-.072-.007-.146-.007-.219a3.365,3.365,0,1,1,6.73,0C59.9,269.738,59.894,269.812,59.89,269.884Zm-1.977-.219a1.38,1.38,0,1,0-1.38,1.38A1.382,1.382,0,0,0,57.913,269.665Z" transform="translate(-48.983 -143.64)" fill="#666"/>
    <path id="Path_204953" data-name="Path 204953" d="M79.767,291.52a1.38,1.38,0,1,1-1.38,1.38A1.382,1.382,0,0,1,79.767,291.52Z" transform="translate(-72.287 -166.875)" fill="#e6e6e6"/>
    <path id="Path_204954" data-name="Path 204954" d="M3.319,289.4c0,.073,0,.146.006.219H.949A.949.949,0,0,1,0,288.669H0a.949.949,0,0,1,.949-.949H3.666A4.23,4.23,0,0,0,3.319,289.4Z" transform="translate(0 -163.374)" fill="#ccc"/>
    <path id="Path_204955" data-name="Path 204955" d="M236.189,218.575h-1.24a.472.472,0,0,1,0-.944h1.24a.472.472,0,0,1,0,.944Z" transform="translate(-216.225 -98.801)" fill="#ccc"/>
    <path id="Path_204956" data-name="Path 204956" d="M127.97,218.575h-1.24a.472.472,0,1,1,0-.944h1.24a.472.472,0,1,1,0,.944Z" transform="translate(-116.43 -98.801)" fill="#ccc"/>
    <path id="Path_204957" data-name="Path 204957" d="M422.127,236.741h-.948a1.731,1.731,0,0,1-1.731-1.731h2.37A3.192,3.192,0,0,1,422.127,236.741Z" transform="translate(-386.812 -114.812)" fill="#fff"/>
    <path id="Path_204958" data-name="Path 204958" d="M136.4,134.68v4.883h-.553l-4.882-4.883Z" transform="translate(-120.785 -22.378)" fill="#96e0de"/>
    <path id="Path_204959" data-name="Path 204959" d="M222.512,139.443H219.92l-4.893-4.893h3.213a2.274,2.274,0,0,1,1.924,1.076Z" transform="translate(-198.324 -22.259)" fill="#96e0de"/>
    <path id="Path_204960" data-name="Path 204960" d="M93.552,138.39v3.864l-1.915-1.915A3.644,3.644,0,0,1,93.552,138.39Z" transform="translate(-84.504 -25.796)" fill="#96e0de"/>
  </g>
</svg>
