<svg id="Download_form" xmlns="http://www.w3.org/2000/svg" xmlns:xlink="http://www.w3.org/1999/xlink" width="44" height="39.286" viewBox="0 0 44 39.286">
  <defs>
    <filter id="Path_115499">
      <feOffset dy="3" input="SourceAlpha"/>
      <feGaussianBlur stdDeviation="3" result="blur"/>
      <feFlood flood-opacity="0.161" result="color"/>
      <feComposite operator="out" in="SourceGraphic" in2="blur"/>
      <feComposite operator="in" in="color"/>
      <feComposite operator="in" in2="SourceGraphic"/>
    </filter>
  </defs>
  <g data-type="innerShadowGroup">
    <path id="Path_115499-2" data-name="Path 115499" d="M43.376,43.648,34.718,28.654a4.679,4.679,0,0,0-4.057-2.343H13.344A4.679,4.679,0,0,0,9.287,28.6L.629,43.592a4.677,4.677,0,0,0,0,4.686L9.287,63.272A4.7,4.7,0,0,0,13.344,65.6H30.661a4.7,4.7,0,0,0,4.057-2.268l8.658-14.994A4.715,4.715,0,0,0,43.376,43.648Z" transform="translate(0 -26.311)" fill="#4bc4f9"/>
    <g transform="matrix(1, 0, 0, 1, 0, 0)" filter="url(#Path_115499)">
      <path id="Path_115499-3" data-name="Path 115499" d="M43.376,43.648,34.718,28.654a4.679,4.679,0,0,0-4.057-2.343H13.344A4.679,4.679,0,0,0,9.287,28.6L.629,43.592a4.677,4.677,0,0,0,0,4.686L9.287,63.272A4.7,4.7,0,0,0,13.344,65.6H30.661a4.7,4.7,0,0,0,4.057-2.268l8.658-14.994A4.715,4.715,0,0,0,43.376,43.648Z" transform="translate(0 -26.31)" fill="#fff"/>
    </g>
  </g>
  <g id="Download_form-2" data-name="Download_form" transform="translate(-31.5 -296)">
    <rect id="Rectangle_167549" data-name="Rectangle 167549" width="19" height="19" transform="translate(44 306)" fill="none"/>
    <g id="_x35_7" transform="translate(45.91 306.408)">
      <path id="Path_114098" data-name="Path 114098" d="M19.405,6.043,16.849,3.68A2.477,2.477,0,0,0,15.135,3H7.96A2.531,2.531,0,0,0,5.435,5.525V19.009A2.531,2.531,0,0,0,7.96,21.534h9.723a2.531,2.531,0,0,0,2.525-2.525V7.9a2.547,2.547,0,0,0-.8-1.853ZM10.3,9.989a.769.769,0,0,1,1.089,0l.664.664V7.912a.772.772,0,1,1,1.545,0v2.726l.656-.656a.77.77,0,0,1,1.089,1.089l-1.977,1.985a.779.779,0,0,1-1.089,0L10.3,11.078a.769.769,0,0,1,0-1.089Zm5.514,7.406H9.829a.772.772,0,0,1,0-1.545h5.985a.772.772,0,0,1,0,1.545Z" transform="translate(-5.435 -3)" fill="#fff"/>
    </g>
  </g>
</svg>
