<svg xmlns="http://www.w3.org/2000/svg" xmlns:xlink="http://www.w3.org/1999/xlink" width="72.795" height="39.275" viewBox="0 0 72.795 39.275">
  <defs>
    <linearGradient id="linear-gradient" x1="0.108" y1="-0.328" x2="0.868" y2="0.851" gradientUnits="objectBoundingBox">
      <stop offset="0" stop-color="#114fee"/>
      <stop offset="1" stop-color="#2ddaff"/>
    </linearGradient>
    <linearGradient id="linear-gradient-2" x1="0.003" y1="-0.684" x2="1.001" y2="1.479" xlink:href="#linear-gradient"/>
    <linearGradient id="linear-gradient-3" x1="-0.048" y1="-0.744" x2="1.06" y2="1.734" xlink:href="#linear-gradient"/>
  </defs>
  <g id="Emedlife-Logo-new" transform="translate(-14.81 -9.65)">
    <path id="Path_114505" data-name="Path 114505" d="M135.356,13.045a21.189,21.189,0,0,0-5.373-2.513h-.015l-.269-.077-.256-.072h0l-.2-.056h0l-.123-.031-.427-.1-.2-.049-.392-.082-.156-.031h-.013l-.2-.041c-.187-.036-.376-.067-.565-.095l-.2-.036h0c-.187-.028-.374-.049-.563-.072H126.4l-.2-.026c-.166-.02-.335-.033-.512-.049h-.061l-.182-.015H125.4l-.361-.02-.217-.013h-.215c-.256,0-.532-.015-.8-.015h0a21.1,21.1,0,0,0-11.561,3.429q0,.3,0,.6h0v1.354h0a1.486,1.486,0,0,0,.02.3,2.21,2.21,0,0,1,.026.284c.015.179.033.358.054.535l.038.292c.023.177.046.351.074.527l.046.279q.046.274.1.545c.015.082.031.164.049.256.043.2.09.409.138.612.015.056.026.113.041.166.13.527.281,1.049.453,1.558a.061.061,0,0,0,0,.02h0a20.879,20.879,0,0,0,1.024,2.485h0l.015.033c.241.5.512.98.768,1.453l.09.148c.107.182.22.363.335.542.041.064.082.13.125.194.107.164.217.328.33.489l.133.192c.123.171.256.34.374.512l.1.141c.33.43.678.844,1.039,1.249l.136.146c.11.12.22.241.33.356h0l.051.051.031.033.179.182.307.3.125.123c.051.049.1.1.156.143.107.1.217.2.328.3l.161.146.107.095c.13.113.256.223.4.333l.154.125h.013c.095.077.189.148.287.223s.233.187.353.276l.051.036c.064.049.128.092.192.138.138.1.279.2.42.3l.1.069.177.115a4.734,4.734,0,0,0,.412.256l.148.095.125.077.461.271.169.1.067.036c.235.131.471.256.709.381.279-.143.55-.294.821-.448l.059-.033.187-.107.11-.064c.256-.146.5-.3.739-.458l.1-.069.12-.082.156-.1c.156-.1.31-.215.461-.325.059-.041.115-.079.171-.123l.281-.212.143-.11c.115-.09.233-.179.348-.274l.141-.118c.136-.11.269-.22.4-.335l.087-.079c.061-.051.12-.1.179-.159l.123-.11c.256-.217.479-.445.709-.676l.148-.148c.194-.2.384-.4.571-.6.023-.026.049-.051.072-.079l.051-.054c.22-.256.432-.512.642-.768l.1-.12.061-.082c.2-.256.394-.512.581-.768l.018-.026.092-.13c.013-.018.028-.036.041-.056h0c.143-.2.284-.415.422-.624l.113-.174c.177-.279.351-.563.512-.85l.061-.115c.151-.256.294-.535.435-.806.026-.054.054-.107.082-.161.148-.3.289-.6.425-.906.026-.054.049-.11.072-.166.123-.284.238-.568.348-.857.015-.041.033-.082.046-.12q.177-.476.33-.96c.023-.067.041-.133.061-.2.1-.322.194-.645.276-.972V18.9h0q.22-.855.363-1.737h0l.023-.148c.031-.192.059-.384.084-.578a1.881,1.881,0,0,1,.033-.256c.023-.187.041-.374.059-.56,0-.095.018-.187.023-.279.015-.194.028-.391.038-.589V14.5c0-.279.018-.558.018-.839h0A3.561,3.561,0,0,0,135.356,13.045Z" transform="translate(-72.507 0)" fill="#4bc4f9"/>
    <path id="Path_114506" data-name="Path 114506" d="M133.239,25.6a20.227,20.227,0,0,1,10.212.693l.046-3.529v-.154a18.935,18.935,0,0,0-14.519-.079A15.586,15.586,0,0,0,133.5,35.748a17.342,17.342,0,0,0,2.763,2.183,15.45,15.45,0,0,0,5-4.977c.031-.046.064-.092.095-.141a12.886,12.886,0,0,0-6.054-.665h-.1l-.837-1.451a15.142,15.142,0,0,1,7.794.6l1-3.094.049-.143a17.525,17.525,0,0,0-9.516-.937,1.024,1.024,0,0,0-.212.036Z" transform="translate(-84.883 -8.542)" fill="#021b8d" opacity="0.3"/>
    <path id="Path_114507" data-name="Path 114507" d="M132.459,24.611a20.186,20.186,0,0,1,10.21.691l.038-3.526V21.62a18.935,18.935,0,0,0-14.519-.077,15.586,15.586,0,0,0,4.521,13.211,17.486,17.486,0,0,0,2.779,2.183,15.476,15.476,0,0,0,5-4.977l.095-.143a12.889,12.889,0,0,0-6.057-.663h-.1l-.837-1.448a15.115,15.115,0,0,1,7.794.6l1-3.094.049-.146a17.548,17.548,0,0,0-9.516-.937l-.212.036Z" transform="translate(-84.295 -7.802)" fill="#fff"/>
    <g id="Group_838" data-name="Group 838" transform="translate(47.91 13.718)" opacity="0.52">
      <path id="Path_114508" data-name="Path 114508" d="M147.971,70.334a17.208,17.208,0,0,1-2.761-2.183,17.177,17.177,0,0,0,3.017,2.439,15.591,15.591,0,0,0,5.1-5.118l-.348-.113A15.483,15.483,0,0,1,147.971,70.334Z" transform="translate(-144.944 -55.173)" fill="url(#linear-gradient)"/>
      <path id="Path_114509" data-name="Path 114509" d="M156.327,49.971a15.154,15.154,0,0,0-7.8-.6l.993,1.72h.1l-.837-1.451a15.115,15.115,0,0,1,7.794.6L157.626,47l-.3-.11Z" transform="translate(-147.414 -41.43)" fill="url(#linear-gradient-2)"/>
      <path id="Path_114510" data-name="Path 114510" d="M154.418,25.55l-.038,3.529a20.186,20.186,0,0,0-10.21-.693l.281,1.86.21-.036-.238-1.569a20.186,20.186,0,0,1,10.21.691l.041-3.682C154.589,25.614,154.5,25.586,154.418,25.55Z" transform="translate(-144.17 -25.55)" fill="url(#linear-gradient-3)"/>
    </g>
    <path id="Path_114511" data-name="Path 114511" d="M26.844,115.688H25.027v8.536h1.817v-4.268a2.531,2.531,0,0,1,2.257-2.664c1.643,0,2.426,1.082,2.426,2.664v4.26h1.817v-4.26a2.536,2.536,0,0,1,2.423-2.664,2.426,2.426,0,0,1,2.331,2.664v4.26h1.791v-4.26c0-2.451-1.195-4.48-3.838-4.48a3.733,3.733,0,0,0-3.009,1.318l-.348.466-.317-.486a3.47,3.47,0,0,0-2.815-1.3,3.015,3.015,0,0,0-1.98.7l-.722.878Zm17.144,5a2.5,2.5,0,0,1-.09-.729,2.589,2.589,0,0,1,2.589-2.664,2.518,2.518,0,0,1,1.535.512l.445.335-4.322,3.071Zm6.264,2.272-1.459-1.136a2.876,2.876,0,0,1-2.085.786,2.51,2.51,0,0,1-.924-.138l-.7-.271,5.581-4a4.544,4.544,0,0,0-4.176-2.74,4.457,4.457,0,0,0-4.445,4.48,4.581,4.581,0,0,0,4.667,4.465,4.817,4.817,0,0,0,3.541-1.456Zm9.36-3a2.527,2.527,0,0,1-2.536,2.666,2.666,2.666,0,0,1,0-5.33,2.524,2.524,0,0,1,2.533,2.656Zm1.707-8.72H59.5v5.724L58.8,116.2a3.23,3.23,0,0,0-1.978-.722,4.483,4.483,0,0,0,0,8.946,2.81,2.81,0,0,0,1.955-.711l.729-.962v1.469h1.817ZM65.8,124.224V111.235H63.987v12.981Zm2.444-12.09a1.139,1.139,0,1,0,2.277,0,1.114,1.114,0,0,0-1.167-1.024,1.134,1.134,0,0,0-1.113,1.016Zm2.047,12.09v-8.536H68.47v8.536Zm7.257-11.192v-1.9a4.043,4.043,0,0,0-3.838,4.017v.537H72.426V117.3h1.279v6.924h1.817v-6.932h1.832v-1.6H75.522v-.629a2.108,2.108,0,0,1,2.009-2.034Zm3.388,7.661a2.5,2.5,0,0,1-.092-.729,2.589,2.589,0,0,1,2.592-2.664,2.51,2.51,0,0,1,1.535.512l.445.335-4.322,3.071Zm6.261,2.272-1.456-1.136a2.884,2.884,0,0,1-2.088.786,2.5,2.5,0,0,1-.921-.138l-.706-.271,5.583-4a4.544,4.544,0,0,0-4.176-2.74,4.457,4.457,0,0,0-4.445,4.48,4.579,4.579,0,0,0,4.665,4.465,4.806,4.806,0,0,0,3.531-1.456ZM14.81,124.216h7.74v-1.791H16.865v-4.263h5.184V116.4H16.865v-3.385H22.55v-1.791H14.81Z" transform="translate(0 -75.499)" fill="#021b8d" fill-rule="evenodd"/>
  </g>
</svg>
