<svg xmlns="http://www.w3.org/2000/svg" xmlns:xlink="http://www.w3.org/1999/xlink" width="104.295" height="24" viewBox="0 0 104.295 24">
  <defs>
    <linearGradient id="linear-gradient" x1="0.108" y1="-0.328" x2="0.868" y2="0.851" gradientUnits="objectBoundingBox">
      <stop offset="0" stop-color="#114fee"/>
      <stop offset="1" stop-color="#2ddaff"/>
    </linearGradient>
    <linearGradient id="linear-gradient-2" x1="0.003" y1="-0.684" x2="1.001" y2="1.479" xlink:href="#linear-gradient"/>
    <linearGradient id="linear-gradient-3" x1="-0.048" y1="-0.744" x2="1.06" y2="1.734" xlink:href="#linear-gradient"/>
  </defs>
  <g id="Emedlife" transform="translate(-64 -21)">
    <g id="Group_1103" data-name="Group 1103" transform="translate(11 -57.785)">
      <rect id="Rectangle_168047" data-name="Rectangle 168047" width="24" height="24" transform="translate(53 78.785)" fill="none"/>
      <g id="Group_1102" data-name="Group 1102" transform="translate(53 79.106)">
        <path id="Path_114505" data-name="Path 114505" d="M136.034,13.145a21.812,21.812,0,0,0-5.531-2.586h-.016l-.277-.079-.263-.074h0l-.2-.058h0l-.126-.032-.44-.108-.2-.05-.4-.084-.161-.032H128.4L128.2,10c-.192-.037-.387-.068-.582-.1l-.208-.037h0c-.192-.029-.385-.05-.579-.074h-.013l-.208-.026c-.171-.021-.345-.034-.527-.05h-.063l-.187-.016h-.04l-.371-.021-.224-.013h-.221c-.263,0-.548-.016-.822-.016h0a21.717,21.717,0,0,0-11.9,3.529V13.8h0v1.393h0a1.53,1.53,0,0,0,.021.311,2.277,2.277,0,0,1,.026.292c.016.184.034.369.055.55l.04.3c.024.182.047.361.076.543l.047.287q.047.282.1.561c.016.084.032.169.05.263.045.211.092.421.142.63.016.058.026.116.042.171.134.543.29,1.08.466,1.6a.063.063,0,0,0,0,.021h0a21.493,21.493,0,0,0,1.054,2.558h0l.016.034c.248.511.527,1.009.79,1.5l.092.153c.111.187.227.374.345.558.042.066.084.134.129.2.111.169.224.337.34.5l.137.2c.126.176.263.35.385.527l.108.145c.34.442.7.869,1.069,1.285l.14.15c.113.124.227.248.34.366h0l.053.053.032.034.184.187.316.311.129.126c.053.05.105.1.161.147.111.105.224.208.337.308l.166.15.111.1c.134.116.263.229.408.342l.158.129h.013c.1.079.195.153.3.229s.24.192.363.284l.053.037c.066.05.132.095.2.142.142.105.287.208.432.308l.105.071.182.119a4.872,4.872,0,0,0,.424.263l.153.1.129.079.474.279.174.1.068.037c.242.134.485.263.73.392.287-.147.566-.3.845-.461l.061-.034.192-.111.113-.066c.263-.15.511-.308.761-.471l.108-.071.124-.084.161-.108c.161-.108.319-.221.474-.335.061-.042.119-.082.176-.126l.29-.219.147-.113c.119-.092.24-.184.358-.282l.145-.121c.14-.113.277-.227.414-.345l.09-.082c.063-.053.124-.108.184-.163l.126-.113c.263-.224.493-.458.73-.7l.153-.153c.2-.2.4-.411.587-.622.024-.026.05-.053.074-.082l.053-.055c.227-.263.445-.527.661-.79l.1-.124.063-.084c.205-.263.406-.527.6-.79l.018-.026.095-.134c.013-.018.029-.037.042-.058h0c.147-.211.292-.427.435-.643l.116-.179c.182-.287.361-.579.527-.874l.063-.119c.155-.263.3-.55.448-.83.026-.055.055-.111.084-.166.153-.308.3-.616.437-.932.026-.055.05-.113.074-.171.126-.292.245-.585.358-.882.016-.042.034-.084.047-.124q.182-.49.34-.988c.024-.068.042-.137.063-.2.1-.332.2-.664.284-1v-.021h0q.227-.88.374-1.788h0l.024-.153c.032-.2.061-.4.087-.6a1.935,1.935,0,0,1,.034-.263c.024-.192.042-.385.061-.577,0-.1.018-.192.024-.287.016-.2.029-.4.04-.606v-.263c0-.287.018-.574.018-.864h0A3.665,3.665,0,0,0,136.034,13.145Z" transform="translate(-112.25 -9.65)" fill="#4bc4f9"/>
        <path id="Path_114506" data-name="Path 114506" d="M133.366,25.736a20.821,20.821,0,0,1,10.512.714l.047-3.632V22.66a19.491,19.491,0,0,0-14.945-.082,16.043,16.043,0,0,0,4.654,13.6,17.852,17.852,0,0,0,2.845,2.247,15.9,15.9,0,0,0,5.152-5.123c.032-.047.066-.095.1-.145a13.264,13.264,0,0,0-6.232-.685h-.1l-.861-1.493a15.587,15.587,0,0,1,8.023.619l1.027-3.184.05-.147a18.04,18.04,0,0,0-9.8-.964,1.055,1.055,0,0,0-.219.037Z" transform="translate(-124.501 -18.106)" fill="#021b8d" opacity="0.3"/>
        <path id="Path_114507" data-name="Path 114507" d="M132.587,24.743a20.779,20.779,0,0,1,10.509.711l.04-3.63v-.161a19.491,19.491,0,0,0-14.945-.079,16.043,16.043,0,0,0,4.654,13.6,18,18,0,0,0,2.86,2.247,15.93,15.93,0,0,0,5.152-5.123l.1-.147a13.267,13.267,0,0,0-6.234-.682h-.1l-.861-1.491a15.559,15.559,0,0,1,8.023.619l1.027-3.184.05-.15a18.063,18.063,0,0,0-9.8-.964l-.219.037Z" transform="translate(-123.919 -17.373)" fill="#fff"/>
        <g id="Group_838" data-name="Group 838" transform="translate(8.407 4.188)" opacity="0.52">
          <path id="Path_114508" data-name="Path 114508" d="M148.052,70.48a17.713,17.713,0,0,1-2.842-2.247,17.682,17.682,0,0,0,3.105,2.51,16.048,16.048,0,0,0,5.249-5.268l-.358-.116A15.938,15.938,0,0,1,148.052,70.48Z" transform="translate(-144.936 -54.874)" fill="url(#linear-gradient)"/>
          <path id="Path_114509" data-name="Path 114509" d="M156.556,50.061a15.6,15.6,0,0,0-8.025-.619l1.022,1.77h.1l-.861-1.493a15.559,15.559,0,0,1,8.023.619L157.894,47l-.311-.113Z" transform="translate(-147.382 -41.269)" fill="url(#linear-gradient-2)"/>
          <path id="Path_114510" data-name="Path 114510" d="M154.719,25.55l-.039,3.632a20.779,20.779,0,0,0-10.509-.714l.29,1.915.216-.037-.245-1.615a20.779,20.779,0,0,1,10.509.711l.042-3.79C154.9,25.616,154.806,25.587,154.719,25.55Z" transform="translate(-144.17 -25.55)" fill="url(#linear-gradient-3)"/>
        </g>
      </g>
    </g>
    <path id="Path_114511" data-name="Path 114511" d="M26.844,115.688H25.027v8.536h1.817v-4.268a2.531,2.531,0,0,1,2.257-2.664c1.643,0,2.426,1.082,2.426,2.664v4.26h1.817v-4.26a2.536,2.536,0,0,1,2.423-2.664,2.426,2.426,0,0,1,2.331,2.664v4.26h1.791v-4.26c0-2.451-1.195-4.48-3.838-4.48a3.733,3.733,0,0,0-3.009,1.318l-.348.466-.317-.486a3.47,3.47,0,0,0-2.815-1.3,3.015,3.015,0,0,0-1.98.7l-.722.878Zm17.144,5a2.5,2.5,0,0,1-.09-.729,2.589,2.589,0,0,1,2.589-2.664,2.518,2.518,0,0,1,1.535.512l.445.335-4.322,3.071Zm6.264,2.272-1.459-1.136a2.876,2.876,0,0,1-2.085.786,2.51,2.51,0,0,1-.924-.138l-.7-.271,5.581-4a4.544,4.544,0,0,0-4.176-2.74,4.457,4.457,0,0,0-4.445,4.48,4.581,4.581,0,0,0,4.667,4.465,4.817,4.817,0,0,0,3.541-1.456Zm9.36-3a2.527,2.527,0,0,1-2.536,2.666,2.666,2.666,0,0,1,0-5.33,2.524,2.524,0,0,1,2.533,2.656Zm1.707-8.72H59.5v5.724L58.8,116.2a3.23,3.23,0,0,0-1.978-.722,4.483,4.483,0,0,0,0,8.946,2.81,2.81,0,0,0,1.955-.711l.729-.962v1.469h1.817ZM65.8,124.224V111.235H63.987v12.981Zm2.444-12.09a1.139,1.139,0,1,0,2.277,0,1.114,1.114,0,0,0-1.167-1.024,1.134,1.134,0,0,0-1.113,1.016Zm2.047,12.09v-8.536H68.47v8.536Zm7.257-11.192v-1.9a4.043,4.043,0,0,0-3.838,4.017v.537H72.426V117.3h1.279v6.924h1.817v-6.932h1.832v-1.6H75.522v-.629a2.108,2.108,0,0,1,2.009-2.034Zm3.388,7.661a2.5,2.5,0,0,1-.092-.729,2.589,2.589,0,0,1,2.592-2.664,2.51,2.51,0,0,1,1.535.512l.445.335-4.322,3.071Zm6.261,2.272-1.456-1.136a2.884,2.884,0,0,1-2.088.786,2.5,2.5,0,0,1-.921-.138l-.706-.271,5.583-4a4.544,4.544,0,0,0-4.176-2.74,4.457,4.457,0,0,0-4.445,4.48,4.579,4.579,0,0,0,4.665,4.465,4.806,4.806,0,0,0,3.531-1.456ZM14.81,124.216h7.74v-1.791H16.865v-4.263h5.184V116.4H16.865v-3.385H22.55v-1.791H14.81Z" transform="translate(80.69 -84.767)" fill="#021b8d" fill-rule="evenodd"/>
  </g>
</svg>
