<svg xmlns="http://www.w3.org/2000/svg" width="18.48" height="19.808" viewBox="0 0 18.48 19.808">
  <g id="Employee_details" data-name="Employee details" transform="translate(-4 -1.978)">
    <path id="Path_116972" data-name="Path 116972" d="M22.15,12.875a6.741,6.741,0,0,1-4.069-1.564.325.325,0,0,0-.442,0,6.828,6.828,0,0,1-1.1.746v-.5a3.632,3.632,0,0,0-3.63-3.63h-.67a3.3,3.3,0,1,0-3.94,0H7.63A3.632,3.632,0,0,0,4,11.555v5.28a.331.331,0,0,0,.33.33H6.31v-4.29a.33.33,0,1,1,.66,0v4.29h6.366c.64,3.336,4.382,4.59,4.422,4.6a.325.325,0,0,0,.2,0c.046-.013,4.518-1.511,4.518-5.594v-2.97A.331.331,0,0,0,22.15,12.875ZM10.27,15.71,8.98,14.42l.9-4.184h.785l.9,4.184ZM9.438,8.585H11.1l-.4.99H9.834Zm.832-.66a2.64,2.64,0,1,1,2.64-2.64A2.64,2.64,0,0,1,10.27,7.925Zm11.55,8.25c0,3.274-3.33,4.689-3.96,4.93-.63-.241-3.96-1.657-3.96-4.93v-2.65a7.342,7.342,0,0,0,3.96-1.541,7.342,7.342,0,0,0,3.96,1.541ZM17.2,17.689l3.067-3.067a.33.33,0,1,1,.467.467l-3.3,3.3a.33.33,0,0,1-.467,0l-1.98-1.98a.33.33,0,1,1,.467-.467Z" transform="translate(0 0)" fill="#4bc4f9"/>
  </g>
</svg>
