<svg xmlns="http://www.w3.org/2000/svg" xmlns:xlink="http://www.w3.org/1999/xlink" width="71" height="71" viewBox="0 0 71 71">
  <defs>
    <filter id="Ellipse_10380" x="0" y="0" width="71" height="71" filterUnits="userSpaceOnUse">
      <feOffset dy="3" input="SourceAlpha"/>
      <feGaussianBlur stdDeviation="3" result="blur"/>
      <feFlood flood-color="#d1f1ff" flood-opacity="0.82"/>
      <feComposite operator="in" in2="blur"/>
      <feComposite in="SourceGraphic"/>
    </filter>
  </defs>
  <g id="filter" transform="translate(-282 -615)">
    <g transform="matrix(1, 0, 0, 1, 282, 615)" filter="url(#Ellipse_10380)">
      <circle id="Ellipse_10380-2" data-name="Ellipse 10380" cx="26.5" cy="26.5" r="26.5" transform="translate(9 6)" fill="#fff"/>
    </g>
    <path id="filter-2" data-name="filter" d="M.75,3.99H12.169a3.494,3.494,0,0,0,6.823,0H23.25a.749.749,0,1,0,0-1.5H18.992a3.493,3.493,0,0,0-6.822,0H.75a.749.749,0,1,0,0,1.5Zm12.838-.747s0-.005,0-.008a1.992,1.992,0,0,1,3.985,0v.011a1.993,1.993,0,0,1-3.985,0Zm9.662,16.27H18.992a3.493,3.493,0,0,0-6.822,0H.75a.749.749,0,1,0,0,1.5H12.169a3.494,3.494,0,0,0,6.823,0H23.25a.749.749,0,1,0,0-1.5Zm-7.67,2.74a1.994,1.994,0,0,1-1.993-1.986v0s0-.005,0-.008a1.992,1.992,0,0,1,3.985,0v.011a1.994,1.994,0,0,1-1.993,1.988ZM23.25,11H11.831a3.494,3.494,0,0,0-6.823,0H.75a.749.749,0,1,0,0,1.5H5.008a3.493,3.493,0,0,0,6.822,0H23.25a.749.749,0,1,0,0-1.5Zm-12.838.747s0,.005,0,.008a1.992,1.992,0,0,1-3.985,0v-.011a1.993,1.993,0,0,1,3.985,0Z" transform="translate(305 635.248)" fill="#021b8d"/>
  </g>
</svg>
