<svg xmlns="http://www.w3.org/2000/svg" xmlns:xlink="http://www.w3.org/1999/xlink" width="37" height="37" viewBox="0 0 37 37">
  <defs>
    <clipPath id="clip-path">
      <path id="path1335" d="M0-682.665H37v37H0Z" transform="translate(0 682.665)" fill="#4bc4f9"/>
    </clipPath>
  </defs>
  <g id="Group_mediclaim" transform="translate(0 682.665)">
    <g id="g1331" transform="translate(0 -682.665)">
      <g id="g1333" clip-path="url(#clip-path)">
        <g id="g1339" transform="translate(0 12.681)">
          <path id="path1341" d="M-122.256,4.32h-5.922a1.084,1.084,0,0,1-1.084-1.084V-18.916A1.084,1.084,0,0,1-128.178-20h5.922a1.084,1.084,0,0,1,1.084,1.084,1.084,1.084,0,0,1-1.084,1.084h-4.838V2.152h4.838a1.084,1.084,0,0,1,1.084,1.084A1.084,1.084,0,0,1-122.256,4.32Z" transform="translate(129.262 20)" fill="#4bc4f9"/>
        </g>
        <g id="g1343" transform="translate(28.91 12.681)">
          <path id="path1345" d="M-12.994,4.32h-5.922A1.084,1.084,0,0,1-20,3.236a1.084,1.084,0,0,1,1.084-1.084h4.838V-17.832h-4.838A1.084,1.084,0,0,1-20-18.916,1.084,1.084,0,0,1-18.916-20h5.922a1.084,1.084,0,0,1,1.084,1.084V3.236A1.084,1.084,0,0,1-12.994,4.32Z" transform="translate(20 20)" fill="#4bc4f9"/>
        </g>
        <g id="g1347" transform="translate(5.922)">
          <path id="path1349" d="M-347.341-97.333h13.017a1.084,1.084,0,0,1,1.084,1.084v3.107h3.829a1.084,1.084,0,0,1,1.084,1.084v30.641a1.084,1.084,0,0,1-1.084,1.084H-352.4a1.084,1.084,0,0,1-1.084-1.084V-92.058a1.084,1.084,0,0,1,1.084-1.084h3.974v-3.107A1.084,1.084,0,0,1-347.341-97.333Zm11.933,2.168h-10.849v3.107a1.084,1.084,0,0,1-1.084,1.084h-3.974V-62.5h20.82V-90.974h-3.829a1.084,1.084,0,0,1-1.084-1.084Z" transform="translate(353.483 97.333)" fill="#4bc4f9"/>
        </g>
      </g>
    </g>
    <g id="g1351" transform="translate(15.218 -676.148)">
      <path id="path1353" d="M-95.108-17.811H-99.52a1.094,1.094,0,0,1-1.094-1.094A1.094,1.094,0,0,1-99.52-20h4.412a1.094,1.094,0,0,1,1.094,1.094A1.094,1.094,0,0,1-95.108-17.811Z" transform="translate(100.614 20)" fill="#4bc4f9"/>
    </g>
    <g id="g1355" transform="translate(17.424 -678.287)">
      <path id="path1357" d="M-18.905-13.4A1.094,1.094,0,0,1-20-14.494v-4.412A1.094,1.094,0,0,1-18.905-20a1.094,1.094,0,0,1,1.094,1.094v4.412A1.094,1.094,0,0,1-18.905-13.4Z" transform="translate(20 20)" fill="#4bc4f9"/>
    </g>
    <g id="g1359" transform="translate(0 -682.665)">
      <g id="g1361" clip-path="url(#clip-path)">
        <g id="g1367" transform="translate(13.464 25.972)">
          <path id="path1369" d="M-11.285-172.435a1.084,1.084,0,0,1-1.084-1.084v-7.776h-5.463v7.776a1.084,1.084,0,0,1-1.084,1.084A1.084,1.084,0,0,1-20-173.519v-8.86a1.084,1.084,0,0,1,1.084-1.084h7.631a1.084,1.084,0,0,1,1.084,1.084v8.86A1.084,1.084,0,0,1-11.285-172.435Z" transform="translate(20 183.462)" fill="#021b8d"/>
        </g>
      </g>
    </g>
    <g id="g1371" transform="translate(22.303 -661.003)">
      <path id="path1373" d="M-17.727-17.811h-1.179A1.094,1.094,0,0,1-20-18.905,1.094,1.094,0,0,1-18.905-20h1.179a1.094,1.094,0,0,1,1.094,1.094A1.094,1.094,0,0,1-17.727-17.811Z" transform="translate(20 20)" fill="#4bc4f9"/>
    </g>
    <g id="g1375" transform="translate(16.816 -661.003)">
      <path id="path1377" d="M-17.727-17.811h-1.179A1.094,1.094,0,0,1-20-18.905,1.094,1.094,0,0,1-18.905-20h1.179a1.094,1.094,0,0,1,1.094,1.094A1.094,1.094,0,0,1-17.727-17.811Z" transform="translate(20 20)" fill="#4bc4f9"/>
    </g>
    <g id="g1379" transform="translate(11.329 -661.003)">
      <path id="path1381" d="M-17.727-17.811h-1.179A1.094,1.094,0,0,1-20-18.905,1.094,1.094,0,0,1-18.905-20h1.179a1.094,1.094,0,0,1,1.094,1.094A1.094,1.094,0,0,1-17.727-17.811Z" transform="translate(20 20)" fill="#4bc4f9"/>
    </g>
    <g id="g1383" transform="translate(22.303 -669.67)">
      <path id="path1385" d="M-17.727-17.811h-1.179A1.094,1.094,0,0,1-20-18.905,1.094,1.094,0,0,1-18.905-20h1.179a1.094,1.094,0,0,1,1.094,1.094A1.094,1.094,0,0,1-17.727-17.811Z" transform="translate(20 20)" fill="#4bc4f9"/>
    </g>
    <g id="g1387" transform="translate(16.816 -669.67)">
      <path id="path1389" d="M-17.727-17.811h-1.179A1.094,1.094,0,0,1-20-18.905,1.094,1.094,0,0,1-18.905-20h1.179a1.094,1.094,0,0,1,1.094,1.094A1.094,1.094,0,0,1-17.727-17.811Z" transform="translate(20 20)" fill="#4bc4f9"/>
    </g>
    <g id="g1391" transform="translate(11.329 -669.67)">
      <path id="path1393" d="M-17.727-17.811h-1.179A1.094,1.094,0,0,1-20-18.905,1.094,1.094,0,0,1-18.905-20h1.179a1.094,1.094,0,0,1,1.094,1.094A1.094,1.094,0,0,1-17.727-17.811Z" transform="translate(20 20)" fill="#4bc4f9"/>
    </g>
    <g id="g1395" transform="translate(22.303 -665.336)">
      <path id="path1397" d="M-17.727-17.811h-1.179A1.094,1.094,0,0,1-20-18.905,1.094,1.094,0,0,1-18.905-20h1.179a1.094,1.094,0,0,1,1.094,1.094A1.094,1.094,0,0,1-17.727-17.811Z" transform="translate(20 20)" fill="#4bc4f9"/>
    </g>
    <g id="g1399" transform="translate(16.816 -665.336)">
      <path id="path1401" d="M-17.727-17.811h-1.179A1.094,1.094,0,0,1-20-18.905,1.094,1.094,0,0,1-18.905-20h1.179a1.094,1.094,0,0,1,1.094,1.094A1.094,1.094,0,0,1-17.727-17.811Z" transform="translate(20 20)" fill="#4bc4f9"/>
    </g>
    <g id="g1403" transform="translate(11.329 -665.336)">
      <path id="path1405" d="M-17.727-17.811h-1.179A1.094,1.094,0,0,1-20-18.905,1.094,1.094,0,0,1-18.905-20h1.179a1.094,1.094,0,0,1,1.094,1.094A1.094,1.094,0,0,1-17.727-17.811Z" transform="translate(20 20)" fill="#4bc4f9"/>
    </g>
  </g>
</svg>
