<svg xmlns="http://www.w3.org/2000/svg" width="27.213" height="38" viewBox="0 0 27.213 38">
  <path id="Group_accident" d="M94.117,10.049a5.393,5.393,0,1,1-5.393,5.393A5.4,5.4,0,0,1,94.117,10.049Zm0,11.834a6.441,6.441,0,1,0-6.442-6.441A6.449,6.449,0,0,0,94.117,21.883Zm12.058,23.069h-4V31.971a.524.524,0,1,0-1.049,0V44.951H87.19V41.6H94.9a.523.523,0,0,0,.523-.5h.142a3.05,3.05,0,1,0,0-6.1H94.174l-1.921-9.267h10.812a3.114,3.114,0,0,1,3.111,3.11V44.951Zm-10.954-4.9h.341a2,2,0,1,0,0-4H94.392ZM88.033,25.733,84.961,40.551h9.293L91.182,25.733ZM82.059,36.942v-8.1a3.114,3.114,0,0,1,3.111-3.11h1.791l-2.924,14.1A3.126,3.126,0,0,1,82.059,36.942Zm21.005-12.257H85.17a4.164,4.164,0,0,0-4.159,4.159v8.1a4.18,4.18,0,0,0,2.811,3.934l-.019.093a.525.525,0,0,0,.514.631h1.825v3.877a.524.524,0,0,0,.524.524H106.7a.524.524,0,0,0,.524-.524V28.844A4.164,4.164,0,0,0,103.065,24.685Z" transform="translate(-80.511 -8.5)" fill="#4bc4f9" stroke="#4bc4f9" stroke-width="1" fill-rule="evenodd"/>
</svg>
