<svg xmlns="http://www.w3.org/2000/svg" width="64" height="64" viewBox="0 0 64 64">
  <g id="Health" transform="translate(-192 -562)">
    <rect id="Rectangle_168059" data-name="Rectangle 168059" width="64" height="64" rx="32" transform="translate(192 562)" fill="#fff"/>
    <g id="Health-2" data-name="Health" transform="translate(204.519 575)">
      <path id="Path_116670" data-name="Path 116670" d="M6.2,69.913a2.011,2.011,0,0,0-.634,1.465v9.566a.341.341,0,0,0,.34.341H11.08a.341.341,0,0,0,0-.683H6.25V74.986c.031.034.063.067.1.1l5.57,5.495a2.431,2.431,0,0,0,1.717.705H33.141a.341.341,0,0,0,.34-.341V76.219a3.2,3.2,0,0,0-3.2-3.206H18.362a2.477,2.477,0,0,1-1.371-.418V60.24a.637.637,0,0,1,.635-.637H19.4a.952.952,0,0,0,0-1.9H17.479a2.393,2.393,0,0,0-2.386,2.394V70.632a.34.34,0,1,0,.681,0V60.093a1.71,1.71,0,0,1,1.705-1.711H19.4a.269.269,0,0,1,0,.538H17.626a1.32,1.32,0,0,0-1.316,1.32V72.07a4.167,4.167,0,0,0-2.881-.89,6.747,6.747,0,0,1-.561-.7l.268-.209a1.163,1.163,0,0,0,.254-1.555c-.121-.182-.272-.4-.446-.635l-.009-.012a11.534,11.534,0,0,0-2.171-2.29l.194-.2a.889.889,0,0,0-.2-1.39l-.189-.108-.155-1.091a.34.34,0,0,0-.532-.232C9.754,62.852,6.7,65,5.855,66.319A2.129,2.129,0,0,0,5.986,68.9,3.076,3.076,0,0,0,6.2,69.913ZM32.8,80.6H13.632a1.755,1.755,0,0,1-1.24-.509L6.823,74.6a1.939,1.939,0,0,1-.573-1.372V71.379a1.328,1.328,0,0,1,.327-.873,1.845,1.845,0,0,0,.267.237,2.3,2.3,0,0,0,1.368.4,3.4,3.4,0,0,0,.743-.083,1.6,1.6,0,0,0,.356.028c.374.315.986.839,1.6,1.4a1.947,1.947,0,0,0-.069.292c0,.03-.008.059-.011.089l-1.054-.968a.341.341,0,0,0-.46.5l2.073,1.9h0l.965.886,2.259,2.074a.34.34,0,0,0,.23.09H32.8ZM12.419,72.1a1.055,1.055,0,0,1,.786.309l.7.695-1.334,1.37-.111-.1-.613-.562a1.035,1.035,0,0,1-.335-.919,1.22,1.22,0,0,1,.154-.433l0-.006A1.032,1.032,0,0,1,12.419,72.1Zm3.447,2.952a.34.34,0,0,0,.237.1l3.249.019a1.53,1.53,0,0,1,1.515,1.51H14.975l-1.9-1.747.011-.011,1.3-1.34Zm.026-2.444.528.414.039.029,0,0a3.159,3.159,0,0,0,1.9.641H30.285A2.522,2.522,0,0,1,32.8,76.219v.463H21.548a2.213,2.213,0,0,0-2.191-2.193l-3.11-.019-1.623-1.612-.94-.933c-.025-.024-.051-.046-.077-.069a3.494,3.494,0,0,1,2.286.754Zm-3.25-1.3c-.181.048-.313.093-.376.116a1.7,1.7,0,0,0-1,.465c-.179-.164-.357-.324-.528-.475a1.335,1.335,0,0,0,1.221-.226l.372-.29q.146.208.312.41ZM12.259,68.3a1.357,1.357,0,0,1-.925.567.342.342,0,0,0,.048.68.349.349,0,0,0,.049,0,2.044,2.044,0,0,0,1.242-.672c.054.078.106.154.152.223a.476.476,0,0,1-.1.636l-1.18.918a.666.666,0,0,1-.751.049l-.66-.389a.339.339,0,0,0-.3-.024,1.716,1.716,0,0,1-.435.11H9.386a1.108,1.108,0,0,1-.237,0,.768.768,0,0,1-.1-.894.694.694,0,0,0,.074-.539.674.674,0,0,0-.337-.419l-.011-.006a.367.367,0,0,1-.183-.272.408.408,0,0,1,.11-.344l1.591-1.651a10.325,10.325,0,0,1,1.97,2.028Zm-5.83-1.617a17.271,17.271,0,0,1,3.393-3.04l.1.7a.341.341,0,0,0,.169.249l.334.19a.205.205,0,0,1,.046.321l-.463.481,0,0-1.8,1.864a1.087,1.087,0,0,0-.294.918,1.047,1.047,0,0,0,.523.768.084.084,0,0,1,.024.017,1.365,1.365,0,0,0-.065,1.3,1.76,1.76,0,0,1-1.151-.262,1.746,1.746,0,0,1-.584-1.441.347.347,0,0,0-.1-.233A1.429,1.429,0,0,1,6.429,66.687Z" transform="translate(0 -47.286)" fill="#021b8d"/>
      <path id="Path_116671" data-name="Path 116671" d="M151.881,86.581a.341.341,0,0,0-.341.341v1.489h-1.323a.341.341,0,0,0-.341.341v4.991a1.171,1.171,0,0,0,1.17,1.17h2.5a.341.341,0,0,0,.341-.341V89.255a.844.844,0,0,0-.843-.843h-.821V86.922A.341.341,0,0,0,151.881,86.581Zm1.323,2.674v.726h-.471a.341.341,0,0,0,0,.683h.471v.657h-.983a.341.341,0,0,0,0,.683h.983v.657h-.471a.341.341,0,0,0,0,.683h.471v.886h-2.159a.487.487,0,0,1-.487-.487V89.095h2.485A.161.161,0,0,1,153.2,89.255Z" transform="translate(-132.113 -73.702)" fill="#4bc4f9"/>
      <path id="Path_116672" data-name="Path 116672" d="M56.683,170.625a1.172,1.172,0,0,0,.589-.615.362.362,0,0,0-.009-.292.339.339,0,0,0-.6-.01.677.677,0,0,1-.3.326.336.336,0,0,0,.32.59Z" transform="translate(-46.386 -149.572)" fill="#4bc4f9"/>
      <path id="Path_116673" data-name="Path 116673" d="M207.667,18.834h0a.333.333,0,0,0,.061.006h.008a.336.336,0,0,0,.053,0h0a7.377,7.377,0,0,0,5.223-4.259,5.4,5.4,0,0,0,.368-2V7.174a.341.341,0,0,0-.4-.336c-.035.007-3.553.642-5.014-.745l-.006,0a.345.345,0,0,0-.046-.036l0,0a.333.333,0,0,0-.045-.024l-.009,0-.018-.006-.042-.011-.018,0a.335.335,0,0,0-.055,0h0a.347.347,0,0,0-.059.007l-.015,0a.35.35,0,0,0-.043.014l-.016.007a.34.34,0,0,0-.05.028h0a.345.345,0,0,0-.04.032c-1.461,1.387-4.979.751-5.014.745a.341.341,0,0,0-.4.336v5.405a5.4,5.4,0,0,0,.368,2,7.377,7.377,0,0,0,5.223,4.259Zm.062-9.791a4.8,4.8,0,0,0,2.991.478v3a2.834,2.834,0,0,1-.192,1.048,2.85,2.85,0,0,1-5.6,0,2.836,2.836,0,0,1-.192-1.048v-3a4.8,4.8,0,0,0,2.991-.479Zm4.97-1.471v5.008a4.721,4.721,0,0,1-.32,1.745,6.655,6.655,0,0,1-4.309,3.733V16.5a4.685,4.685,0,0,0,3.093-2.681,3.516,3.516,0,0,0,.24-1.3V9.129a.341.341,0,0,0-.4-.336,4.49,4.49,0,0,1-2.928-.346V7.015a8.126,8.126,0,0,0,4.628.557Zm-9.94,0a8.127,8.127,0,0,0,4.629-.557V8.448a4.494,4.494,0,0,1-2.928.345.341.341,0,0,0-.4.336V12.52a3.516,3.516,0,0,0,.24,1.3,4.685,4.685,0,0,0,3.093,2.682v1.557a6.655,6.655,0,0,1-4.309-3.733,4.72,4.72,0,0,1-.32-1.745Z" transform="translate(-179.902)" fill="#4bc4f9"/>
    </g>
  </g>
</svg>
