<svg xmlns="http://www.w3.org/2000/svg" width="64" height="64" viewBox="0 0 64 64">
  <g id="Healthtop" transform="translate(-280 -562)">
    <rect id="Rectangle_168061" data-name="Rectangle 168061" width="64" height="64" rx="32" transform="translate(280 562)" fill="#fff"/>
    <g id="Super_top-up" transform="translate(295.76 577.802)">
      <path id="Path_116674" data-name="Path 116674" d="M31.116,10.882H29.7V9.47a.47.47,0,0,0-.47-.47H27.352a.47.47,0,0,0-.47.47v1.411H25.47a.47.47,0,0,0-.47.47v1.882a.47.47,0,0,0,.47.47h1.411v1.411a.47.47,0,0,0,.47.47h1.882a.47.47,0,0,0,.47-.47V13.7h1.411a.47.47,0,0,0,.47-.47V11.352A.47.47,0,0,0,31.116,10.882Zm-.47,1.882H29.234a.47.47,0,0,0-.47.47v1.411h-.941V13.234a.47.47,0,0,0-.47-.47H25.941v-.941h1.411a.47.47,0,0,0,.47-.47V9.941h.941v1.411a.47.47,0,0,0,.47.47h1.411Z" transform="translate(-12.053 -3.602)" fill="#4bc4f9"/>
      <path id="Path_116675" data-name="Path 116675" d="M45.575,15.97a2.154,2.154,0,0,0,.014-.249,1.891,1.891,0,0,0-1.5-1.839,1.915,1.915,0,0,0-2.211,1.4l-2.07,5.956a.767.767,0,0,0-.089.042l-4.159,2.437a4.242,4.242,0,0,0-2.093,3.651V31.8a.47.47,0,0,0-.47.47V36.03a.47.47,0,0,0,.47.47h6.586a.47.47,0,0,0,.47-.47V32.266a.47.47,0,0,0-.47-.47V30.761a1.43,1.43,0,0,1,.47-1.054l3.18-2.827a2.32,2.32,0,0,0,.715-1.153l2.042-7.635a1.86,1.86,0,0,0,.066-.489,1.891,1.891,0,0,0-.955-1.632Zm-2.794-.414A.994.994,0,0,1,43.9,14.8a.941.941,0,0,1,.748.917v.009a1.929,1.929,0,0,0-1.83,1.44l-1.313,4.05a1.976,1.976,0,0,0-.63-.179Zm-3.194,20H33.941V32.737h5.645Zm5.97-17.712-2.046,7.64a1.4,1.4,0,0,1-.423.687L39.9,29a2.378,2.378,0,0,0-.786,1.759V31.8h-4.7V27.364a3.318,3.318,0,0,1,1.628-2.841l4.154-2.432a.941.941,0,0,1,1.289.343.969.969,0,0,1,.094.715.941.941,0,0,1-.442.569l-2.7,1.557a.47.47,0,0,0,.47.814l2.7-1.557a1.857,1.857,0,0,0,.88-1.143,1.885,1.885,0,0,0-.188-1.425l-.028-.042,1.454-4.483a.994.994,0,0,1,1.12-.753.941.941,0,0,1,.748.917A.81.81,0,0,1,45.556,17.847Z" transform="translate(-16.289 -6.301)" fill="#021b8d"/>
      <path id="Path_116676" data-name="Path 116676" d="M15.3,31.8V27.366a4.242,4.242,0,0,0-2.093-3.651L9.047,21.274c-.028-.014-.061-.024-.089-.038L6.9,15.314a1.932,1.932,0,0,0-2.225-1.43,1.891,1.891,0,0,0-1.5,1.839,2.154,2.154,0,0,0,.014.249A1.891,1.891,0,0,0,2.24,17.6a2.08,2.08,0,0,0,.061.489l2.046,7.63a2.313,2.313,0,0,0,.715,1.157l3.175,2.827a1.417,1.417,0,0,1,.475,1.054V31.8a.47.47,0,0,0-.47.47v3.763a.47.47,0,0,0,.47.47H15.3a.47.47,0,0,0,.47-.47V32.268A.47.47,0,0,0,15.3,31.8ZM4.122,15.723a.941.941,0,0,1,.743-.917A1.017,1.017,0,0,1,6,15.591l1.891,5.452a1.976,1.976,0,0,0-.63.179L5.961,17.2a1.952,1.952,0,0,0-1.839-1.463ZM8.864,29l-3.18-2.827a1.4,1.4,0,0,1-.423-.692L3.209,17.849a1,1,0,0,1-.028-.245.941.941,0,0,1,.743-.917,1.009,1.009,0,0,1,1.134.776L6.5,21.923l-.028.042a1.885,1.885,0,0,0-.188,1.425,1.857,1.857,0,0,0,.88,1.143l2.7,1.557a.47.47,0,0,0,.47-.814l-2.7-1.557a.941.941,0,0,1-.442-.569.969.969,0,0,1,.094-.715.941.941,0,0,1,1.284-.348l4.159,2.437a3.317,3.317,0,0,1,1.628,2.841V31.8h-4.7V30.763A2.366,2.366,0,0,0,8.864,29Zm5.965,6.558H9.184V32.738h5.645Z" transform="translate(0 -6.303)" fill="#021b8d"/>
      <path id="Path_116677" data-name="Path 116677" d="M29.616,3.579a4.7,4.7,0,0,0-6.655,0h0a4.7,4.7,0,1,0-6.655,6.649l6.323,6.323a.47.47,0,0,0,.665,0l6.323-6.323a4.707,4.707,0,0,0,0-6.65ZM22.961,15.553l-5.99-5.99A3.763,3.763,0,0,1,19.635,3.14a3.724,3.724,0,0,1,2.659,1.1l.334.334a.47.47,0,0,0,.665,0l.335-.335a3.762,3.762,0,0,1,5.322,5.319Z" transform="translate(-6.721)" fill="#4bc4f9"/>
    </g>
  </g>
</svg>
