<svg xmlns="http://www.w3.org/2000/svg" xmlns:xlink="http://www.w3.org/1999/xlink" width="360" height="80" viewBox="0 0 360 80">
  <defs>
    <linearGradient id="linear-gradient" x1="-0.941" y1="0.5" x2="0.059" y2="0.5" gradientUnits="objectBoundingBox">
      <stop offset="0" stop-color="#4b85de"/>
      <stop offset="0.566" stop-color="#00ace8"/>
    </linearGradient>
  </defs>
  <g id="Banner2" transform="translate(0 -647)">
    <rect id="family_health_insurance_vector" width="360" height="80" transform="translate(0 647)" fill="#fff"/>
    <text id="Lorem_ipsum_dolor_sit_amet_consetetur_sadipscing_elitr_sed" data-name="Lorem ipsum dolor sit amet, consetetur sadipscing elitr, sed" transform="translate(21 671)" fill="#021b8d" font-size="10" font-family="Poppins-Medium, Poppins" font-weight="500"><tspan x="0" y="11">Lorem ipsum dolor sit amet, </tspan><tspan x="0" y="27">consetetur sadipscing elitr, sed</tspan></text>
    <g id="Group_1164" data-name="Group 1164" transform="translate(-733.759 396.376)">
      <path id="Path_115508" data-name="Path 115508" d="M1000.442,866.42c-8.141,1.776-15.4,3.851-23.053,8.783-7.318,4.718-26.373,5.746-26.123,20.426.335,19.631,25.57,17.369,37.439,9.528,6.218-4.108,14.823-4.391,21.761-3.836,8.613.689,16.645-2.365,21.883-8.421,2.115-2.445,3.5-5,3.682-6.96.357-3.878-.063-4.829-1.017-7.682-3.021-9.04-14.356-11.964-21.716-14.224-5.09-1.563-10.046-3.5-15.233-3.7-4.592-.182-3.668-.479-5.746,2.208" transform="translate(0 -580.256)" fill="#d2e4f9" opacity="0.7"/>
      <g id="Group_1140" data-name="Group 1140" transform="translate(1026.173 285.133)">
        <g id="Group_1137" data-name="Group 1137" transform="translate(12.024 6.942)">
          <g id="Group_1136" data-name="Group 1136">
            <path id="Path_115509" data-name="Path 115509" d="M2757.423,1111.967l.269-.156-.025,8.713-.269.156Z" transform="translate(-2757.398 -1111.811)" fill="#153793"/>
          </g>
        </g>
        <g id="Group_1138" data-name="Group 1138" transform="translate(0.025 0)">
          <path id="Path_115510" data-name="Path 115510" d="M2508.092,967.734l.269-.156,12.025,6.942-.27.156Z" transform="translate(-2508.092 -967.577)" fill="#153793"/>
        </g>
        <g id="Group_1139" data-name="Group 1139" transform="translate(0 0.156)">
          <path id="Path_115511" data-name="Path 115511" d="M2519.628,977.768l-.025,8.713-12.025-6.942.025-8.713Z" transform="translate(-2507.578 -970.826)" fill="#2f70ff"/>
        </g>
      </g>
      <path id="Path_115512" data-name="Path 115512" d="M2556.122,1027.264l3.052,1.762V1034l-3.052-1.762Z" transform="translate(-1527.613 -739.258)" fill="#2f70ff"/>
      <g id="Group_1141" data-name="Group 1141" transform="translate(1032.224 290.85)">
        <path id="Path_115513" data-name="Path 115513" d="M2633.285,1176.06l3.744,2.161v.386l-3.744-2.161Z" transform="translate(-2633.285 -1171.743)" fill="#fff"/>
        <path id="Path_115514" data-name="Path 115514" d="M2636.328,1147.475l-3.043-1.757v.386l3.043,1.757Z" transform="translate(-2633.285 -1142.861)" fill="#fff"/>
        <path id="Path_115515" data-name="Path 115515" d="M2636.328,1103.689l-3.043-1.757v.386l3.043,1.757Z" transform="translate(-2633.285 -1101.183)" fill="#fff"/>
        <path id="Path_115516" data-name="Path 115516" d="M2637.167,1119.118l-3.882-2.24v.386l3.882,2.24Z" transform="translate(-2633.285 -1115.41)" fill="#fff"/>
        <path id="Path_115517" data-name="Path 115517" d="M2633.285,1161.5l4.961,2.87v.386l-4.961-2.87Z" transform="translate(-2633.285 -1157.883)" fill="#fff"/>
        <path id="Path_115518" data-name="Path 115518" d="M2633.285,1086.365l4.961,2.87v.386l-4.961-2.87Z" transform="translate(-2633.285 -1086.365)" fill="#fff"/>
      </g>
      <path id="Path_115519" data-name="Path 115519" d="M2548.373,1048.585v-.63c.306-.143.51-.584.515-1.221.068.023.078-.474.18-.633-.262-.523-.086-.721-.191-1.01a1.609,1.609,0,0,0-1.314-1.084c-.216-.047-.145-.312-.131,0a.979.979,0,0,0-.755,1.469,3.676,3.676,0,0,0,.5,1.771v.646c0,.464-1.056.648-1.056.648l1.523.879.265.153,1.523.879A6.638,6.638,0,0,1,2548.373,1048.585Z" transform="translate(-1518.091 -755.054)" fill="#fff"/>
      <rect id="Rectangle_168074" data-name="Rectangle 168074" width="1.383" height="4.384" transform="translate(1027.189 294.3) rotate(-61.607)" fill="#2f70ff"/>
      <g id="Group_1142" data-name="Group 1142" transform="translate(1026.456 277.971)" opacity="0.8">
        <path id="Path_115520" data-name="Path 115520" d="M2621.534,881.439l.442-.257-.017,5.976-.443.257Z" transform="translate(-2616.315 -878.179)" fill="#153793"/>
        <path id="Path_115521" data-name="Path 115521" d="M2513.81,819.05l.442-.257,5.2,3-.442.257Z" transform="translate(-2513.793 -818.793)" fill="#153793"/>
        <path id="Path_115522" data-name="Path 115522" d="M2518.676,827.14l-.017,5.977-5.2-3,.017-5.977Z" transform="translate(-2513.458 -823.88)" fill="#2f70ff"/>
      </g>
      <g id="Group_1145" data-name="Group 1145" transform="translate(1027.229 280.666)">
        <path id="Path_115523" data-name="Path 115523" d="M2549.55,877.741V877.5l1.032.6v.237l.163.094V878l-1.358-.784v.431Z" transform="translate(-2548.431 -877.098)" fill="#fff"/>
        <g id="Group_1143" data-name="Group 1143" transform="translate(0.211)">
          <path id="Path_115524" data-name="Path 115524" d="M2534.3,875.128l-.4-.233v-.118l.4.233Z" transform="translate(-2533.897 -874.776)" fill="#fff"/>
          <path id="Path_115525" data-name="Path 115525" d="M2585.1,904.456l-.4-.233V904.1l.4.233Z" transform="translate(-2582.254 -902.693)" fill="#fff"/>
        </g>
        <g id="Group_1144" data-name="Group 1144" transform="translate(0 0.054)">
          <path id="Path_115526" data-name="Path 115526" d="M2548.965,902.973c-.405-.234-.735-.044-.735.424a1.626,1.626,0,0,0,.734,1.273c.405.234.735.044.735-.424A1.627,1.627,0,0,0,2548.965,902.973Zm.521,1.394-.31-.179v.358l-.423-.244v-.358l-.311-.179v-.488l.311.179V903.1l.423.244v.358l.31.179Z" transform="translate(-2547.33 -901.575)" fill="#fff"/>
          <path id="Path_115527" data-name="Path 115527" d="M2529.521,875.9v2.6l3.27,1.888v-2.6Zm1.635,3.163a1.756,1.756,0,0,1-.793-1.374c0-.505.356-.711.793-.458a1.756,1.756,0,0,1,.793,1.375C2531.949,879.115,2531.594,879.32,2531.156,879.068Z" transform="translate(-2529.521 -875.905)" fill="#fff"/>
        </g>
        <path id="Path_115528" data-name="Path 115528" d="M2529.664,878.592v-2.44l3.127,1.806v-.165l-3.27-1.888v2.6Z" transform="translate(-2529.521 -875.85)" fill="#fff"/>
        <path id="Path_115529" data-name="Path 115529" d="M2532.648,916.845v2.275l-3.127-1.806v.165l3.27,1.888v-2.44Z" transform="translate(-2529.521 -914.82)" fill="#fff"/>
      </g>
      <g id="Group_1146" data-name="Group 1146" transform="translate(1026.959 270.657)" opacity="0.8">
        <path id="Path_115530" data-name="Path 115530" d="M2625.238,725.563l.415-.241-.016,5.6-.415.241Z" transform="translate(-2620.346 -722.506)" fill="#153793"/>
        <path id="Path_115531" data-name="Path 115531" d="M2524.239,667.069l.415-.241,4.877,2.816-.415.241Z" transform="translate(-2524.223 -666.828)" fill="#153793"/>
        <path id="Path_115532" data-name="Path 115532" d="M2528.8,674.654l-.016,5.6-4.876-2.816.016-5.6Z" transform="translate(-2523.909 -671.597)" fill="#2f70ff"/>
      </g>
      <g id="Group_1147" data-name="Group 1147" transform="translate(1028.365 273.653)">
        <path id="Path_115533" data-name="Path 115533" d="M2554.177,729.078a10.868,10.868,0,0,1,1.1,2.733c0,.684-.477.963-1.075.623a2.379,2.379,0,0,1-1.088-1.853C2553.1,729.9,2554.123,729.119,2554.177,729.078Z" transform="translate(-2553.109 -729.078)" fill="#fff"/>
      </g>
      <path id="Path_115534" data-name="Path 115534" d="M2760.118,798.372l.415-.241-.016,5.6-.415.241Z" transform="translate(-1721.775 -521.154)" fill="#153793"/>
      <path id="Path_115535" data-name="Path 115535" d="M2659.119,739.877l.415-.241,4.877,2.815-.415.241Z" transform="translate(-1625.652 -465.475)" fill="#153793"/>
      <path id="Path_115536" data-name="Path 115536" d="M2663.681,747.462l-.016,5.6-4.877-2.815.016-5.6Z" transform="translate(-1625.338 -470.244)" fill="#2f70ff"/>
      <g id="Group_1148" data-name="Group 1148" transform="translate(1034.778 276.245)">
        <path id="Path_115537" data-name="Path 115537" d="M2710.658,792.588a1.061,1.061,0,0,1,.245.288v0a1.213,1.213,0,0,1,.1.936c-.011.071-.024.153-.036.242-.009.063-.035.185-.037.19l-.078-.065s.027-.124.036-.184c.012-.09.025-.171.036-.243a1.089,1.089,0,0,0-.078-.845.889.889,0,0,0-.205-.24,1.849,1.849,0,0,0-.186-.114l0-.093A1.866,1.866,0,0,1,2710.658,792.588Z" transform="translate(-2709.294 -792.003)" fill="#fff"/>
        <path id="Path_115538" data-name="Path 115538" d="M2686.5,782.956h0a.3.3,0,0,1,.245,0,1.719,1.719,0,0,1,.205.11l0,.091a1.672,1.672,0,0,0-.186-.1.252.252,0,0,0-.2,0c-.164.106-.137.31-.078.754.011.085.024.181.036.285.008.069.035.224.036.225l-.078-.025c0-.007-.028-.16-.037-.233-.012-.1-.025-.2-.036-.283C2686.338,783.328,2686.306,783.08,2686.5,782.956Z" transform="translate(-2686.351 -782.927)" fill="#fff"/>
      </g>
      <path id="Path_115539" data-name="Path 115539" d="M2702.959,833.664v1.1a1.025,1.025,0,0,0,.463.8c.255.147.463.028.463-.267v-.4c0-.007,0-.013,0-.02h0v-.287c0-.378.266-.531.593-.343a1.329,1.329,0,0,1,.588.94l-.132-.076a1.037,1.037,0,0,0-.457-.714c-.255-.147-.463-.027-.463.267v.4c0,.007,0,.013,0,.02h0v.287c0,.378-.266.531-.593.342a1.313,1.313,0,0,1-.593-1.027v-1.1Z" transform="translate(-1667.258 -554.905)" fill="#fff"/>
      <path id="Path_115540" data-name="Path 115540" d="M2698.3,785.489c0,.021-.015.028-.033.014l-.086-.066a.093.093,0,0,1-.033-.065v-.039c0-.021.015-.034.033-.026l.086.033a.06.06,0,0,1,.033.052Z" transform="translate(-1662.804 -508.946)" fill="#fff"/>
      <path id="Path_115541" data-name="Path 115541" d="M2710.242,791.955a.06.06,0,0,0,.033.052l.086.033c.019.007.033,0,.033-.026v-.039a.091.091,0,0,0-.033-.065l-.086-.066c-.018-.014-.033-.008-.033.013Z" transform="translate(-1674.314 -515.163)" fill="#fff"/>
      <path id="Path_115542" data-name="Path 115542" d="M2687.691,810.345a.009.009,0,0,1,.01,0l.133.037a.033.033,0,0,1,.02.024l0,.008c.042.212.076.37.094.434a.827.827,0,0,0,.331.491c.012-.011.031-.012.053,0l.3.172a.143.143,0,0,1,.056.065c.187.093.3.063.36-.1.027-.068.084-.286.1-.331,0-.009.011-.009.02,0l.133.116a.034.034,0,0,1,.011.03s-.068.264-.1.348c-.09.225-.266.265-.536.122a.081.081,0,0,1-.113.026l-.15-.087a.322.322,0,0,1-.114-.159,1.211,1.211,0,0,1-.5-.719c-.028-.1-.08-.356-.1-.459v-.005A.015.015,0,0,1,2687.691,810.345Z" transform="translate(-1652.847 -532.777)" fill="#fff"/>
      <path id="Path_115543" data-name="Path 115543" d="M2744.074,864.2a.426.426,0,0,0,.192.333c.106.061.193.012.193-.111a.427.427,0,0,0-.193-.334C2744.16,864.03,2744.074,864.08,2744.074,864.2Zm.078.045c0-.073.051-.1.115-.066a.254.254,0,0,1,.115.2c0,.073-.052.1-.115.066A.253.253,0,0,1,2744.152,864.248Z" transform="translate(-1706.518 -583.915)" fill="#fff"/>
      <path id="Path_115544" data-name="Path 115544" d="M2754.819,955.559l.415-.241-.016,5.6-.415.241Z" transform="translate(-1716.731 -670.775)" fill="#153793"/>
      <path id="Path_115545" data-name="Path 115545" d="M2653.82,897.065l.415-.241,4.876,2.815-.415.241Z" transform="translate(-1620.608 -615.097)" fill="#153793"/>
      <path id="Path_115546" data-name="Path 115546" d="M2658.382,904.65l-.016,5.6-4.876-2.815.016-5.6Z" transform="translate(-1620.293 -619.866)" fill="#2f70ff"/>
      <path id="Path_115547" data-name="Path 115547" d="M2679.554,961.831a1.728,1.728,0,0,0-.042-.226c-.019-.078-.043-.155-.059-.233a.862.862,0,0,1-.02-.2.691.691,0,0,0-.016-.18.571.571,0,0,0-.08-.161.335.335,0,0,0-.119-.118c-.04-.019-.07.007-.1.021a.39.39,0,0,0-.062.017.335.335,0,0,0-.08.039l0,0a.005.005,0,0,0,0,0,.585.585,0,0,0-.127.122.948.948,0,0,0-.162.287,1.531,1.531,0,0,0-.082.392,4.954,4.954,0,0,0-.017.516c0,.17-.027.316-.037.477,0,.049-.083.048-.065.1s.139.139.174.157a.2.2,0,0,0,.124.024.313.313,0,0,0,.121-.047,1.36,1.36,0,0,1,.126-.087.346.346,0,0,1,.135-.03,1.211,1.211,0,0,0,.149-.036.252.252,0,0,1,.073-.006.086.086,0,0,0,.063-.013.138.138,0,0,0,.038-.056c.012-.029.025-.059.035-.091a1.07,1.07,0,0,0,.043-.2A2.156,2.156,0,0,0,2679.554,961.831Z" transform="translate(-1644.075 -675.907)" fill="#fff"/>
      <path id="Path_115548" data-name="Path 115548" d="M2678.634,961.427a1.462,1.462,0,0,0-.051-.231c-.024-.08-.053-.161-.073-.24a.747.747,0,0,1-.026-.2.575.575,0,0,0-.02-.182.633.633,0,0,0-.1-.174.471.471,0,0,0-.148-.135.168.168,0,0,0-.127.007.687.687,0,0,0-.077.008.469.469,0,0,0-.1.028l0,0-.006,0a.6.6,0,0,0-.158.1.793.793,0,0,0-.2.266,1.161,1.161,0,0,0-.1.381,3.764,3.764,0,0,0-.022.512,4.681,4.681,0,0,1-.045.473.4.4,0,0,0,.021.162.241.241,0,0,0,.111.128.315.315,0,0,0,.157.028.4.4,0,0,0,.15-.03,1.585,1.585,0,0,1,.156-.069.556.556,0,0,1,.168-.01,1.626,1.626,0,0,0,.184-.016.447.447,0,0,1,.091.005.148.148,0,0,0,.079,0,.123.123,0,0,0,.045-.052.741.741,0,0,0,.045-.085.834.834,0,0,0,.053-.2A1.774,1.774,0,0,0,2678.634,961.427Z" transform="translate(-1643.029 -675.474)" fill="#fff"/>
      <path id="Path_115549" data-name="Path 115549" d="M2679.251,961.4a1.428,1.428,0,0,0-.047-.206c-.025-.08-.053-.161-.074-.24a.757.757,0,0,1-.026-.2.575.575,0,0,0-.02-.182.64.64,0,0,0-.1-.174.469.469,0,0,0-.148-.135.167.167,0,0,0-.127.007.681.681,0,0,0-.077.008.462.462,0,0,0-.1.028l0,0-.006,0a.608.608,0,0,0-.158.1.8.8,0,0,0-.2.266,1.077,1.077,0,0,0-.137.354,1.316,1.316,0,0,0,.185.306,2.361,2.361,0,0,1,.416.64,2.156,2.156,0,0,1,.06.346C2678.917,962.356,2678.8,961.39,2679.251,961.4Z" transform="translate(-1643.65 -675.474)" fill="#fff"/>
      <path id="Path_115550" data-name="Path 115550" d="M2709.875,975.924c-.022.035-.067.027-.111,0a.855.855,0,0,1-.157-.156,1.955,1.955,0,0,1-.15-.206c-.053-.084-.1-.171-.156-.252a.19.19,0,0,1-.015-.021c-.048-.067-.1-.126-.153-.185s-.123-.155-.186-.232c-.024-.03-.049-.057-.074-.085l-.016-.016a.6.6,0,0,1-.079-.1.449.449,0,0,1-.037-.08.174.174,0,0,1-.009-.024c-.008-.024-.017-.047-.024-.07s-.014-.045-.02-.066a1.779,1.779,0,0,1-.053-.262,1.761,1.761,0,0,1,0-.473.659.659,0,0,1,.045-.159s0-.008.006-.013c.025-.051.053-.1.073-.154a.458.458,0,0,0,.026-.17.38.38,0,0,1,.02-.159.126.126,0,0,1,.1-.057.211.211,0,0,1,.147.037.631.631,0,0,1,.127.155c.027.032.052.065.077.1s.068.094.1.142l0,.007a.03.03,0,0,1,.005.009c.043.068.082.139.12.212v0l.037.074a3.471,3.471,0,0,1,.2.5,2.578,2.578,0,0,1,.087.379c.006.04.011.08.014.12.007.073.012.146.016.217.006.108.008.215.005.32,0,.166.033.352.045.525A.236.236,0,0,1,2709.875,975.924Z" transform="translate(-1672.77 -687.592)" fill="#fff"/>
      <path id="Path_115551" data-name="Path 115551" d="M2710.863,974.505c-.006.015-.011.032-.018.048-.022.052-.051.11-.069.154-.057.129-.148.249-.3.23a1.636,1.636,0,0,1-.2-.037l-.04-.011c-.039-.05-.081-.1-.123-.145s-.148-.2-.25-.346c-.051-.072-.1-.142-.132-.193,0-.008-.006-.016-.009-.024l-.024-.07c.026-.024.053-.048.08-.07a.541.541,0,0,0,.071-.461,1.156,1.156,0,0,0-.177-.428l-.012-.018h0c.025-.053.054-.1.076-.159a.513.513,0,0,0,.026-.174.4.4,0,0,1,.02-.163.124.124,0,0,1,.1-.057.206.206,0,0,1,.15.037.637.637,0,0,1,.129.158c.027.032.053.066.078.1s.069.1.1.146l0,.007a.034.034,0,0,1,.005.009c.045.073.086.147.125.223v0c.011.023.022.046.034.069a3.543,3.543,0,0,1,.206.512c.026.087.059.238.085.373S2710.861,974.476,2710.863,974.505Z" transform="translate(-1673.769 -687.204)" fill="#fff"/>
      <path id="Path_115552" data-name="Path 115552" d="M2704.914,950.776l-.187-.109v-1.052l.187.109Z" transform="translate(-1669.065 -665.347)" fill="#fff"/>
      <path id="Path_115553" data-name="Path 115553" d="M2684.771,961.638c-.009-.01-.018,0-.011.011a.189.189,0,0,1,.011.139.286.286,0,0,1-.039.108.4.4,0,0,1-.252.124c-.079.019-.173.021-.219.1a.492.492,0,0,0-.044.17,1.722,1.722,0,0,0-.014.232,1.937,1.937,0,0,1,0,.338.228.228,0,0,1-.141.187c-.065.022-.139.024-.2.048a.2.2,0,0,0-.129.161c0,.012.014.025.017.014a.2.2,0,0,1,.076-.13.3.3,0,0,1,.122-.042.314.314,0,0,0,.236-.117.634.634,0,0,0,.046-.347,1.686,1.686,0,0,1,.006-.252.56.56,0,0,1,.05-.2c.033-.063.106-.064.169-.075a.837.837,0,0,0,.239-.065.218.218,0,0,0,.124-.17A.3.3,0,0,0,2684.771,961.638Z" transform="translate(-1649.075 -676.787)" fill="#fff"/>
      <path id="Path_115554" data-name="Path 115554" d="M2695.31,972.483c-.007-.031-.021-.063-.029-.094a.539.539,0,0,1-.016-.088.551.551,0,0,1,.007-.141.947.947,0,0,0,.027-.278.543.543,0,0,0-.108-.242c-.057-.081-.169-.2-.16-.3,0-.006-.008-.017-.01-.011-.032.068.054.19.107.263a.682.682,0,0,1,.139.267.963.963,0,0,1-.021.308.553.553,0,0,0,0,.14.465.465,0,0,0,.055.173C2695.305,972.489,2695.311,972.489,2695.31,972.483Z" transform="translate(-1659.819 -686.016)" fill="#fff"/>
      <path id="Path_115555" data-name="Path 115555" d="M2684.167,981.154c0-.005-.006-.008-.006,0a.255.255,0,0,1-.049.159.124.124,0,0,1-.116.02,1.79,1.79,0,0,1-.314-.149s0,0,0,0a1.731,1.731,0,0,0,.171.1.558.558,0,0,0,.161.064.115.115,0,0,0,.113-.028A.232.232,0,0,0,2684.167,981.154Z" transform="translate(-1649.032 -695.362)" fill="#fff"/>
      <path id="Path_115556" data-name="Path 115556" d="M2684.489,966.3a.342.342,0,0,0-.1-.085.31.31,0,0,0-.212-.051c-.057.014-.082.085-.116.132s-.092.125-.173.051c0,0,0,0,0,0a.118.118,0,0,0,.078.041.113.113,0,0,0,.077-.037,1.52,1.52,0,0,1,.125-.139.114.114,0,0,1,.076-.009.355.355,0,0,1,.115.034.34.34,0,0,1,.11.078.216.216,0,0,1,.036.052c0,.006.018.038.027.032S2684.507,966.322,2684.489,966.3Z" transform="translate(-1649.226 -681.093)" fill="#fff"/>
      <path id="Path_115557" data-name="Path 115557" d="M2705.627,967.422a.325.325,0,0,0,.141-.265.818.818,0,0,0-.136-.392c-.063-.108-.138-.207-.209-.305a1.759,1.759,0,0,0-.127-.15c-.06-.066-.119-.129-.182-.19-.012-.012-.084-.091-.087-.057a.021.021,0,0,0,.009.016l0,0a.089.089,0,0,0,.01.013l.034.04.1.118c.06.073.123.142.183.215.035.043.068.092.1.139.043.061.085.122.124.187a.745.745,0,0,1,.131.382.29.29,0,0,1-.108.2.992.992,0,0,0-.154.15.362.362,0,0,0-.056.122.23.23,0,0,0,0,.131,1.787,1.787,0,0,0,.13.24c.009.019.029.016.019,0-.027-.056-.061-.107-.093-.161a.345.345,0,0,1-.037-.084.206.206,0,0,1,.005-.1C2705.452,967.541,2705.548,967.488,2705.627,967.422Z" transform="translate(-1669.35 -680.994)" fill="#fff"/>
      <path id="Path_115558" data-name="Path 115558" d="M2719.725,987.34a.851.851,0,0,1-.039-.223c-.007-.071-.015-.143-.027-.216a.666.666,0,0,0-.025-.1,1.107,1.107,0,0,0-.05-.111,2.423,2.423,0,0,0-.134-.223,1.01,1.01,0,0,1-.131-.471c0-.069-.006-.138-.005-.205a1.068,1.068,0,0,0-.01-.182.55.55,0,0,0-.094-.237c-.005-.008-.011,0-.007.007a.37.37,0,0,1,.049.189c0,.061,0,.116-.008.173a1.683,1.683,0,0,0,.022.437,1.065,1.065,0,0,0,.09.259,2.5,2.5,0,0,0,.132.216c.021.034.046.065.067.1a.521.521,0,0,1,.05.1,1.143,1.143,0,0,1,.045.227.658.658,0,0,0,.059.262C2719.718,987.36,2719.73,987.354,2719.725,987.34Z" transform="translate(-1682.843 -699.38)" fill="#fff"/>
      <path id="Path_115559" data-name="Path 115559" d="M2721.111,998.568a1.184,1.184,0,0,0-.066-.144.687.687,0,0,1-.046-.147.544.544,0,0,0-.08-.226.8.8,0,0,0-.184-.176c-.034-.024-.069-.048-.1-.069a.628.628,0,0,0-.093-.056c-.01,0-.017.009-.005.022a.523.523,0,0,0,.082.065l.1.067a.976.976,0,0,1,.186.165.58.58,0,0,1,.083.236.738.738,0,0,0,.05.132.788.788,0,0,0,.072.134S2721.113,998.574,2721.111,998.568Z" transform="translate(-1684.106 -711.164)" fill="#fff"/>
      <path id="Path_115560" data-name="Path 115560" d="M2718.222,982.846a1.17,1.17,0,0,0-.074-.127,1.041,1.041,0,0,1-.079-.148,1.282,1.282,0,0,0-.116-.254.4.4,0,0,0-.145-.132c-.042-.021-.107-.019-.105.039,0,.006.007.016.011.014s.028-.023.047-.025a.118.118,0,0,1,.063.021.432.432,0,0,1,.13.132,2.173,2.173,0,0,1,.113.241c.043.083.1.163.149.242C2718.22,982.85,2718.223,982.849,2718.222,982.846Z" transform="translate(-1681.416 -696.336)" fill="#fff"/>
      <path id="Path_115561" data-name="Path 115561" d="M2063.725,1033.235v0Z" transform="translate(-1058.915 -744.942)" opacity="0.1"/>
      <path id="Path_115562" data-name="Path 115562" d="M2037.693,1029.672v-.3l.394-.024-.081.355-.116.038Z" transform="translate(-1034.137 -741.243)" fill="#dea636"/>
      <path id="Path_115563" data-name="Path 115563" d="M1195.629,910.625l-8.349-4.82-1.48.86,7.76,4.48-36.036,20.942-26.084-15.059,36.036-20.942,7.76,4.48,1.48-.86-8.349-4.82a1.921,1.921,0,0,0-1.737,0l-37.378,21.722a.532.532,0,0,0,.006,1.006l27.262,15.74a1.92,1.92,0,0,0,1.737,0l37.378-21.721a.533.533,0,0,0-.006-1.006Z" transform="translate(-169.083 -613.053)" fill="#2531a7"/>
      <path id="Path_115564" data-name="Path 115564" d="M1158.254,922.516a1.922,1.922,0,0,1-1.737,0l-27.262-15.74a.533.533,0,0,1-.006-1.007l37.378-21.721a1.919,1.919,0,0,1,1.737,0l8.349,4.82-1.479.86-1.16.674a.039.039,0,0,0,0,.074l10.435,6.025a.142.142,0,0,0,.128,0l1.161-.674,1.3-1.035,8.524,5a.532.532,0,0,1,.006,1.006" transform="translate(-169.08 -602.739)" fill="#5a96ff"/>
      <g id="Clipboard" transform="translate(963.263 282.737)">
        <g id="Group_1149" data-name="Group 1149" transform="translate(0 0)">
          <path id="Path_115565" data-name="Path 115565" d="M1261.722,932.633l-25.677-14.825-35.474,20.616,25.678,14.825,35.474-20.616Z" transform="translate(-1200.57 -917.809)" fill="#fff"/>
        </g>
      </g>
      <path id="Path_115566" data-name="Path 115566" d="M1787.138,1106.5l-17.262-9.966a1.2,1.2,0,0,0-1.088,0,.333.333,0,0,0,0,.63l17.262,9.966a1.2,1.2,0,0,0,1.088,0,.334.334,0,0,0,0-.63Z" transform="translate(-777.963 -805.071)" fill="#cce6ff"/>
      <path id="Path_115567" data-name="Path 115567" d="M1744.015,1123.827l-16.7-9.395c-.921-.491-1.116-.624-1.414-.45a.333.333,0,0,0,0,.63l17.262,9.966a1.2,1.2,0,0,0,1.088,0,.334.334,0,0,0,0-.63Z" transform="translate(-737.138 -821.733)" fill="#cce6ff"/>
      <path id="Path_115568" data-name="Path 115568" d="M1696.885,1145.153l-12.787-7.382a1.2,1.2,0,0,0-1.088,0,.333.333,0,0,0,0,.63l12.787,7.382a1.2,1.2,0,0,0,1.088,0,.334.334,0,0,0,0-.63Z" transform="translate(-696.314 -844.323)" fill="#cce6ff"/>
      <path id="Path_115569" data-name="Path 115569" d="M1637.291,1184.97,1620.029,1175a1.2,1.2,0,0,0-1.088,0,.333.333,0,0,0,0,.63l17.262,9.966a1.2,1.2,0,0,0,1.088,0,.334.334,0,0,0,0-.63Z" transform="translate(-635.328 -879.763)" fill="#cce6ff"/>
      <path id="Path_115570" data-name="Path 115570" d="M1594.4,1209.9l-17.262-9.966a1.2,1.2,0,0,0-1.088,0,.334.334,0,0,0,0,.63l17.262,9.966a1.2,1.2,0,0,0,1.088,0,.333.333,0,0,0,0-.63Z" transform="translate(-594.502 -903.49)" fill="#cce6ff"/>
      <path id="Path_115571" data-name="Path 115571" d="M1547.034,1232.236l-12.787-7.382a1.2,1.2,0,0,0-1.088,0,.334.334,0,0,0,0,.63l12.786,7.382a1.2,1.2,0,0,0,1.088,0,.333.333,0,0,0,0-.63Z" transform="translate(-553.675 -927.213)" fill="#cce6ff"/>
      <path id="Path_115572" data-name="Path 115572" d="M1466.1,1270.684l-4.866-2.81a1.046,1.046,0,0,0-.946,0,.29.29,0,0,0,0,.548l4.867,2.81a1.045,1.045,0,0,0,.946,0,.29.29,0,0,0,0-.548Z" transform="translate(-484.342 -968.18)" fill="#cce6ff"/>
      <path id="Path_115573" data-name="Path 115573" d="M1434.068,1289.3l-4.866-2.81a1.045,1.045,0,0,0-.945,0,.29.29,0,0,0,0,.548l4.867,2.81a1.045,1.045,0,0,0,.946,0,.29.29,0,0,0,0-.548Z" transform="translate(-453.85 -985.898)" fill="#cce6ff"/>
      <path id="Path_115574" data-name="Path 115574" d="M1785.683,1515.892l-.47-.171.111.064a.908.908,0,0,0,.36.107Z" transform="translate(-793.809 -1204.204)" fill="#e1e1e1"/>
      <path id="Path_115575" data-name="Path 115575" d="M1686.986,1474.377l-.423-.244-.082.06h0l.506.184Z" transform="translate(-699.829 -1164.618)" fill="#e1e1e1"/>
      <path id="Path_115576" data-name="Path 115576" d="M1723.273,354.206c-5.116-2.894-10.117-7.831-14.309-14.122l-.057-.033c-4.192,1.45-9.193.612-14.309-2.4l-.2-.115.276,9.558c.971,14.816,6.024,21.265,14.158,35.04l.2.114c8.133-4.383,13.187-5,14.158-18.693l.276-9.24Z" transform="translate(-707.37 -82.728)" fill="#2f70ff"/>
      <path id="Path_115577" data-name="Path 115577" d="M1729.3,267.295c-5.116-2.894-10.117-7.831-14.309-14.122l-.057-.033c-4.192,1.45-9.193.612-14.309-2.4l-.2-.115-4.888,4.216.141.083c5.116,3.013,10.117,3.851,14.309,2.4l.057.033c4.192,6.29,9.193,11.227,14.309,14.122l.2.111-.276,9.24c-.633,8.939-3.007,12.3-6.841,14.783a23.851,23.851,0,0,0,11.783-18.966l.276-9.24Z" transform="translate(-708.455 0)" fill="#2531a7"/>
      <path id="Path_115578" data-name="Path 115578" d="M2015.251,317.164l-.2-.111c-5.116-2.894-10.117-7.831-14.309-14.122l-.057-.033-4.942,4.183.057.033c4.192,6.29,9.193,11.227,14.309,14.122l.2.111Z" transform="translate(-994.21 -49.759)" fill="#2531a7"/>
      <path id="Path_115579" data-name="Path 115579" d="M2157.534,603.453l-.276,9.24c-.634,8.939-3.007,12.3-6.84,14.783A23.852,23.852,0,0,0,2162.2,608.51l.276-9.24Z" transform="translate(-1141.435 -331.865)" fill="#2531a7"/>
      <path id="Path_115580" data-name="Path 115580" d="M1793.659,481.988a16.871,16.871,0,0,1-10.249-1.541l.156,5.405c.686,10.3,3.531,15.016,9.187,24.4l.906,1.5.9-.458c5.657-2.851,8.5-4.286,9.188-13.792l.156-5.225A45.676,45.676,0,0,1,1793.659,481.988Zm8.892,15.482c-.631,8.73-2.921,9.928-8.438,12.71l-.331-.549c-5.559-9.222-8.35-13.851-9.017-23.858l-.1-3.519a18.659,18.659,0,0,0,6.354,1.191,14.994,14.994,0,0,0,2.12-.149,46.675,46.675,0,0,0,9.55,9.591Z" transform="translate(-792.093 -218.761)" fill="#fff"/>
      <path id="Path_115581" data-name="Path 115581" d="M1727.445,351.228c-5.116-2.894-10.117-7.831-14.309-14.122l-.057-.033c-4.192,1.45-9.193.612-14.309-2.4l-.2-.115.014.477c5.069,2.949,10.02,3.763,14.175,2.326l.056.033c4.192,6.29,9.194,11.227,14.309,14.122l.2.111-.276,9.24c-.5,7.126-2.118,10.707-4.692,13.124,2.758-2.42,4.482-6,5.007-13.41l.276-9.24Z" transform="translate(-711.341 -79.893)" fill="#2f70ff"/>
      <g id="Group_1151" data-name="Group 1151" transform="translate(999.904 276.606)">
        <g id="Group_1150" data-name="Group 1150" transform="translate(0 0)">
          <path id="Path_115582" data-name="Path 115582" d="M1961.825,796.316l.017-5.885,1.893,1.093-.017,5.885Z" transform="translate(-1961.825 -790.431)" fill="#fff" stroke="#fff" stroke-width="16"/>
        </g>
      </g>
      <path id="Path_115585" data-name="Path 115585" d="M2067.271,1418.849l-8.033-4.652a.645.645,0,0,1-.378-.573h0l0-1.166.447.523c.029-.019.058-.038.09-.056l16.433-9.457a2.449,2.449,0,0,1,2.2-.088l7.92,4.587.5-.546,0,1.14h0a.886.886,0,0,1-.54.743l-16.433,9.457A2.448,2.448,0,0,1,2067.271,1418.849Z" transform="translate(-1054.283 -1097.06)" fill="#5a96ff"/>
      <path id="Path_115586" data-name="Path 115586" d="M2262.3,1403.469a2.448,2.448,0,0,1,2.2-.088l7.92,4.587.5-.546,0,1.14h0a.886.886,0,0,1-.539.743l-16.433,9.457a2.538,2.538,0,0,1-1.186.308l.016-11.268Z" transform="translate(-1240.756 -1097.06)" fill="#5a96ff"/>
      <path id="Path_115587" data-name="Path 115587" d="M2086.127,1383.685l-8.033-4.651a2.448,2.448,0,0,0-2.2.088l-16.432,9.457c-.653.375-.724.945-.16,1.271l8.032,4.652a2.449,2.449,0,0,0,2.2-.088l16.433-9.457C2086.62,1384.581,2086.691,1384.011,2086.127,1383.685Z" transform="translate(-1054.341 -1073.885)" fill="#5a96ff"/>
      <path id="Path_115588" data-name="Path 115588" d="M2067.23,1503.635l-8.033-4.652a.623.623,0,0,1-.372-.639.67.67,0,0,0,.378.515l8.033,4.651a2.448,2.448,0,0,0,2.2-.088l16.433-9.457a.977.977,0,0,0,.532-.632.876.876,0,0,1-.538.757l-16.432,9.457A2.448,2.448,0,0,1,2067.23,1503.635Z" transform="translate(-1054.245 -1182.894)" fill="url(#linear-gradient)"/>
      <path id="Path_115589" data-name="Path 115589" d="M2098.026,1392.216l-7.719-4.47a1.819,1.819,0,0,0-1.637.066l-16.2,9.323c-.485.279-.538.7-.119.945l7.719,4.47a1.819,1.819,0,0,0,1.637-.066l16.2-9.323C2098.393,1392.882,2098.446,1392.459,2098.026,1392.216Z" transform="translate(-1066.859 -1082.233)" fill="#fff"/>
      <path id="Path_115590" data-name="Path 115590" d="M2311.277,1451.524s4.6-.336,4.019,1.728c-.735,2.61-8.845,1.059-8.845,1.059s-2.688-4.683,1.833-5.106C2311.859,1448.869,2311.277,1451.524,2311.277,1451.524Z" transform="translate(-1289.203 -1140.862)" fill="#2f70ff"/>
      <path id="Path_115591" data-name="Path 115591" d="M2319.38,1486.721l2.8-1.08-1.374,1.348,2.156-.581-.4.6.837.484.246-.142-.678-.391.632-.942-1.925.519,1.579-1.548-2.956,1.142.814-.925-1.218.234,1.576-1.551-2.377.839-.771-.452-.247.141.964.567,1.429-.505-1.341,1.322,1.292-.248Z" transform="translate(-1301.017 -1173.902)" fill="#fff"/>
      <path id="Path_115592" data-name="Path 115592" d="M2200.39,1565.724l-4.588-2.649a.986.986,0,0,0-.891,0,.273.273,0,0,0,0,.516l4.588,2.649a.988.988,0,0,0,.892,0,.273.273,0,0,0,0-.516Z" transform="translate(-1183.614 -1249.178)" fill="#c9e5fd"/>
      <path id="Path_115593" data-name="Path 115593" d="M2170.19,1583.273l-4.588-2.649a.986.986,0,0,0-.891,0,.273.273,0,0,0,0,.516l4.588,2.649a.985.985,0,0,0,.891,0,.273.273,0,0,0,0-.516Z" transform="translate(-1154.867 -1265.882)" fill="#c9e5fd"/>
      <path id="Path_115594" data-name="Path 115594" d="M1997.676,946.683a3.433,3.433,0,0,0-.65-.354c-.234-.062-.459.06-.747-.045-.414.227.069.695.349.874a3.55,3.55,0,0,0,.965.218c.319.022-.27-.025.056-.052-.106-.169.269-.345.309-.513" transform="translate(-994.563 -662.176)" fill="#ffa8a7"/>
      <path id="Path_115595" data-name="Path 115595" d="M2029.777,892.341c-1.037,0-1.621,0-1.934,1a12.2,12.2,0,0,1-1.241,2.411c-.266.5.31.263.072.191-.895-.268-2.714-.453-3.581-.668a2.871,2.871,0,0,1-.191.668c0,.282-.2.048-.1.119.995.663,3.608,1.093,4.727,1.265,1.862.286.576-.912,1.1-1.911.5-.948.234-2.272,1.142-3.149" transform="translate(-1019.937 -610.761)" fill="#fff"/>
      <path id="Path_115596" data-name="Path 115596" d="M2147.273,1213.864c-.1,1.026-.375,2.451-.477,3.478-.078.784.262,3.456-.693,3.128.037-1.159-.269-2.609-.266-3.8,0-1.7.088-2.51.076-3.518.563.05.4.9.921.741" transform="translate(-1137.075 -916.197)" fill="#ffa8a7"/>
      <path id="Path_115597" data-name="Path 115597" d="M2099.764,1214.564v3.091c0,.787-.847,3.629.132,3.406.239-1.092.674-2.741.943-3.718a19.222,19.222,0,0,0,.573-3.026c-.566.008-.79.386-1.289.185" transform="translate(-1092.896 -917.308)" fill="#ffa8a7"/>
      <path id="Path_115598" data-name="Path 115598" d="M2091.531,908.467a5.558,5.558,0,0,1-.215,1.575,12.392,12.392,0,0,0-.071,1.715,15.78,15.78,0,0,1-.287,3.588c-.314,1.393-.819,2.667-1.01,4.064-.1.715-.268,1.335-.391,2.018a8.225,8.225,0,0,0-.175,1.362c.592-.021,1.383.682,1.934.859.589.19,1.626-.251,2.268-.191.718.066,1.832.186,2.053-.525.243-.782-.437-2.511-.477-3.294-.122-2.371-.907-3.479-.907-5.863v-2.714c0-.463-.01-.928,0-1.391a8.686,8.686,0,0,0,.189-1.479c-.738-.059-1.8-.955-2.481-.154" transform="translate(-1083.338 -625.455)" fill="#5a96ff"/>
      <path id="Path_115599" data-name="Path 115599" d="M2155.372,890.028a11.783,11.783,0,0,1,1.074.752c.215.131.2.084.358.262.421.481.276,2.269.167,2.865-.244,1.338-.911,2.166-.907,3.533a17.1,17.1,0,0,0,.525,3.868c.216,1.082.908,4.153-.429,4.106-.545-.019-2.032.281-2.567.252.048-2.473-.121-5.634.49-8.081.333-1.33-.012-2.04.3-3.367.128-.542.124-1.375.235-1.933.148-.746.646-1.091.9-1.79" transform="translate(-1144.457 -608.628)" fill="#fff"/>
      <path id="Path_115600" data-name="Path 115600" d="M2083.606,952.417a38.675,38.675,0,0,1,0,5.512c-.162,1.1-.614,2.023-.863,3.085a10.286,10.286,0,0,0-.626,2.635c.55-.04.96.525,1.483.72a16.1,16.1,0,0,0,.8-6.164c0-1.018,0-2.035,0-3.053,0-1.075.3-2.08.279-3.155-.427-.017-.541.347-.947.227" transform="translate(-1076.416 -667.615)" fill="#fff"/>
      <path id="Path_115601" data-name="Path 115601" d="M2192.516,795.067" transform="translate(-1181.508 -518.238)" fill="#4a6dd7"/>
      <g id="Group_1154" data-name="Group 1154" transform="translate(1007.838 279.914)">
        <path id="Path_115602" data-name="Path 115602" d="M2137.345,860.306c-.207.663-.5.8-.838,1.428-.279.521-1.134,2.129-.839,2.707.227-.075.614-1.331.847-1.57.367-.378.771-.666,1.115-1.06.327-.375.624-.483.646-1,.021-.484-.1-1.291.213-1.666a3.991,3.991,0,0,0-1.324.662" transform="translate(-2135.177 -859.142)" fill="#fc9090"/>
        <path id="Path_115603" data-name="Path 115603" d="M2138.1,888.1c.052,1.042-.995,1.228-1.536,1.881a8.8,8.8,0,0,0-1.126,2.131,2.966,2.966,0,0,0,1.564-.533c.311-.174.511-.186.513-.557,0-.24-.168-.411-.181-.623-.031-.522.919-.509,1.166-.982.334-.638-.3-.857-.4-1.353" transform="translate(-2135.014 -886.671)" fill="#a3cbfe"/>
        <path id="Path_115604" data-name="Path 115604" d="M2128.338,894.458c-.037.393-.742,1.226-.868,1.54a5.393,5.393,0,0,0-.337,1.694c-.365-.1-.494-1.484-.47-1.935.667.012.312-.3.36-.7.052-.431.41-.6.8-.815.282-.155.821-.671.666-.048a3.063,3.063,0,0,1-.8,1.3" transform="translate(-2126.66 -892.218)" fill="#a3cbfe"/>
      </g>
      <path id="Path_115605" data-name="Path 115605" d="M2191.251,837.271s.27-.511.512-.222.075.923-.2.928S2191.251,837.271,2191.251,837.271Z" transform="translate(-1180.304 -558.114)" fill="#ffc9b6"/>
      <path id="Path_115606" data-name="Path 115606" d="M2192.261,808.539a1.147,1.147,0,0,1,1.213-.366c.463.151.742.914.823,1.35a2.843,2.843,0,0,1-.41,1.714.84.84,0,0,0,.405,1.155.694.694,0,0,1-1.015-.29,1.642,1.642,0,0,1-.1-1.229.873.873,0,0,0-.412-1.047c-.2-.148-.336-.166-.4-.4a1.5,1.5,0,0,1,.1-.856" transform="translate(-1181.265 -530.67)" fill="#2531a7"/>
      <path id="Path_115607" data-name="Path 115607" d="M2149.085,817.146c-.049.574.286,1.973.929,2.184.74.242,1.2-.973,1.444-1.489a1.541,1.541,0,0,0,.068-1.161.949.949,0,0,0-.629-.509,1.267,1.267,0,0,0-1.719,1.114" transform="translate(-1140.163 -538.252)" fill="#ffa8a7"/>
      <path id="Path_115608" data-name="Path 115608" d="M2147.365,810.122c-.292-1.456,1.091-1.839,2.126-1.509.554.176.752.989.683,1.525-.092.708-.511.849-.826,1.441.011-.713-.028-1.353-.748-1.693-.875-.414-.748,0-1.137.474" transform="translate(-1138.492 -531.026)" fill="#2531a7"/>
      <rect id="Rectangle_168075" data-name="Rectangle 168075" width="3.223" height="4.727" transform="translate(1006.116 285.017)" fill="#2531a7"/>
      <path id="Path_115609" data-name="Path 115609" d="M2130.084,907.139c.86.358.792,2,.573,3.342a2.462,2.462,0,0,1-1.767,2.244,19.589,19.589,0,0,1-3.046.667c-.316-.968-.228-.694.489-.918.876-.273,2.541-.494,2.7-1.385.221-1.265.076-3.016,1.059-3.942" transform="translate(-1117.88 -624.915)" fill="#fff"/>
      <g id="Group_1155" data-name="Group 1155" transform="translate(1010.677 281.859)">
        <path id="Path_115610" data-name="Path 115610" d="M2185.646,901.982c.287-.465.745-1.119,1-1.452a.685.685,0,0,0,.017-.809l.007-.156a.707.707,0,0,1,.118.139.816.816,0,0,1-.058.9c-.254.328-.7.968-.987,1.427A.321.321,0,0,0,2185.646,901.982Z" transform="translate(-2185.646 -899.565)" fill="#4a6dd7"/>
      </g>
      <g id="Group_1156" data-name="Group 1156" transform="translate(1009.388 284.167)">
        <path id="Path_115611" data-name="Path 115611" d="M2159.516,949.734a.642.642,0,0,0,.52-.352c.33-.494.615-.974.472-1.423a.736.736,0,0,0-.831-.43c-.357.092-.56.61-.738,1.131-.25.733.072.867.086.873l.038-.108s-.23-.11-.02-.726c.168-.492.357-.98.661-1.058a.627.627,0,0,1,.7.355c.126.4-.144.852-.457,1.321-.283.423-.538.285-.549.278l-.054.1A.37.37,0,0,0,2159.516,949.734Z" transform="translate(-2158.844 -947.509)" fill="#4a6dd7"/>
      </g>
      <path id="Path_115612" data-name="Path 115612" d="M2166.054,989.259a.117.117,0,1,0,.117-.122A.12.12,0,0,0,2166.054,989.259Z" transform="translate(-1156.32 -702.966)" fill="#422c2a"/>
      <path id="Path_115613" data-name="Path 115613" d="M2160.539,986.072a.117.117,0,1,0,.117-.122A.12.12,0,0,0,2160.539,986.072Z" transform="translate(-1151.07 -699.933)" fill="#422c2a"/>
      <path id="Path_115614" data-name="Path 115614" d="M2098.184,1017.837a3.435,3.435,0,0,0-.71-.211c-.241-.012-.437.155-.74.112-.358.308.212.665.524.782a3.554,3.554,0,0,0,.989.012c.317-.045-.269.031.043-.063-.139-.143-.1-.5-.093-.677" transform="translate(-1090.227 -730.084)" fill="#ffa8a7"/>
      <path id="Path_115615" data-name="Path 115615" d="M2071.5,1342.76c-.171.193-.435.387-.621.568-.119.116-.823.378-.835.547s.6.145.764.156c.337.022.682-.341.959-.492.317-.172.26-.449.326-.776-.236-.043-.414.126-.665.109" transform="translate(-1064.93 -1039.564)" fill="#4a6dd7"/>
      <path id="Path_115616" data-name="Path 115616" d="M2130.333,1345.357c-.1.232-.289.492-.407.717-.076.144-.661.593-.618.758s.615-.031.779-.068c.328-.074.539-.518.754-.741a.953.953,0,0,0,.244-.864c-.239.026-.539.269-.784.324" transform="translate(-1121.339 -1041.852)" fill="#4a6dd7"/>
      <path id="Path_115617" data-name="Path 115617" d="M1117.3,1537.782a3.008,3.008,0,0,1,2.531,1.238c-.578,1-2.639-.306-3.5-.219a10.414,10.414,0,0,1,0-1.106c.343-.023.7-.016,1.044-.016" transform="translate(-157.115 -1225.104)" fill="#5264e0"/>
      <path id="Path_115618" data-name="Path 115618" d="M1097.442,1250.58c0,2.343,1.095,5.025.968,7.423-.07,1.337-.219,2.779-.219,4.157a8.8,8.8,0,0,0,.162,2.251c.2.4,1.058.228,1.52.3-.015-2.611.432-5.635.456-8.241a21.225,21.225,0,0,0-.093-4.39c-.224-1.053-1.588-1.281-2.491-1.731" transform="translate(-139.142 -951.609)" fill="#2531a7"/>
      <path id="Path_115619" data-name="Path 115619" d="M1130.6,1234.313a52.83,52.83,0,0,1-1.006,6.634c-.36,2.567-.022,5.331-.513,7.88-.427.125-1.518.41-1.52-.076,0-.077-.228-2.652-.228-3.192a22.119,22.119,0,0,1,.076-3.724,28.009,28.009,0,0,0-.38-6.611c-.3-1.976.18-.916.152-2.432a11.526,11.526,0,0,1,3.116.912" transform="translate(-167.207 -934.885)" fill="#2531a7"/>
      <path id="Path_115620" data-name="Path 115620" d="M1068.948,1058.538c-.06-1.322-2.152.484-2.257.8-.243.728-1.229,2.548-1.086,3.335.075.413,2.469,2.312,2.758,2.645.444.511-.855-.067-.244-.581.161-.135.541-.506.449-.725-.145-.345-1.208-1.422-1.291-1.918.416-.535,1.211-1.087,1.421-1.818.224-.781-.128-.945.167-1.736" transform="translate(-108.825 -768.572)" fill="#1a64e5"/>
      <g id="Group_1158" data-name="Group 1158" transform="translate(959.132 284.87)">
        <path id="Path_115621" data-name="Path 115621" d="M1133.838,1028.8c.358.683-.817,1.411.532,1.909.628.232.567.809.779.338.178-.4-.411-1.742-.2-2.128-.534-.271-.369-.376-.974-.328" transform="translate(-1132.79 -1025.382)" fill="#ffa8a7"/>
        <g id="Group_1157" data-name="Group 1157" transform="translate(0 0)">
          <path id="Path_115622" data-name="Path 115622" d="M1124.143,978.79a.962.962,0,0,1,.156.495c0,.4-.182.686-.154,1.09a1.3,1.3,0,0,1-.974,1.379c-.395.057-1.18-.51-1.4-.66-.3-.2-.51-.156-.656-.486C1119.909,977.9,1123.27,977.346,1124.143,978.79Z" transform="translate(-1120.56 -977.249)" fill="#ffa8a7"/>
          <path id="Path_115623" data-name="Path 115623" d="M1115.884,962.231c.218-.066-.258.127.115-.015a2.245,2.245,0,0,1,1.42.028c.939.277,1.5,1.317,1.135,1.794-.173.223-.008-.121-.456.637-.22.372-.4.126-.648.164-.666.1-.149,1.8-1.691,1.211-.352-.133-.485-.226-.75-.75a1.74,1.74,0,0,1-.269-1.045C1114.746,963.532,1115.185,962.441,1115.884,962.231Z" transform="translate(-1114.741 -962.112)" fill="#2531a7"/>
        </g>
        <path id="Path_115624" data-name="Path 115624" d="M1166.115,1018.021c-.03-.038-.348-.3-.085-.405.072-.028.137.042.136.114,0,.037-.018.073-.019.11a.167.167,0,0,0,.014.064c.023.056.121.122.089.193S1166.132,1018.043,1166.115,1018.021Z" transform="translate(-1163.463 -1014.938)" fill="#f3a984"/>
        <path id="Path_115625" data-name="Path 115625" d="M1145.269,994.234c.875.305,1.769-1.707,1.389-2.153-1.169-1.369-1.468,1.308-1.567,1.992" transform="translate(-1143.63 -990.273)" fill="#2531a7"/>
      </g>
      <path id="Path_115626" data-name="Path 115626" d="M1091.922,1053.079c-.108.522.77.546,1.189.625a3,3,0,0,1,1.745,1.25c.679.821.275,1.005.317,2.11.04,1.044-.079,1.348-.079,2.423,0,1.108.26,3.607.235,4.684a2.434,2.434,0,0,1-2.432.228c-1.423-.488-3.5-.836-3.04-2.66a26.414,26.414,0,0,0,.638-6.785c-.139-.957.111-1.386,1.348-1.954" transform="translate(-131.861 -763.756)" fill="#5a96ff"/>
      <g id="Group_1159" data-name="Group 1159" transform="translate(961.463 290.669)">
        <path id="Path_115627" data-name="Path 115627" d="M1163.482,1083.039c-.515.843-.321,4.151.133,5.057.52,1.039,3.241,2.1,4.258,2.293.05-.5.309-.462.409-.982-.608-.4-1.747-.927-2.293-1.31-.768-.539-.82-1.362-.775-2.492.052-1.3.207-3.244-1.385-2.992" transform="translate(-1163.175 -1082.589)" fill="#1a64e5"/>
        <path id="Path_115628" data-name="Path 115628" d="M1258.319,1222.483a4.01,4.01,0,0,1,.94.008c.3.082.473.381.859.447.321.553-.5.8-.927.824a4.232,4.232,0,0,1-1.207-.384c-.369-.188.315.151-.029-.1.222-.133.305-.628.365-.859" transform="translate(-1253.313 -1215.689)" fill="#ffa8a7"/>
      </g>
      <path id="Path_115629" data-name="Path 115629" d="M1144.141,1563.043a3.009,3.009,0,0,1,2.531,1.238c-.577,1-2.638-.305-3.5-.22a10.447,10.447,0,0,1,0-1.106c.343-.023.7-.016,1.044-.016" transform="translate(-182.663 -1249.149)" fill="#5264e0"/>
      <path id="Path_115630" data-name="Path 115630" d="M1380.743,1308.879c-1.112.1-1.607,1.948-2.251,2.979-.546.874.357,1.57,1.675,2.852.033-.6.152-.5,0-.92-.272-.754-.987-1.073-.773-1.5a6.932,6.932,0,0,0,.687-2.189c.024-.577.344-.539.344-1.116" transform="translate(-406.511 -1007.319)" fill="#ffa8a7"/>
      <g id="Group_1161" data-name="Group 1161" transform="translate(972.264 297.861)">
        <path id="Path_115631" data-name="Path 115631" d="M1423.915,1287.529c.227.541-1.132,1,.281,1.483.482.165-.067.235.124-.109.16-.289.523-.8.7-1.079-.388-.24-.532-.442-.994-.445" transform="translate(-1421.812 -1284.714)" fill="#ffa8a7"/>
        <g id="Group_1160" data-name="Group 1160" transform="translate(1.377 0.268)">
          <path id="Path_115632" data-name="Path 115632" d="M1427.052,1254.757a.68.68,0,0,1,.08.358c-.023.284-.17.473-.174.759s-.213.881-.769.913c-.281.016-.8-.43-.949-.549-.2-.16-.35-.14-.433-.382C1424.123,1253.876,1426.524,1253.688,1427.052,1254.757Z" transform="translate(-1424.276 -1253.316)" fill="#ffa8a7"/>
          <path id="Path_115633" data-name="Path 115633" d="M1416.9,1237.847c.17-.036.079-.139.371-.222a1.709,1.709,0,0,1,1.075.113c.694.271,1.056,1.1.745,1.434-.146.158,0-.092-.387.454-.191.268-.309.07-.5.083-.512.034-.229,1.352-1.361.809-.258-.124-.353-.2-.521-.618a1.318,1.318,0,0,1-.136-.81C1416.24,1238.542,1416.36,1237.961,1416.9,1237.847Z" transform="translate(-1416.176 -1237.579)" fill="#2531a7"/>
        </g>
        <path id="Path_115634" data-name="Path 115634" d="M1454.516,1281.09c-.02-.031-.244-.252-.039-.313.057-.017.1.041.1.095,0,.028-.018.054-.021.082a.131.131,0,0,0,.006.049c.014.044.084.1.055.152S1454.528,1281.108,1454.516,1281.09Z" transform="translate(-1451.174 -1278.427)" fill="#f3a984"/>
        <path id="Path_115635" data-name="Path 115635" d="M1390.052,1232.433c-.258-.984-1.28,0-1.466.494-.2.518-.176,1.853-1.021,1.64.249.578,1.371.369,1.686-.07.383-.535-.075-1.663.6-2.046" transform="translate(-1387.565 -1232.013)" fill="#2531a7"/>
        <path id="Path_115636" data-name="Path 115636" d="M1440.1,1266.1c.6.267,1.349-1.1,1.107-1.433-.741-1.034-1.112.834-1.223,1.31" transform="translate(-1437.457 -1262.801)" fill="#2531a7"/>
      </g>
      <path id="Path_115637" data-name="Path 115637" d="M1402.12,1308.384c.826.82,1.319.293,1.664,1.369a7.362,7.362,0,0,1,.257,2.189c.028.741-.152,3.008-.228,3.642-.766.038-.33-.236-1.619-.177-.543.025-1.407-.077-1.483-.54-.071-.431.643-2.481.528-2.908-.222-.826-1.169-2.825.612-3.623" transform="translate(-427.811 -1006.801)" fill="#fff"/>
      <g id="Group_1162" data-name="Group 1162" transform="translate(973.203 309.665)">
        <path id="Path_115638" data-name="Path 115638" d="M1407.087,1477.257c-.061,2.248.12,4.146.232,6.409.482.033.641-.1,1.064.092a12.54,12.54,0,0,1,.364-6.458,1.63,1.63,0,0,1-1.53.623" transform="translate(-1407.075 -1477.257)" fill="#f79797"/>
      </g>
      <g id="Group_1163" data-name="Group 1163" transform="translate(973.767 309.114)">
        <path id="Path_115639" data-name="Path 115639" d="M1418.814,1465.815c-.06,2.248.037,4.646.149,6.908.482.033.483.257.905.449a21.426,21.426,0,0,1,.7-6.675c-.218.424-1.028.05-1.622-.017" transform="translate(-1418.796 -1465.815)" fill="#ffa8a7"/>
      </g>
      <path id="Path_115640" data-name="Path 115640" d="M1408.607,1607.872c.187.545-.6,1.1.152,1.178.255.027.633.053.761-.112s.094-.627.253-.83c-.208.017-.329-.125-.52-.159a4.35,4.35,0,0,0-.646.038" transform="translate(-435.161 -1291.92)" fill="#5264e0"/>
      <path id="Path_115641" data-name="Path 115641" d="M1420.432,1607.131c.1.308-.2.874-.04,1.1s.7.1.952.113a5.225,5.225,0,0,0,1.277.014c.874-.532-1.212-.6-1.3-1.294-.35-.017-.446.255-.785.165" transform="translate(-446.504 -1291.153)" fill="#5264e0"/>
      <path id="Path_115642" data-name="Path 115642" d="M1376.847,1405.5c.063.552-.351,1.047-.462,1.6a3.072,3.072,0,0,1-.831,1.69,9.8,9.8,0,0,1,2.393.59,4.136,4.136,0,0,0,2.443-.291c-.25-1.187-.39-.639-.39-1.629s-.069-1.608-1.011-1.878c-.584-.168-1.1-.657-1.7-.838" transform="translate(-403.868 -1098.569)" fill="#5a96ff"/>
      <path id="Path_115643" data-name="Path 115643" d="M1433.588,1322.13a4.732,4.732,0,0,0-.166,3.135c.22.951,1.184,1.866,1.369,2.794.943-.092-.254-2.4-.379-2.722-.43-1.091.612-2.124.034-3.251-.453-.333-.558-.057-.816,0" transform="translate(-458.774 -1019.737)" fill="#ffa8a7"/>
      <path id="Path_115644" data-name="Path 115644" d="M1462.845,1431.57c-.012.372.443,1.475,1.073,1.159.025-.493-.486-1.2-.6-1.631-.108-.4-.043.086-.343.515" transform="translate(-486.958 -1123.511)" fill="#ffa8a7"/>
      <path id="Path_115645" data-name="Path 115645" d="M1277.246,1483.737c-.058,1.788.115,3.3.222,5.1.462.026.615-.08,1.021.073a8.352,8.352,0,0,1,.349-5.137,1.724,1.724,0,0,1-1.468.5" transform="translate(-310.281 -1173.76)" fill="#f79797"/>
      <path id="Path_115646" data-name="Path 115646" d="M1288.5,1474.635c-.058,1.788.036,3.7.143,5.5.462.026.463.2.868.357a14.273,14.273,0,0,1,.668-5.31c-.209.338-.986.04-1.555-.013" transform="translate(-320.983 -1165.096)" fill="#ffa8a7"/>
      <path id="Path_115647" data-name="Path 115647" d="M1241.705,1237.121a3.923,3.923,0,0,0-.539,2.883,57.951,57.951,0,0,1,1.377,6.488c.073.79-.036,2.184.219,2.329a4.232,4.232,0,0,0,2.192-.286c.236-.322.081-1.3.1-1.716.039-.847.236-2.038.262-2.864.045-1.444-.059-3.4-.109-4.675a22.671,22.671,0,0,0-.229-3.007c-1.012-.169-2.021,1.1-3.092,1.1" transform="translate(-275.867 -938.193)" fill="#2f70ff"/>
      <path id="Path_115648" data-name="Path 115648" d="M1230.153,1128.791c-1.144.1-2.153,2.425-2.41,3.387-.271,1.012.352,1.306,1.707,2.607.034-.613.587,0,.43-.432-.279-.766-1.12-1.361-.917-1.834s.929-1.359.958-2.035c.025-.586-.125-.88-.125-1.467" transform="translate(-263.113 -835.898)" fill="#ffa8a7"/>
      <path id="Path_115649" data-name="Path 115649" d="M1278.631,1078.155c.267.635-1.4,1.526.262,2.1.566.195.376-.016.6-.42.188-.34.227-1,.441-1.329-.455-.282-.625-.519-1.167-.522" transform="translate(-311.15 -787.532)" fill="#ffa8a7"/>
      <path id="Path_115650" data-name="Path 115650" d="M1278.9,1034.727a.858.858,0,0,1,.1.453c-.029.359-.214.6-.219.959s-.269,1.114-.972,1.154c-.356.021-1.012-.544-1.2-.694-.252-.2-.442-.177-.547-.483C1275.2,1033.614,1278.236,1033.375,1278.9,1034.727Z" transform="translate(-309.023 -745.585)" fill="#ffa8a7"/>
      <path id="Path_115651" data-name="Path 115651" d="M1269.438,1025.6c.165-.119.093-.163.436-.261a2.005,2.005,0,0,1,1.262.132c.815.318,1.24,1.287.875,1.684-.171.186,0-.108-.454.533-.224.315-.363.082-.589.1-.6.04-.269,1.587-1.6.95-.3-.145-.415-.238-.611-.725a2.074,2.074,0,0,1-.173-.6,2.1,2.1,0,0,1,.013-.352A1.54,1.54,0,0,1,1269.438,1025.6Z" transform="translate(-302.047 -737.378)" fill="#2531a7"/>
      <path id="Path_115652" data-name="Path 115652" d="M1315.519,1070.6c-.024-.036-.287-.3-.045-.367.067-.02.119.048.112.112,0,.033-.022.063-.025.1a.145.145,0,0,0,.007.058c.016.052.1.118.064.179S1315.532,1070.617,1315.519,1070.6Z" transform="translate(-346.583 -780.152)" fill="#f3a984"/>
      <path id="Path_115653" data-name="Path 115653" d="M1244.1,1104.862c.888,1.014,2.3,2.145,2.74,3.566.261.848.141,1.234-.664,1.946-.617.547.095,2.511.013,3.3-.823.047-.624-.2-2.009-.126-.584.031-1.991.819-2.068.2-.069-.553,1.419-3,1.041-4.465-.263-1.015-1.489-3.357.856-4.3" transform="translate(-276.845 -813.121)" fill="#2f70ff"/>
      <path id="Path_115654" data-name="Path 115654" d="M1278.7,1585.877c.179.522-.572,1.054.146,1.13.245.026.607.051.73-.108s.09-.6.243-.8c-.2.016-.315-.12-.5-.153a4.21,4.21,0,0,0-.62.036" transform="translate(-311.518 -1270.984)" fill="#5264e0"/>
      <path id="Path_115655" data-name="Path 115655" d="M1290.047,1585.165c.1.3-.189.839-.039,1.058s.668.1.914.108a12.563,12.563,0,0,0,1.871.3c.838-.51-1.808-.869-1.9-1.531-.336-.016-.428.245-.754.158" transform="translate(-322.398 -1270.247)" fill="#5264e0"/>
      <path id="Path_115656" data-name="Path 115656" d="M1287.979,1059.951c-.028.467-.813,1.105-1.207,1.392-.838.609-.559,1.3-.9,2.234,0-.882-.51-1.983-.118-2.847.286-.629,1.375-1.438,2.054-.908" transform="translate(-318.248 -770.085)" fill="#2531a7"/>
      <path id="Path_115657" data-name="Path 115657" d="M1276.557,1137.3c.373.281-.055-.115.118-.093,1.1-.469,1.193.649,1.521,1.4a10.779,10.779,0,0,0,1.5,3.175,9.423,9.423,0,0,0,1.826,1.448,1.134,1.134,0,0,0,.906.252c.142-.017.988-.305,1.12-.221.858.549.161.76-.379.873a6.234,6.234,0,0,1-.806.008,2.428,2.428,0,0,1-.964-.216c-.339-.12-1.034-.59-1.363-.734a2.636,2.636,0,0,1-.637-.376,7.433,7.433,0,0,1-2.31-3.139,4.037,4.037,0,0,1-.715-1.671" transform="translate(-309.466 -843.808)" fill="#ffa8a7"/>
      <path id="Path_115658" data-name="Path 115658" d="M1251.666,1026.4c-2.55.389-1.281,2.934-1.719,3.967-.313.738-1.45,1.521-.465,2.258.448.336,1.6.194,2.139.165.057-1.068-.444-2.452-.081-3.416.216-.573.875-.865.745-1.482-.153-.728-1.5-.306-1.391-1.295" transform="translate(-283.49 -738.433)" fill="#2531a7"/>
    </g>
  </g>
</svg>
