<svg xmlns="http://www.w3.org/2000/svg" width="30.5" height="30.5" viewBox="0 0 30.5 30.5">
  <g id="hospital" transform="translate(-3.75 -3.75)">
    <path id="Path_116660" data-name="Path 116660" d="M4.75,34h28.5a.75.75,0,0,0,.75-.75v-18a.75.75,0,0,0-.75-.75H29.5V7.75A.75.75,0,0,0,28.75,7H25V6.25A2.25,2.25,0,0,0,22.75,4h-7.5A2.25,2.25,0,0,0,13,6.25V7H9.25a.75.75,0,0,0-.75.75V14.5H4.75a.75.75,0,0,0-.75.75v18A.75.75,0,0,0,4.75,34ZM29.5,16h3V32.5h-3ZM21.25,32.5h-4.5V27.25h4.5ZM14.5,6.25a.75.75,0,0,1,.75-.75h7.5a.75.75,0,0,1,.75.75v7.5a.75.75,0,0,1-.75.75h-7.5a.75.75,0,0,1-.75-.75ZM10,8.5h3v5.25A2.25,2.25,0,0,0,15.25,16h7.5A2.25,2.25,0,0,0,25,13.75V8.5h3v24H22.75v-6a.75.75,0,0,0-.75-.75H16a.75.75,0,0,0-.75.75v6H10ZM5.5,16h3V32.5h-3Z" fill="#25d18e" stroke="#fff" stroke-width="0.5"/>
    <path id="Path_116661" data-name="Path 116661" d="M20.749,11.745h1.5v1.5a.749.749,0,0,0,1.5,0v-1.5h1.5a.749.749,0,0,0,0-1.5h-1.5v-1.5a.749.749,0,0,0-1.5,0v1.5h-1.5a.749.749,0,0,0,0,1.5Z" transform="translate(-3.996 -1.004)" fill="#ffb125"/>
    <path id="Path_116662" data-name="Path 116662" d="M16.749,24.5h1.5a.749.749,0,1,0,0-1.5h-1.5a.749.749,0,1,0,0,1.5Z" transform="translate(-2.999 -4.749)" fill="#ffb125"/>
    <path id="Path_116663" data-name="Path 116663" d="M19,28.749A.749.749,0,0,0,18.247,28h-1.5a.749.749,0,1,0,0,1.5h1.5A.749.749,0,0,0,19,28.749Z" transform="translate(-2.999 -5.999)" fill="#ffb125"/>
    <path id="Path_116664" data-name="Path 116664" d="M22.749,24.5h1.5a.749.749,0,0,0,0-1.5h-1.5a.749.749,0,0,0,0,1.5Z" transform="translate(-4.498 -4.749)" fill="#ffb125"/>
    <path id="Path_116665" data-name="Path 116665" d="M22.749,29.5h1.5a.749.749,0,0,0,0-1.5h-1.5a.749.749,0,0,0,0,1.5Z" transform="translate(-4.498 -5.999)" fill="#ffb125"/>
    <path id="Path_116666" data-name="Path 116666" d="M28.749,24.5h1.5a.749.749,0,0,0,0-1.5h-1.5a.749.749,0,0,0,0,1.5Z" transform="translate(-5.997 -4.749)" fill="#ffb125"/>
    <path id="Path_116667" data-name="Path 116667" d="M28.749,29.5h1.5a.749.749,0,0,0,0-1.5h-1.5a.749.749,0,0,0,0,1.5Z" transform="translate(-5.997 -5.999)" fill="#ffb125"/>
  </g>
</svg>
