<svg id="Intimate_my_claim" xmlns="http://www.w3.org/2000/svg" xmlns:xlink="http://www.w3.org/1999/xlink" width="44" height="39.286" viewBox="0 0 44 39.286">
  <defs>
    <filter id="Path_115499">
      <feOffset dy="3" input="SourceAlpha"/>
      <feGaussianBlur stdDeviation="3" result="blur"/>
      <feFlood flood-opacity="0.161" result="color"/>
      <feComposite operator="out" in="SourceGraphic" in2="blur"/>
      <feComposite operator="in" in="color"/>
      <feComposite operator="in" in2="SourceGraphic"/>
    </filter>
  </defs>
  <g data-type="innerShadowGroup">
    <path id="Path_115499-2" data-name="Path 115499" d="M43.376,43.648,34.718,28.654a4.679,4.679,0,0,0-4.057-2.343H13.344A4.679,4.679,0,0,0,9.287,28.6L.629,43.592a4.677,4.677,0,0,0,0,4.686L9.287,63.272A4.7,4.7,0,0,0,13.344,65.6H30.661a4.7,4.7,0,0,0,4.057-2.268l8.658-14.994A4.715,4.715,0,0,0,43.376,43.648Z" transform="translate(0 -26.311)" fill="#4bc4f9"/>
    <g transform="matrix(1, 0, 0, 1, 0, 0)" filter="url(#Path_115499)">
      <path id="Path_115499-3" data-name="Path 115499" d="M43.376,43.648,34.718,28.654a4.679,4.679,0,0,0-4.057-2.343H13.344A4.679,4.679,0,0,0,9.287,28.6L.629,43.592a4.677,4.677,0,0,0,0,4.686L9.287,63.272A4.7,4.7,0,0,0,13.344,65.6H30.661a4.7,4.7,0,0,0,4.057-2.268l8.658-14.994A4.715,4.715,0,0,0,43.376,43.648Z" transform="translate(0 -26.31)" fill="#fff"/>
    </g>
  </g>
  <g id="Intimate_my_claim-2" data-name="Intimate_my_claim" transform="translate(10.852 10.259)">
    <rect id="Rectangle_167549" data-name="Rectangle 167549" width="19" height="19" transform="translate(0.648 -0.259)" fill="none"/>
    <path id="Path_114024" data-name="Path 114024" d="M5.9,242a4.9,4.9,0,1,0,4.9,4.9A4.9,4.9,0,0,0,5.9,242Zm2.162,4.3-2.54,2.54a.544.544,0,0,1-.77,0l-1.088-1.088a.544.544,0,0,1,.77-.77l.7.7,2.155-2.155a.544.544,0,1,1,.77.77Z" transform="translate(-0.168 -233.237)" fill="#fff"/>
    <path id="Path_114025" data-name="Path 114025" d="M130.977,4.716a.544.544,0,0,1-.544-.544V0h-7.8A1.634,1.634,0,0,0,121,1.633V7.716c.179-.016.361-.025.544-.025a5.977,5.977,0,0,1,4.614,2.177h5.907a.544.544,0,1,1,0,1.088h-5.19a5.94,5.94,0,0,1,.63,2.177h4.56a.544.544,0,1,1,0,1.088h-4.56a5.988,5.988,0,0,1-2.523,4.354h8.535a1.634,1.634,0,0,0,1.633-1.633V4.716Zm1.088,2.975h-7.982a.544.544,0,0,1,0-1.088h7.982a.544.544,0,1,1,0,1.088Z" transform="translate(-115.815 -0.017)" fill="#fff"/>
    <path id="Path_114026" data-name="Path 114026" d="M411,8.783v3.309h3.309Z" transform="translate(-395.294 -8.482)" fill="#fff"/>
  </g>
</svg>
