<svg xmlns="http://www.w3.org/2000/svg" width="64" height="64" viewBox="0 0 64 64">
  <g id="Life" transform="translate(-104 -562)">
    <rect id="Rectangle_168058" data-name="Rectangle 168058" width="64" height="64" rx="32" transform="translate(104 562)" fill="#fff"/>
    <g id="life-2" data-name="life" transform="translate(119.943 575.883)">
      <path id="Path_116678" data-name="Path 116678" d="M255.863,1.636a2.015,2.015,0,0,1-1.91-1.37.392.392,0,0,0-.742,0,2.017,2.017,0,0,1-1.911,1.37h-2.455a.392.392,0,0,0-.392.392V6.855a6.947,6.947,0,0,0,4.015,6.283l.948.44a.393.393,0,0,0,.329,0l.949-.44a6.948,6.948,0,0,0,4.015-6.283V2.028a.392.392,0,0,0-.392-.392Zm2.063,5.219a6.161,6.161,0,0,1-3.56,5.573l-.784.363-.784-.363a6.162,6.162,0,0,1-3.561-5.573V2.42H251.3a2.8,2.8,0,0,0,2.281-1.176,2.8,2.8,0,0,0,2.281,1.176h2.063Zm0,0" transform="translate(-228.624 0)" fill="#4bc4f9"/>
      <path id="Path_116679" data-name="Path 116679" d="M269.336,47.829a3.506,3.506,0,0,0,7.011,0,3.7,3.7,0,0,0-.021-.386.392.392,0,1,0-.779.085,3.007,3.007,0,0,1,.016.3,2.721,2.721,0,1,1-.815-1.943.392.392,0,0,0,.549-.56,3.506,3.506,0,0,0-5.96,2.5Zm0,0" transform="translate(-247.871 -40.85)" fill="#4bc4f9"/>
      <path id="Path_116680" data-name="Path 116680" d="M286.1,58.069a.392.392,0,0,0-.554.555l1.612,1.61a.392.392,0,0,0,.554,0l3.852-3.852a.392.392,0,0,0-.554-.554L287.432,59.4Zm0,0" transform="translate(-262.701 -51.351)" fill="#021b8d"/>
      <path id="Path_116681" data-name="Path 116681" d="M168.789,64.857a.079.079,0,0,1-.141,0,.393.393,0,1,0-.68.392.862.862,0,0,0,1.5,0,.392.392,0,1,0-.679-.392Zm0,0" transform="translate(-154.398 -59.593)"/>
      <path id="Path_116682" data-name="Path 116682" d="M198.758,64.862a.078.078,0,0,1-.141,0,.392.392,0,1,0-.68.392.862.862,0,0,0,1.5,0,.392.392,0,1,0-.68-.392Zm0,0" transform="translate(-182.02 -59.597)"/>
      <path id="Path_116683" data-name="Path 116683" d="M79.712,29.722a5.606,5.606,0,0,0,2.235-4.344h1.48a.392.392,0,1,0,0-.784H80.919V23.527h1.56a.392.392,0,1,0,0-.784h-.531v-4.75a4.732,4.732,0,0,0-.538-2.187.393.393,0,0,0-.1-.12A3.622,3.622,0,0,0,81.731,15a.392.392,0,0,0-.711-.33,2.868,2.868,0,0,1-5.471-1.2v-.677a.319.319,0,0,0,0-.048v-.029a.178.178,0,0,0-.012-.038.306.306,0,0,0-.011-.034c0-.011-.013-.022-.018-.033a.249.249,0,0,0-.018-.033c-.007-.01-.016-.019-.023-.028l-.025-.031-.027-.019a.287.287,0,0,0-.039-.031.674.674,0,0,1-.313-.569V10.68a.309.309,0,0,1,.092-.22.3.3,0,0,1,.219-.09.9.9,0,0,1,.9.9v.392a1.038,1.038,0,0,0,.392,2,.392.392,0,1,0,0-.784.254.254,0,0,1-.182-.433.259.259,0,0,1,.18-.078.392.392,0,0,0,.392-.392v-.705A1.681,1.681,0,0,0,76.4,9.945a2.872,2.872,0,0,1,4.883,2.046.392.392,0,1,0,.784,0,3.65,3.65,0,0,0-6.42-2.379,1.648,1.648,0,0,0-.28-.025,1.1,1.1,0,0,0-1.1,1.1v1.2a1.453,1.453,0,0,0,.491,1.091v.484c0,.1,0,.194.013.291a6.408,6.408,0,0,0-1.361.756l-.021.016a6.531,6.531,0,0,0-2.67,5.251v5.468a5.563,5.563,0,0,0,1.288,3.576V41.439a.392.392,0,0,0,.392.392h2.122v.9a2.013,2.013,0,0,0-.9,1.307h-.454V42.658a.392.392,0,1,0-.784,0v1.376h-.46a.392.392,0,1,0,0,.784H81.962a.392.392,0,0,0,.392-.392,2.01,2.01,0,0,0-2.645-1.911Zm-.784,11.324H77.2V30.788a5.588,5.588,0,0,0,1.73-.571Zm-3.094-25c.036.036.073.07.111.105v5.767a.392.392,0,1,0,.784,0V16.7a3.638,3.638,0,0,0,2.528.313v4.9a.392.392,0,1,0,.784,0V16.731a3.726,3.726,0,0,0,.719-.47,3.885,3.885,0,0,1,.4,1.732v4.75H75.039l-1.165-2.82a3.173,3.173,0,0,0,1.38-2.7,3.287,3.287,0,0,0-.94-2.36,5.525,5.525,0,0,1,.617-.313,3.64,3.64,0,0,0,.9,1.5Zm-4.325,3.731a5.742,5.742,0,0,1,2.14-4.457,2.482,2.482,0,0,1,.82,1.9,2.425,2.425,0,0,1-.9,1.964l-.047-.113a.392.392,0,1,0-.724.3l.215.52,1.4,3.39a.392.392,0,0,0,.362.242h5.357V24.59H73.667l-.94-2.273a.392.392,0,0,0-.725.3l1.042,2.519a.391.391,0,0,0,.362.242h7.758a4.8,4.8,0,0,1-1.12,2.957v-2.2a.392.392,0,1,0-.784,0v2.95a4.805,4.805,0,0,1-2.531.969V26.13a.392.392,0,0,0-.784,0v3.919a4.823,4.823,0,0,1-4.435-4.81ZM72.8,41.046V29.6a5.556,5.556,0,0,0,1.73.959v10.49Zm2.8,2.15a1.231,1.231,0,0,1,1.166.838h-2.33A1.232,1.232,0,0,1,75.6,43.2Zm2.014.838V42.658a.392.392,0,1,0-.784,0v.175a1.984,1.984,0,0,0-1.52-.4V30.755a5.7,5.7,0,0,0,1.025.094h.078V41.438a.392.392,0,0,0,.392.392h2.122v1.164a2.013,2.013,0,0,0-.561,1.04Zm3.892,0H79.177a1.23,1.23,0,0,1,2.332,0Zm0,0" transform="translate(-64.827 -7.686)" fill="#021b8d" stroke="#021b8d" stroke-width="0.2"/>
      <path id="Path_116684" data-name="Path 116684" d="M5.885,464.162a.392.392,0,0,0-.392-.392H.779a.392.392,0,1,0,0,.784H5.494A.392.392,0,0,0,5.885,464.162Zm0,0" transform="translate(0 -427.422)" fill="#4bc4f9"/>
      <path id="Path_116685" data-name="Path 116685" d="M244.294,213.412h-10.9v-20.9a.392.392,0,0,0-.392-.392h-2a.392.392,0,0,0,0,.784h1.608v20.506h-1.8a.392.392,0,0,0,0,.784h13.489a.392.392,0,0,0,0-.784Zm0,0" transform="translate(-211.998 -177.065)" fill="#4bc4f9"/>
    </g>
  </g>
</svg>
