<svg id="Loginimg" xmlns="http://www.w3.org/2000/svg" xmlns:xlink="http://www.w3.org/1999/xlink" width="360" height="147" viewBox="0 0 360 147">
  <defs>
    <clipPath id="clip-path">
      <rect id="Rectangle_168883" data-name="Rectangle 168883" width="360" height="147" fill="#fff" stroke="#707070" stroke-width="1"/>
    </clipPath>
  </defs>
  <g id="Mask_Group_23" data-name="Mask Group 23" clip-path="url(#clip-path)">
    <path id="Path_205211" data-name="Path 205211" d="M387.717,181.863c-20.389,29.053-52.4,48.552-84.994,63.85q-14,6.563-28.305,12.386-9.939,4.072-19.979,7.869H36.174Q32.5,262.119,29.06,258.1C7.814,233.264-5.863,203.833,2.479,169.878,11,135.2,41.73,106.886,77.573,99.355c24.268-5.1,50.268-1.2,73.363-10.23,27.007-10.56,44.02-36.206,65.754-55.107,22.545-19.6,51.676-32.436,81.642-33.884s60.474,8.963,81.083,29.6c14.479,14.487,23.757,33.451,28.085,53.3A126.867,126.867,0,0,1,387.717,181.863Z" transform="translate(241.41 232.533) rotate(-161)" fill="#fbf8ff"/>
    <g id="bank_sathi" data-name="bank sathi" transform="translate(93.896 88.989)">
      <path id="Path_208998" data-name="Path 208998" d="M1627,156.056c3.139-.733,4.4-2.523,4.4-4.84,0-3.139-2.405-5.192-6.336-5.192h-8.947v20.534h9.739c3.755,0,6.278-2.2,6.278-5.779C1632.137,158.638,1630.875,156.614,1627,156.056Zm-7.069-6.629h4.694c1.7,0,2.728.763,2.728,2.405,0,1.848-.88,2.757-2.7,2.757h-4.723Zm5.133,13.728h-5.133v-5.368h4.9c2.053,0,3.256.821,3.256,2.523C1628.089,162.275,1627.091,163.155,1625.067,163.155Z" transform="translate(-1574.23 -142.237)" fill="#14363d"/>
      <path id="Path_208999" data-name="Path 208999" d="M2274.208,373.2v3.227a5.261,5.261,0,0,0-5.163-3.52c-4.019,0-6.366,2.992-6.366,7.509,0,4.459,2.435,7.451,6.542,7.451a5.091,5.091,0,0,0,4.987-3.432v3.139h3.725V373.2Zm-3.872,11.293c-2.7,0-3.9-1.261-3.9-4.077,0-2.875,1.2-4.136,3.9-4.136,2.786,0,3.989,1.261,3.989,4.136C2274.326,383.234,2273.123,384.495,2270.336,384.495Z" transform="translate(-2204.072 -363.255)" fill="#14363d"/>
      <path id="Path_209000" data-name="Path 209000" d="M2966.508,372.908a4.562,4.562,0,0,0-4.752,3.637V373.2h-3.726v14.374h3.726v-6.864c0-2.963,1.29-4.429,3.373-4.429,1.789,0,2.787.968,2.787,2.9v8.389h3.726V378.98C2971.641,374.932,2969.91,372.908,2966.508,372.908Z" transform="translate(-2881.441 -363.255)" fill="#14363d"/>
      <path id="Path_209001" data-name="Path 209001" d="M3593.44,166.558h4.459l-5.662-8.477,5.485-5.9h-4.664l-3.579,4.459-2.024,3.227V146.024h-3.725v20.534h3.725v-3.373l2.464-2.64Z" transform="translate(-3490.962 -142.237)" fill="#14363d"/>
      <path id="Path_209002" data-name="Path 209002" d="M4146.9,155.8c4.782,0,7.8-2.581,7.8-6.483,0-3.285-2.054-4.928-5.368-5.544l-3.228-.616c-2.141-.381-3.109-.792-3.109-2.611s.939-2.523,3.4-2.523,4.137.645,4.313,4.077l3.7-1.027c-.381-4.341-3.461-6.395-7.978-6.395-4.431,0-7.452,2.405-7.452,6.043,0,3.96,2.611,5.4,5.192,5.9l3.491.675c2.259.44,3.051.792,3.051,2.552,0,1.907-1.057,2.669-3.726,2.669s-4.224-.821-4.547-4.283l-3.96,1.056C4139.1,153.9,4142.383,155.8,4146.9,155.8Z" transform="translate(-4031.368 -131.189)" fill="#14363d"/>
      <path id="Path_209003" data-name="Path 209003" d="M4801.218,373.2v3.227a5.259,5.259,0,0,0-5.162-3.52c-4.019,0-6.365,2.992-6.365,7.509,0,4.459,2.435,7.451,6.541,7.451a5.09,5.09,0,0,0,4.986-3.432v3.139h3.727V373.2Zm-3.872,11.294c-2.7,0-3.9-1.261-3.9-4.077,0-2.875,1.2-4.136,3.9-4.136,2.787,0,3.99,1.261,3.99,4.136C4801.336,383.236,4800.133,384.5,4797.346,384.5Z" transform="translate(-4665.739 -363.257)" fill="#14363d"/>
      <path id="Path_209004" data-name="Path 209004" d="M5434.427,226.2v-3.285h-4.165v-4.283h-3.726v4.283h-2.757V226.2h2.757v6.629a4.219,4.219,0,0,0,4.46,4.459h3.079V234h-3.813v-7.8Z" transform="translate(-5283.431 -212.965)" fill="#14363d"/>
      <path id="Path_209005" data-name="Path 209005" d="M5902.078,151.893a4.561,4.561,0,0,0-4.751,3.637v-9.5H5893.6V166.56h3.726V159.7c0-2.963,1.29-4.429,3.372-4.429,1.79,0,2.788.968,2.788,2.9v8.389h3.725v-8.595C5907.211,153.917,5905.481,151.893,5902.078,151.893Z" transform="translate(-5741.104 -142.239)" fill="#14363d"/>
      <path id="Path_209006" data-name="Path 209006" d="M6519.311,398.628h3.726V384.254h-3.726Z" transform="translate(-6350.634 -374.307)" fill="#14363d"/>
      <path id="Path_209007" data-name="Path 209007" d="M6517.491,152.485h3.791v3.6h-3.791Z" transform="translate(-6348.862 -148.531)" fill="#14363d"/>
      <path id="Path_209008" data-name="Path 209008" d="M656.76,80.775a2.925,2.925,0,0,1-1.908,2.742l-8.908,3.3v6.241L656.884,89a8.774,8.774,0,0,0,5.725-8.227V71.738a4.875,4.875,0,0,0-6.539-4.582l-11.462,4.215v6.19l12.151-4.432Z" transform="translate(-627.841 -65.12)" fill="#a882dd"/>
      <path id="Path_209009" data-name="Path 209009" d="M5.952,12.293A2.925,2.925,0,0,1,7.861,9.551l8.908-3.3V.011L5.828,4.066A8.774,8.774,0,0,0,.1,12.293V21.33a4.875,4.875,0,0,0,6.538,4.582L18.1,21.7v-6.19L5.952,19.939Z" transform="translate(0)" fill="#49d49d"/>
    </g>
  </g>
  <text id="Welcome_to" data-name="Welcome to" transform="translate(114 63)" fill="#313131" font-size="22" font-family="Poppins-Medium, Poppins" font-weight="500"><tspan x="0" y="0">Welcome to</tspan></text>
</svg>
