<svg id="Loginimg" xmlns="http://www.w3.org/2000/svg" xmlns:xlink="http://www.w3.org/1999/xlink" width="360" height="147" viewBox="0 0 360 147">
  <defs>
    <clipPath id="clip-path">
      <rect id="Rectangle_168883" data-name="Rectangle 168883" width="360" height="147" fill="#fff" stroke="#707070" stroke-width="1"/>
    </clipPath>
  </defs>
  <g id="Mask_Group_23" data-name="Mask Group 23" clip-path="url(#clip-path)">
    <path id="Path_205211" data-name="Path 205211" d="M387.717,181.863c-20.389,29.053-52.4,48.552-84.994,63.85q-14,6.563-28.305,12.386-9.939,4.072-19.979,7.869H36.174Q32.5,262.119,29.06,258.1C7.814,233.264-5.863,203.833,2.479,169.878,11,135.2,41.73,106.886,77.573,99.355c24.268-5.1,50.268-1.2,73.363-10.23,27.007-10.56,44.02-36.206,65.754-55.107,22.545-19.6,51.676-32.436,81.642-33.884s60.474,8.963,81.083,29.6c14.479,14.487,23.757,33.451,28.085,53.3A126.867,126.867,0,0,1,387.717,181.863Z" transform="translate(241.41 232.533) rotate(-161)" fill="#fbf8ff"/>
  </g>
  <text id="Welcome_to" data-name="Welcome to" transform="translate(114 63)" fill="#313131" font-size="22" font-family="Poppins-Medium, Poppins" font-weight="500"><tspan x="0" y="0">Welcome to</tspan></text>
</svg>
