<svg id="Loginimg" xmlns="http://www.w3.org/2000/svg" xmlns:xlink="http://www.w3.org/1999/xlink" width="360" height="147" viewBox="0 0 360 147">
  <defs>
    <clipPath id="clip-path">
      <rect id="Rectangle_168883" data-name="Rectangle 168883" width="360" height="147" fill="#fff" stroke="#707070" stroke-width="1"/>
    </clipPath>
    <linearGradient id="linear-gradient" x1="0.108" y1="-0.328" x2="0.868" y2="0.851" gradientUnits="objectBoundingBox">
      <stop offset="0" stop-color="#114fee"/>
      <stop offset="1" stop-color="#2ddaff"/>
    </linearGradient>
    <linearGradient id="linear-gradient-2" x1="0.003" y1="-0.684" x2="1.001" y2="1.479" xlink:href="#linear-gradient"/>
    <linearGradient id="linear-gradient-3" x1="-0.048" y1="-0.744" x2="1.06" y2="1.734" xlink:href="#linear-gradient"/>
  </defs>
  <g id="Mask_Group_23" data-name="Mask Group 23" clip-path="url(#clip-path)">
    <path id="Path_205211" data-name="Path 205211" d="M387.717,181.863c-20.389,29.053-52.4,48.552-84.994,63.85q-14,6.563-28.305,12.386-9.939,4.072-19.979,7.869H36.174Q32.5,262.119,29.06,258.1C7.814,233.264-5.863,203.833,2.479,169.878,11,135.2,41.73,106.886,77.573,99.355c24.268-5.1,50.268-1.2,73.363-10.23,27.007-10.56,44.02-36.206,65.754-55.107,22.545-19.6,51.676-32.436,81.642-33.884s60.474,8.963,81.083,29.6c14.479,14.487,23.757,33.451,28.085,53.3A126.867,126.867,0,0,1,387.717,181.863Z" transform="translate(241.41 232.533) rotate(-161)" fill="#eefaff"/>
  </g>
  <g id="Emedlife" transform="translate(42.537 66.19)">
    <g id="Emedlife-2" data-name="Emedlife" transform="translate(64 21)">
      <rect id="Rectangle_168047" data-name="Rectangle 168047" width="33.81" height="33.81" fill="none"/>
      <g id="Group_1102" data-name="Group 1102" transform="translate(0 0.452)">
        <path id="Path_114505" data-name="Path 114505" d="M145.756,14.574a30.727,30.727,0,0,0-7.792-3.644h-.022l-.39-.111-.371-.1h0l-.286-.082h0l-.178-.045-.62-.152-.286-.071-.568-.119-.226-.045H135l-.286-.059c-.271-.052-.545-.1-.82-.137l-.293-.052h0c-.271-.041-.542-.07-.816-.1h-.019l-.293-.037c-.241-.03-.486-.048-.742-.071h-.089l-.263-.022h-.056l-.523-.03-.315-.019h-.312c-.371,0-.772-.022-1.158-.022h0a30.593,30.593,0,0,0-16.764,4.972v.868h0v1.963h0a2.155,2.155,0,0,0,.03.438,3.205,3.205,0,0,1,.037.412c.022.26.048.519.078.775l.056.423c.033.256.067.508.108.764l.067.4q.067.4.145.79c.022.119.045.237.071.371.063.3.13.594.2.887.022.082.037.163.059.241.189.764.408,1.521.657,2.26a.089.089,0,0,0,0,.03h0a30.276,30.276,0,0,0,1.484,3.6h0l.022.048c.349.72.742,1.421,1.113,2.108l.13.215c.156.263.319.527.486.787.059.093.119.189.182.282.156.237.315.475.479.709l.193.278c.178.249.371.493.542.742l.152.2c.479.623.983,1.224,1.506,1.811l.2.212c.16.174.319.349.479.516h0l.074.074.045.048.26.263.445.438.182.178c.074.07.148.141.226.208.156.148.315.293.475.434l.234.211.156.137c.189.163.371.323.575.482l.223.182h.019c.137.111.275.215.416.323s.338.271.512.4l.074.052c.093.07.186.134.278.2.2.148.4.293.609.434l.148.1.256.167a6.859,6.859,0,0,0,.6.371l.215.137.182.111.668.393.245.145.1.052c.341.189.683.371,1.028.553.4-.208.8-.427,1.191-.649l.085-.048.271-.156.16-.093c.371-.211.72-.434,1.072-.664l.152-.1.174-.119.226-.152c.226-.152.449-.312.668-.471.085-.059.167-.115.249-.178l.408-.308.208-.16c.167-.13.338-.26.5-.4l.2-.171c.2-.16.39-.319.583-.486l.126-.115c.089-.074.174-.152.26-.23l.178-.16c.371-.315.694-.646,1.028-.98l.215-.215c.282-.286.557-.579.827-.876.033-.037.07-.074.1-.115l.074-.078c.319-.371.627-.742.931-1.113l.145-.174.089-.119c.289-.371.571-.742.842-1.113l.026-.037.134-.189c.019-.026.041-.052.059-.082h0c.208-.3.412-.6.612-.905l.163-.252c.256-.4.508-.816.742-1.232l.089-.167c.219-.371.427-.775.631-1.169.037-.078.078-.156.119-.234.215-.434.419-.868.616-1.314.037-.078.071-.16.1-.241.178-.412.345-.824.5-1.243.022-.059.048-.119.067-.174q.256-.69.479-1.391c.033-.1.059-.193.089-.286.145-.468.282-.935.4-1.41v-.03h0q.319-1.239.527-2.519h0l.033-.215c.045-.278.085-.557.122-.839a2.727,2.727,0,0,1,.048-.371c.033-.271.059-.542.085-.813,0-.137.026-.271.033-.4.022-.282.041-.568.056-.853v-.371c0-.4.026-.809.026-1.217h0A5.164,5.164,0,0,0,145.756,14.574Z" transform="translate(-112.25 -9.65)" fill="#4bc4f9"/>
        <path id="Path_114506" data-name="Path 114506" d="M135.2,27.619a29.331,29.331,0,0,1,14.809,1.006l.067-5.117v-.223a27.457,27.457,0,0,0-21.053-.115c-.816,8.356,2,14.712,6.556,19.157a25.148,25.148,0,0,0,4.007,3.165,22.4,22.4,0,0,0,7.258-7.217c.045-.067.093-.134.137-.2a18.686,18.686,0,0,0-8.779-.965h-.145L136.844,35a21.957,21.957,0,0,1,11.3.872l1.447-4.486.07-.208a25.413,25.413,0,0,0-13.8-1.358,1.486,1.486,0,0,0-.308.052Z" transform="translate(-122.71 -16.87)" fill="#021b8d" opacity="0.3"/>
        <path id="Path_114507" data-name="Path 114507" d="M134.425,26.626a29.272,29.272,0,0,1,14.8,1l.056-5.113v-.226a27.458,27.458,0,0,0-21.053-.111c-.816,8.356,2,14.712,6.556,19.157a25.356,25.356,0,0,0,4.03,3.165,22.441,22.441,0,0,0,7.258-7.217l.137-.208a18.69,18.69,0,0,0-8.783-.961h-.145l-1.213-2.1a21.918,21.918,0,0,1,11.3.872l1.447-4.486.07-.211a25.446,25.446,0,0,0-13.8-1.358l-.308.052Z" transform="translate(-122.213 -16.244)" fill="#fff"/>
        <g id="Group_838" data-name="Group 838" transform="translate(11.844 5.9)" opacity="0.52">
          <path id="Path_114508" data-name="Path 114508" d="M149.214,72.573a24.953,24.953,0,0,1-4-3.165,24.908,24.908,0,0,0,4.375,3.536,22.608,22.608,0,0,0,7.395-7.421l-.5-.163A22.452,22.452,0,0,1,149.214,72.573Z" transform="translate(-144.824 -50.589)" fill="url(#linear-gradient)"/>
          <path id="Path_114509" data-name="Path 114509" d="M159.836,51.357a21.974,21.974,0,0,0-11.306-.872l1.44,2.493h.145l-1.213-2.1a21.918,21.918,0,0,1,11.3.872l1.518-4.7-.438-.16Z" transform="translate(-146.912 -38.972)" fill="url(#linear-gradient-2)"/>
          <path id="Path_114510" data-name="Path 114510" d="M159.03,25.55l-.056,5.117a29.272,29.272,0,0,0-14.8-1.006l.408,2.7.3-.052-.345-2.275a29.272,29.272,0,0,1,14.8,1l.059-5.339C159.279,25.643,159.153,25.6,159.03,25.55Z" transform="translate(-144.17 -25.55)" fill="url(#linear-gradient-3)"/>
        </g>
      </g>
    </g>
    <path id="Path_114511" data-name="Path 114511" d="M31.763,117.559H29.2v12.025h2.559v-6.013c0-1.777,1.247-3.752,3.179-3.752,2.314,0,3.417,1.525,3.417,3.752v6h2.559v-6a3.573,3.573,0,0,1,3.414-3.752c2.1,0,3.284,1.777,3.284,3.752v6h2.523v-6c0-3.453-1.683-6.312-5.407-6.312a5.259,5.259,0,0,0-4.239,1.856l-.49.656-.447-.685a4.889,4.889,0,0,0-3.965-1.828,4.248,4.248,0,0,0-2.79.991l-1.017,1.236Zm24.151,7.051a3.522,3.522,0,0,1-.126-1.027,3.648,3.648,0,0,1,3.648-3.752,3.547,3.547,0,0,1,2.163.721l.627.472-6.088,4.326Zm8.824,3.2-2.055-1.6a4.052,4.052,0,0,1-2.938,1.107,3.536,3.536,0,0,1-1.3-.195l-.991-.382,7.862-5.63a6.4,6.4,0,0,0-5.883-3.861,6.279,6.279,0,0,0-6.261,6.312,6.454,6.454,0,0,0,6.575,6.29,6.785,6.785,0,0,0,4.989-2.051Zm13.186-4.228a3.56,3.56,0,0,1-3.572,3.756,3.756,3.756,0,0,1,0-7.508,3.556,3.556,0,0,1,3.569,3.742Zm2.4-12.285H77.769v8.064l-.995-1.081a4.55,4.55,0,0,0-2.786-1.017,6.315,6.315,0,0,0,0,12.6,3.959,3.959,0,0,0,2.754-1l1.027-1.355v2.069h2.559Zm6.308,18.286v-18.3H84.088v18.286Zm3.442-17.032a1.6,1.6,0,1,0,3.208,0,1.569,1.569,0,0,0-1.644-1.442,1.6,1.6,0,0,0-1.568,1.431Zm2.884,17.032V117.559H90.4v12.025Zm10.223-15.767v-2.675a5.7,5.7,0,0,0-5.407,5.659v.757h-1.8v2.271h1.8v9.754h2.559v-9.765h2.581v-2.26h-2.581v-.887a2.97,2.97,0,0,1,2.83-2.866Zm4.773,10.792a3.525,3.525,0,0,1-.13-1.027,3.648,3.648,0,0,1,3.652-3.752,3.536,3.536,0,0,1,2.163.721l.627.472-6.088,4.326Zm8.821,3.2-2.051-1.6a4.062,4.062,0,0,1-2.941,1.107,3.525,3.525,0,0,1-1.3-.195l-.995-.382,7.865-5.63a6.4,6.4,0,0,0-5.883-3.861,6.279,6.279,0,0,0-6.261,6.312,6.451,6.451,0,0,0,6.571,6.29,6.771,6.771,0,0,0,4.974-2.051ZM14.81,129.573h10.9V127.05H17.7v-6.005h7.3v-2.48H17.7V113.8h8.01v-2.523H14.81Z" transform="translate(93.565 -82.583)" fill="#021b8d" fill-rule="evenodd"/>
  </g>
  <text id="Welcome_to" data-name="Welcome to" transform="translate(114 63)" fill="#021b8d" font-size="22" font-family="Poppins-Medium, Poppins" font-weight="500"><tspan x="0" y="0">Welcome to</tspan></text>
</svg>
