<svg id="Members_Covered" xmlns="http://www.w3.org/2000/svg" xmlns:xlink="http://www.w3.org/1999/xlink" width="44" height="39.286" viewBox="0 0 44 39.286">
  <defs>
    <filter id="Path_115499">
      <feOffset dy="3" input="SourceAlpha"/>
      <feGaussianBlur stdDeviation="3" result="blur"/>
      <feFlood flood-opacity="0.161" result="color"/>
      <feComposite operator="out" in="SourceGraphic" in2="blur"/>
      <feComposite operator="in" in="color"/>
      <feComposite operator="in" in2="SourceGraphic"/>
    </filter>
  </defs>
  <g data-type="innerShadowGroup">
    <path id="Path_115499-2" data-name="Path 115499" d="M43.376,43.648,34.718,28.654a4.679,4.679,0,0,0-4.057-2.343H13.344A4.679,4.679,0,0,0,9.287,28.6L.629,43.592a4.677,4.677,0,0,0,0,4.686L9.287,63.272A4.7,4.7,0,0,0,13.344,65.6H30.661a4.7,4.7,0,0,0,4.057-2.268l8.658-14.994A4.715,4.715,0,0,0,43.376,43.648Z" transform="translate(0 -26.311)" fill="#4bc4f9"/>
    <g transform="matrix(1, 0, 0, 1, 0, 0)" filter="url(#Path_115499)">
      <path id="Path_115499-3" data-name="Path 115499" d="M43.376,43.648,34.718,28.654a4.679,4.679,0,0,0-4.057-2.343H13.344A4.679,4.679,0,0,0,9.287,28.6L.629,43.592a4.677,4.677,0,0,0,0,4.686L9.287,63.272A4.7,4.7,0,0,0,13.344,65.6H30.661a4.7,4.7,0,0,0,4.057-2.268l8.658-14.994A4.715,4.715,0,0,0,43.376,43.648Z" transform="translate(0 -26.31)" fill="#fff"/>
    </g>
  </g>
  <g id="Members_Covered-2" data-name="Members_Covered" transform="translate(-31.5 -296.631)">
    <rect id="Rectangle_167549" data-name="Rectangle 167549" width="19" height="19" transform="translate(44 306.631)" fill="none"/>
    <g id="insurance_2_" data-name="insurance (2)" transform="translate(44 306.732)">
      <g id="Group_196" data-name="Group 196" transform="translate(7.764 12.216)">
        <g id="Group_195" data-name="Group 195">
          <path id="Path_114037" data-name="Path 114037" d="M212.656,332a1.656,1.656,0,1,0,1.656,1.656A1.658,1.658,0,0,0,212.656,332Z" transform="translate(-211 -332)" fill="#fff"/>
        </g>
      </g>
      <g id="Group_198" data-name="Group 198" transform="translate(6.164 15.527)">
        <g id="Group_197" data-name="Group 197">
          <path id="Path_114038" data-name="Path 114038" d="M174.02,424.646a3.312,3.312,0,0,0-6.489,0,.559.559,0,0,0,.548.665h5.393A.559.559,0,0,0,174.02,424.646Z" transform="translate(-167.52 -422)" fill="#fff"/>
        </g>
      </g>
      <g id="Group_200" data-name="Group 200" transform="translate(13.908 10.523)">
        <g id="Group_199" data-name="Group 199">
          <path id="Path_114039" data-name="Path 114039" d="M379.656,286a1.656,1.656,0,1,0,1.656,1.656A1.658,1.658,0,0,0,379.656,286Z" transform="translate(-378 -286)" fill="#fff"/>
        </g>
      </g>
      <g id="Group_202" data-name="Group 202" transform="translate(12.599 13.835)">
        <g id="Group_201" data-name="Group 201">
          <path id="Path_114040" data-name="Path 114040" d="M348.651,378.646a3.318,3.318,0,0,0-6.228-.791,4.395,4.395,0,0,1,.984,1.456h4.7A.559.559,0,0,0,348.651,378.646Z" transform="translate(-342.423 -376)" fill="#fff"/>
        </g>
      </g>
      <g id="Group_204" data-name="Group 204" transform="translate(1.619 10.523)">
        <g id="Group_203" data-name="Group 203">
          <path id="Path_114041" data-name="Path 114041" d="M45.656,286a1.656,1.656,0,1,0,1.656,1.656A1.658,1.658,0,0,0,45.656,286Z" transform="translate(-44 -286)" fill="#fff"/>
        </g>
      </g>
      <g id="Group_206" data-name="Group 206" transform="translate(0 13.835)">
        <g id="Group_205" data-name="Group 205">
          <path id="Path_114042" data-name="Path 114042" d="M3.275,376a3.338,3.338,0,0,0-3.263,2.646.559.559,0,0,0,.548.665h4.7a4.392,4.392,0,0,1,.984-1.456A3.322,3.322,0,0,0,3.275,376Z" transform="translate(0 -376)" fill="#fff"/>
        </g>
      </g>
      <g id="Group_208" data-name="Group 208" transform="translate(1.14)">
        <g id="Group_207" data-name="Group 207">
          <path id="Path_114043" data-name="Path 114043" d="M47.513,8.135a8.336,8.336,0,0,0-7.7-6.97V.552a.552.552,0,0,0-1.1,0v.613a8.367,8.367,0,0,0-7.719,7.059.553.553,0,0,0,.935.481,2.572,2.572,0,0,1,3.635,0,.553.553,0,0,0,.7.069c.084-.056.173-.1.259-.146A5.393,5.393,0,0,1,38.7,7.912v3.219a2.755,2.755,0,0,1,1.1,0V7.912a5.394,5.394,0,0,1,2.2.722h0c.082.049.169.087.249.141a.552.552,0,0,0,.7-.069,2.572,2.572,0,0,1,3.635,0A.574.574,0,0,0,47.513,8.135Z" transform="translate(-30.977)" fill="#fff"/>
        </g>
      </g>
    </g>
  </g>
</svg>
