<svg xmlns="http://www.w3.org/2000/svg" width="21" height="22" viewBox="0 0 21 22">
  <g id="Members_Covered" data-name="Members Covered" transform="translate(-1.987)">
    <g id="Group_71325" data-name="Group 71325" transform="translate(1.987)">
      <g id="Group_71324" data-name="Group 71324" transform="translate(0)">
        <path id="Path_116973" data-name="Path 116973" d="M137.421,124.986a2.823,2.823,0,1,0,2.823-2.823A2.826,2.826,0,0,0,137.421,124.986Zm2.823-1.785a1.785,1.785,0,1,1-1.785,1.785A1.786,1.786,0,0,1,140.244,123.2Z" transform="translate(-129.73 -114.881)" fill="#4bc4f9"/>
        <path id="Path_116974" data-name="Path 116974" d="M97.461,230.77l-3.765-.012h0a3.746,3.746,0,0,0-3.735,3.751v3.534a.959.959,0,0,0,.957.961h9.314a.944.944,0,0,0,.957-.952v-3.534A3.741,3.741,0,0,0,97.461,230.77Zm2.692,7.2H99.007v-3.433a.425.425,0,1,0-.851,0v3.433H92.988v-3.433a.425.425,0,1,0-.851,0v3.433H90.991v-3.461a2.709,2.709,0,0,1,2.7-2.71l3.762.012h0a2.705,2.705,0,0,1,2.7,2.71v3.449Z" transform="translate(-85.072 -217.004)" fill="#4bc4f9"/>
        <path id="Path_116975" data-name="Path 116975" d="M58.068,5.646a2.823,2.823,0,1,0-2.823-2.823A2.826,2.826,0,0,0,58.068,5.646Zm0-4.608a1.785,1.785,0,1,1-1.785,1.785A1.786,1.786,0,0,1,58.068,1.038Z" transform="translate(-52.428 0)" fill="#4bc4f9"/>
        <path id="Path_116976" data-name="Path 116976" d="M13.431,114.884a.518.518,0,0,0-.519-.519H11.03v-3.43a.427.427,0,0,0-.855,0v3.433H9.025v-3.458a2.717,2.717,0,0,1,2.713-2.713h3.784a2.685,2.685,0,0,1,.583.064.472.472,0,0,0,.113.012.519.519,0,0,0,.113-1.025,3.609,3.609,0,0,0-.809-.089H11.738a3.754,3.754,0,0,0-3.751,3.751v3.534a.961.961,0,0,0,.961.961h3.964A.523.523,0,0,0,13.431,114.884Z" transform="translate(-7.987 -100.773)" fill="#4bc4f9"/>
        <path id="Path_116977" data-name="Path 116977" d="M222.215,5.646a2.823,2.823,0,1,0-2.823-2.823A2.826,2.826,0,0,0,222.215,5.646Zm0-4.608a1.785,1.785,0,1,1-1.785,1.785A1.786,1.786,0,0,1,222.215,1.038Z" transform="translate(-206.839 0)" fill="#4bc4f9"/>
        <path id="Path_116978" data-name="Path 116978" d="M222.215,108.209a3.727,3.727,0,0,0-2.649-1.1l-3.781,0a3.527,3.527,0,0,0-.8.089.519.519,0,0,0,.113,1.025.473.473,0,0,0,.113-.012,2.583,2.583,0,0,1,.574-.064l3.781,0a2.719,2.719,0,0,1,2.713,2.713v3.458h-1.15v-3.43a.427.427,0,0,0-.855,0v3.433h-1.883a.519.519,0,1,0,0,1.038h3.961a.961.961,0,0,0,.961-.961v-3.537A3.734,3.734,0,0,0,222.215,108.209Z" transform="translate(-202.314 -100.726)" fill="#4bc4f9"/>
      </g>
    </g>
  </g>
</svg>
