<svg xmlns="http://www.w3.org/2000/svg" width="24" height="24" viewBox="0 0 24 24">
  <g id="Menu" transform="translate(-21 -99)">
    <rect id="Rectangle_168048" data-name="Rectangle 168048" width="24" height="24" transform="translate(21 99)" fill="none"/>
    <path id="menus" d="M3,5.714A1.714,1.714,0,0,1,4.714,4H25.286a1.714,1.714,0,0,1,0,3.429H4.714A1.714,1.714,0,0,1,3,5.714Zm0,8.571a1.714,1.714,0,0,1,1.714-1.714H15A1.714,1.714,0,0,1,15,16H4.714A1.714,1.714,0,0,1,3,14.286Zm0,8.571a1.714,1.714,0,0,1,1.714-1.714H25.286a1.714,1.714,0,0,1,0,3.429H4.714A1.714,1.714,0,0,1,3,22.857Z" transform="translate(18 96.714)" fill="#4bc4f9" fill-rule="evenodd"/>
  </g>
</svg>
