<svg xmlns="http://www.w3.org/2000/svg" width="24" height="24" viewBox="0 0 24 24">
  <g id="My_Policies" data-name="My Policies" transform="translate(-1 -1)">
    <path id="Path_115504" data-name="Path 115504" d="M22.6,2.6A2.4,2.4,0,0,1,25,5V8.2a.8.8,0,0,1-.8.8h-4V5A2.4,2.4,0,0,1,22.6,2.6ZM11.4,9h-.8V8.2A.8.8,0,1,0,9,8.2V9H8.2a.8.8,0,0,0,0,1.6H9v.8a.8.8,0,0,0,1.6,0v-.8h.8a.8.8,0,0,0,0-1.6ZM21,1a2.4,2.4,0,0,0-2.4,2.4V15.208a6.741,6.741,0,0,1-2.4.624H14.6V19.9A6.236,6.236,0,0,0,16.936,25H1.8a.8.8,0,0,1-.8-.8V3.4A2.4,2.4,0,0,1,3.4,1ZM12.2,20.2a.8.8,0,0,0-.8-.8H5A.8.8,0,0,0,5,21h6.4A.8.8,0,0,0,12.2,20.2Zm0-3.2a.8.8,0,0,0-.8-.8H5a.8.8,0,1,0,0,1.6h6.4A.8.8,0,0,0,12.2,17Zm1.6-7.2a4,4,0,1,0-4,4A4,4,0,0,0,13.8,9.8Zm10.4,7.631v2.461c0,3.384-2.462,4.492-4,5.108-1.538-.616-4-1.723-4-5.108V17.431a9.8,9.8,0,0,0,4-1.231A9.8,9.8,0,0,0,24.2,17.431Zm-1.634,1.4a.8.8,0,0,0-1.131,0L19.6,20.669l-.634-.634a.8.8,0,0,0-1.131,1.131l1.2,1.2a.8.8,0,0,0,1.131,0l2.4-2.4a.8.8,0,0,0,0-1.131Z" fill="#c5c5c5"/>
  </g>
</svg>
