<svg xmlns="http://www.w3.org/2000/svg" width="24" height="24.145" viewBox="0 0 24 24.145">
  <g id="My_Corporate_Policies" transform="translate(-1.379 -1.25)">
    <path id="Path_116588" data-name="Path 116588" d="M2.221,22.935H24.537a.842.842,0,1,0,0-1.685H2.221a.842.842,0,1,0,0,1.685Z" transform="translate(0 2.46)" fill="#021b8d" fill-rule="evenodd"/>
    <path id="Path_116589" data-name="Path 116589" d="M10.461,25.395a.843.843,0,0,1-.842-.842v-7.3a1.4,1.4,0,0,1,1.4-1.4h3.369a1.4,1.4,0,0,1,1.4,1.4v7.3a.843.843,0,0,1-.842.842h3.369a.843.843,0,0,0,.842-.842V3.215A1.966,1.966,0,0,0,17.2,1.25H8.215A1.966,1.966,0,0,0,6.25,3.215V24.553a.843.843,0,0,0,.842.842Zm3.65-7.861V23.71H11.3V17.534Zm-3.369-3.65h-.562a.562.562,0,0,1-.562-.562v-.562a.562.562,0,0,1,.562-.562h.562a.562.562,0,0,1,.562.562v.562A.562.562,0,0,1,10.742,13.884Zm4.492,0h-.562a.562.562,0,0,1-.562-.562v-.562a.562.562,0,0,1,.562-.562h.562a.562.562,0,0,1,.562.562v.562A.562.562,0,0,1,15.234,13.884Zm-4.492-3.369h-.562a.562.562,0,0,1-.562-.562V9.392a.562.562,0,0,1,.562-.562h.562a.562.562,0,0,1,.562.562v.562A.562.562,0,0,1,10.742,10.515Zm4.492,0h-.562a.562.562,0,0,1-.562-.562V9.392a.562.562,0,0,1,.562-.562h.562a.562.562,0,0,1,.562.562v.562A.562.562,0,0,1,15.234,10.515ZM10.742,7.146h-.562a.562.562,0,0,1-.562-.562V6.023a.562.562,0,0,1,.562-.562h.562a.562.562,0,0,1,.562.562v.562A.562.562,0,0,1,10.742,7.146Zm4.492,0h-.562a.562.562,0,0,1-.562-.562V6.023a.562.562,0,0,1,.562-.562h.562a.562.562,0,0,1,.562.562v.562A.562.562,0,0,1,15.234,7.146Z" transform="translate(0.599)" fill="#021b8d" fill-rule="evenodd"/>
    <path id="Path_116590" data-name="Path 116590" d="M5.619,5.25h-1.4A1.966,1.966,0,0,0,2.25,7.215V24.06a.843.843,0,0,0,.842.842H5.808a1.957,1.957,0,0,1-.189-.842Z" transform="translate(0.107 0.492)" fill="#021b8d" fill-rule="evenodd"/>
    <path id="Path_116591" data-name="Path 116591" d="M18.771,5.25V24.06a1.957,1.957,0,0,1-.189.842H21.3a.843.843,0,0,0,.842-.842V7.215A1.966,1.966,0,0,0,20.174,5.25Z" transform="translate(2.116 0.492)" fill="#021b8d" fill-rule="evenodd"/>
  </g>
</svg>
