<svg xmlns="http://www.w3.org/2000/svg" width="30" height="30.736" viewBox="0 0 30 30.736">
  <g id="My_Coverage" transform="translate(-44 -305.908)">
    <rect id="Rectangle_167549" data-name="Rectangle 167549" width="30" height="30" transform="translate(44 306.408)" fill="none"/>
    <g id="user_3_" data-name="user (3)" transform="translate(45.8 306.408)">
      <g id="Group_333" data-name="Group 333" transform="translate(5.227)">
        <g id="Group_332" data-name="Group 332" transform="translate(0)">
          <path id="Path_114096" data-name="Path 114096" d="M128.841,0a7.841,7.841,0,1,0,7.841,7.841A7.85,7.85,0,0,0,128.841,0Z" transform="translate(-121)" fill="#fff" stroke="#ffb125" stroke-width="1"/>
        </g>
      </g>
      <g id="Group_335" data-name="Group 335" transform="translate(0 17.424)">
        <g id="Group_334" data-name="Group 334" transform="translate(0)">
          <path id="Path_114097" data-name="Path 114097" d="M53.823,303.38A11.177,11.177,0,0,0,45.81,300H42.325a11.177,11.177,0,0,0-8.013,3.38A11.427,11.427,0,0,0,31,311.442a.871.871,0,0,0,.871.871H56.264a.871.871,0,0,0,.871-.871A11.427,11.427,0,0,0,53.823,303.38Z" transform="translate(-31 -300)" fill="#fff" stroke="#25d18e" stroke-width="1"/>
        </g>
      </g>
    </g>
  </g>
</svg>
