<svg xmlns="http://www.w3.org/2000/svg" width="24" height="24" viewBox="0 0 24 24">
  <g id="My_Personal_Policies" transform="translate(11007 -9500)">
    <rect id="Rectangle_168114" data-name="Rectangle 168114" width="24" height="24" transform="translate(-11007 9500)" fill="none"/>
    <g id="life-insurance_2_" data-name="life-insurance (2)" transform="translate(-11010.814 9499.643)">
      <path id="Path_116594" data-name="Path 116594" d="M25.159,4.672,16.219.448a.947.947,0,0,0-.81,0L6.469,4.672a.947.947,0,0,0-.543.857v8.539a6.1,6.1,0,0,0,2.346,4.914l6.977,5.188a.948.948,0,0,0,1.131,0l6.977-5.188A6.1,6.1,0,0,0,25.7,14.068V5.529a.948.948,0,0,0-.543-.857Zm-1.353,9.4a4.2,4.2,0,0,1-1.581,3.393l-6.411,4.767L9.4,17.461a4.2,4.2,0,0,1-1.581-3.393V6.13l7.992-3.776L23.806,6.13Z" fill="#021b8d"/>
      <path id="Path_116595" data-name="Path 116595" d="M21.09,9.493l-6.665,3.148v7.1a2.872,2.872,0,0,0,1.046,2.328l5.619,4.178,5.62-4.178a2.871,2.871,0,0,0,1.045-2.328v-7.1Zm-2.043,4.268a1.676,1.676,0,0,1,.317-.86,2.136,2.136,0,0,1,3.453,0,1.674,1.674,0,0,1,.317.861,3.394,3.394,0,0,1-1.062,2.582,1.4,1.4,0,0,1-1.964,0,3.366,3.366,0,0,1-1.062-2.582Zm5.34,7.313A1.127,1.127,0,0,1,23.261,22.2H18.919a1.127,1.127,0,0,1-1.127-1.127V19.978A2.19,2.19,0,0,1,20,17.708h2.174a2.19,2.19,0,0,1,2.211,2.271Z" transform="translate(-5.276 -5.671)" fill="#021b8d"/>
    </g>
  </g>
</svg>
