<svg id="Network_hospital" xmlns="http://www.w3.org/2000/svg" xmlns:xlink="http://www.w3.org/1999/xlink" width="44" height="39.286" viewBox="0 0 44 39.286">
  <defs>
    <filter id="Path_115499">
      <feOffset dy="3" input="SourceAlpha"/>
      <feGaussianBlur stdDeviation="3" result="blur"/>
      <feFlood flood-opacity="0.161" result="color"/>
      <feComposite operator="out" in="SourceGraphic" in2="blur"/>
      <feComposite operator="in" in="color"/>
      <feComposite operator="in" in2="SourceGraphic"/>
    </filter>
  </defs>
  <g data-type="innerShadowGroup">
    <path id="Path_115499-2" data-name="Path 115499" d="M43.376,43.648,34.718,28.654a4.679,4.679,0,0,0-4.057-2.343H13.344A4.679,4.679,0,0,0,9.287,28.6L.629,43.592a4.677,4.677,0,0,0,0,4.686L9.287,63.272A4.7,4.7,0,0,0,13.344,65.6H30.661a4.7,4.7,0,0,0,4.057-2.268l8.658-14.994A4.715,4.715,0,0,0,43.376,43.648Z" transform="translate(0 -26.311)" fill="#4bc4f9"/>
    <g transform="matrix(1, 0, 0, 1, 0, 0)" filter="url(#Path_115499)">
      <path id="Path_115499-3" data-name="Path 115499" d="M43.376,43.648,34.718,28.654a4.679,4.679,0,0,0-4.057-2.343H13.344A4.679,4.679,0,0,0,9.287,28.6L.629,43.592a4.677,4.677,0,0,0,0,4.686L9.287,63.272A4.7,4.7,0,0,0,13.344,65.6H30.661a4.7,4.7,0,0,0,4.057-2.268l8.658-14.994A4.715,4.715,0,0,0,43.376,43.648Z" transform="translate(0 -26.31)" fill="#fff"/>
    </g>
  </g>
  <g id="Network_hospital-2" data-name="Network_hospital" transform="translate(12.5 10.622)">
    <rect id="Rectangle_167549" data-name="Rectangle 167549" width="19" height="19" transform="translate(0 -0.621)" fill="none"/>
    <g id="Group_193" data-name="Group 193" transform="translate(0 6.563)">
      <path id="Path_114033" data-name="Path 114033" d="M2.433,186.392H.544a.544.544,0,0,0-.544.544v11.271H2.433Z" transform="translate(0 -186.392)" fill="#fff"/>
      <path id="Path_114034" data-name="Path 114034" d="M446.841,186.392h-1.889v11.816h2.433V186.936A.544.544,0,0,0,446.841,186.392Z" transform="translate(-428.806 -186.392)" fill="#fff"/>
    </g>
    <g id="Group_194" data-name="Group 194" transform="translate(3.522 -0.201)">
      <path id="Path_114035" data-name="Path 114035" d="M0,0H3.637V1.893H0Z" transform="translate(6.715 14.942) rotate(90)" fill="#fff"/>
      <path id="Path_114036" data-name="Path 114036" d="M108.04,2.236h-1.714V.544A.544.544,0,0,0,105.782,0H99.927a.544.544,0,0,0-.544.544V2.236H97.592a.544.544,0,0,0-.544.544v15.8h3.733V14.4a.544.544,0,0,1,.544-.544h2.982a.544.544,0,0,1,.544.544V18.58h3.733V2.78a.544.544,0,0,0-.544-.544Zm-7.689,9.737h-.586a.544.544,0,0,1,0-1.089h.586a.544.544,0,0,1,0,1.089Zm0-2.177h-.586a.544.544,0,0,1,0-1.089h.586a.544.544,0,0,1,0,1.089Zm0-2.177h-.586a.544.544,0,0,1,0-1.089h.586a.544.544,0,0,1,0,1.089Zm2.758,4.355h-.586a.544.544,0,0,1,0-1.089h.586a.544.544,0,0,1,0,1.089Zm0-2.177h-.586a.544.544,0,0,1,0-1.089h.586a.544.544,0,0,1,0,1.089Zm0-2.177h-.586a.544.544,0,0,1,0-1.089h.586a.544.544,0,0,1,0,1.089Zm.8-3.255h-.553v.553a.544.544,0,1,1-1.089,0V4.363h-.553a.544.544,0,1,1,0-1.089h.553V2.722a.544.544,0,1,1,1.089,0v.553h.553a.544.544,0,1,1,0,1.089Zm1.954,7.61h-.586a.544.544,0,1,1,0-1.089h.586a.544.544,0,0,1,0,1.089Zm0-2.177h-.586a.544.544,0,1,1,0-1.089h.586a.544.544,0,0,1,0,1.089Zm0-2.177h-.586a.544.544,0,1,1,0-1.089h.586a.544.544,0,0,1,0,1.089Z" transform="translate(-97.048)" fill="#fff"/>
    </g>
  </g>
</svg>
