<svg xmlns="http://www.w3.org/2000/svg" width="344" height="217.388" viewBox="0 0 344 217.388">
  <g id="ob1" transform="translate(-1197.906 -304.43)">
    <path id="Path_205122" data-name="Path 205122" d="M1331.478,357.34a81.953,81.953,0,0,1,32.558,6.7,108.7,108.7,0,1,1,97,157.776H1331.478a82.239,82.239,0,1,1,0-164.478" transform="translate(-33.83 0)" fill="#ecf5ff" fill-rule="evenodd"/>
    <rect id="Rectangle_168872" data-name="Rectangle 168872" width="344" height="0.566" transform="translate(1197.906 521.195)" fill="#000446"/>
    <path id="Path_205123" data-name="Path 205123" d="M1647.1,333.243l-21.283,8.635,6.716,24.51,14.654,14.654,17.968-20.5,3.053-20.759Z" transform="translate(-282.007 -18.989)" fill="#fff" fill-rule="evenodd"/>
    <path id="Path_205124" data-name="Path 205124" d="M1286.082,902.7l.6-6.373-6.394.154.061,7.3Z" transform="translate(-54.294 -390.077)" fill="#f7aaac" fill-rule="evenodd"/>
    <path id="Path_205125" data-name="Path 205125" d="M1279.395,913.437c1.24,4.424,4.752,6.352,2.453,9.11h-11.706c-.019-.053-.039-.11-.056-.171a1.9,1.9,0,0,1-.295-1.919c.679-2.568,2.672-6.514,3.357-6.717,1.359-.4,3.287.732,6.246-.3" transform="translate(-47.293 -401.355)" fill="#a1003f" fill-rule="evenodd"/>
    <path id="Path_205126" data-name="Path 205126" d="M1282.4,933.857v.005l.015.48a2,2,0,0,1-.888,1.663h-11.581a1.66,1.66,0,0,1-.351-2.09Z" transform="translate(-47.102 -414.812)" fill="#140505" fill-rule="evenodd"/>
    <path id="Path_205127" data-name="Path 205127" d="M1301.909,642.748l-6.851,27.825-3.5,16.565-7.763,40.347a9.749,9.749,0,0,1-4.268.6,19.719,19.719,0,0,1-3.952-.54c-.057-11.914,0-27.042,1.288-42.246,1.081-12.741-2.99-19.563-2.209-33.616.23-4.151,4.7-15.915,4.643-15.765Z" transform="translate(-50.516 -218.458)" fill="#6d2c5f" fill-rule="evenodd"/>
    <path id="Path_205128" data-name="Path 205128" d="M1300.769,671.833l-1.756,7.133c-8.987,1.12-18.374.353-24.144-1.216q-.011-1.215-.017-2.4a15.125,15.125,0,0,1,.473-3.215c8.147-.047,21.453-.138,22.746-.228.428-.03,1.421-.055,2.7-.076" transform="translate(-50.709 -242.13)" fill="#12143c" fill-rule="evenodd"/>
    <path id="Path_205129" data-name="Path 205129" d="M1367.753,902.276l-.024-6.591-6.394.154.688,7.515Z" transform="translate(-107.705 -389.655)" fill="#f7aaac" fill-rule="evenodd"/>
    <path id="Path_205130" data-name="Path 205130" d="M1366.163,910.878c3.173,3.761,10,4.566,12.856,5.507,2.313.763,3.426,3.327,1.63,4.476h-21.884c-.02-.053-.038-.11-.057-.171-.325-1.082-1.176-8.808,1.1-8.636a9.761,9.761,0,0,0,6.355-1.176" transform="translate(-105.691 -399.668)" fill="#a1003f" fill-rule="evenodd"/>
    <path id="Path_205131" data-name="Path 205131" d="M1384.073,914.194c2.934,2.384,7.482,3.27,10.345,4-.155.6-.242,1.132-2.159,1.175a16.031,16.031,0,0,1-7.916-2.53c-.986-.7-.65-1.863-.27-2.642" transform="translate(-122.44 -401.854)" fill="#d5155f" fill-rule="evenodd"/>
    <path id="Path_205132" data-name="Path 205132" d="M1381.778,933.857v.005l.014.48a2,2,0,0,1-.887,1.663h-21.885q-.029-.079-.057-.171c-.063-.211-.218-1.31-.294-1.919Z" transform="translate(-105.948 -414.812)" fill="#140505" fill-rule="evenodd"/>
    <path id="Path_205133" data-name="Path 205133" d="M1336.5,641.527l2.579,39.09-2.507,47.122a25.025,25.025,0,0,1-5.694.51c-2.626-.152-2.147-.456-2.147-.456l-6.146-43.922s-1.39-10-4.642-17.8c-2.348-5.629-5.229-7.251-4.8-13.792.441-6.773-.129-12.023.8-14.364s5.585-1.4,5.585-1.4Z" transform="translate(-75.916 -218.733)" fill="#6d2c5f" fill-rule="evenodd"/>
    <path id="Path_205134" data-name="Path 205134" d="M1336.874,671.557l.27,4.686a71.9,71.9,0,0,1-23.848,3.044,13.26,13.26,0,0,1-.175-3.79c.082-1.266.13-2.479.157-3.629,5.035-.042,9.276-.091,9.978-.14,1.556-.109,10.587-.157,13.618-.17" transform="translate(-75.894 -241.948)" fill="#12143c" fill-rule="evenodd"/>
    <path id="Path_205135" data-name="Path 205135" d="M1337.542,745.458l-1.376-9.836a94.587,94.587,0,0,0-2.463-11.442h0l1.3-9.321,2.7,23.376Z" transform="translate(-89.494 -270.486)" fill="#12143c" fill-rule="evenodd"/>
    <path id="Path_205136" data-name="Path 205136" d="M1365.941,892.453l.04,1.65a29.35,29.35,0,0,1-8.3-.024l-.207-1.711c2.453.6,5.172.421,8.47.084" transform="translate(-105.158 -387.47)" fill="#984886" fill-rule="evenodd"/>
    <path id="Path_205137" data-name="Path 205137" d="M1286.572,892.436l-.333,1.687a32.1,32.1,0,0,1-8.682-.041l.011-1.712c2.453.6,5.705.4,9,.066" transform="translate(-52.492 -387.471)" fill="#984886" fill-rule="evenodd"/>
    <path id="Path_205138" data-name="Path 205138" d="M1345.256,523.806c3.454,7.819,6.094,15.472,16.219,17.1,7.174.283,20.126-4.238,19.184-6.723-1.024-2.7,3.686-4.61-.438-4.58-5.479-.08-16.473,1.041-17.708.94-1.169-.1-7.526-16.583-16.606-19.976-.847-.56-3.1,9.45-.651,13.237" transform="translate(-96.377 -135.837)" fill="#f79f2d" fill-rule="evenodd"/>
    <path id="Path_205139" data-name="Path 205139" d="M1461.509,568.652a7.774,7.774,0,0,1-.574,1.28c-1.131,1.5-4.147,3.752-10.621,2.728-.306-.049-1.146.011-1.477-.047a7.414,7.414,0,0,1,.416-4.369c2.372.278,13.306-.851,12.256.408" transform="translate(-165.266 -173.729)" fill="#f7aaac" fill-rule="evenodd"/>
    <path id="Path_205140" data-name="Path 205140" d="M1359.341,560.774c2.414,3.769,5.97,7.828,12.148,8.822,4.05.16,8.516-.9,13.3-2.562-4.744-.811-8.815,1.291-13.389-.091-4.187-1.265-11.471-12.865-11.471-12.865s.149,5.092-.588,6.7" transform="translate(-106.39 -164.525)" fill="#f1800e" fill-rule="evenodd"/>
    <path id="Path_205141" data-name="Path 205141" d="M1263.247,536.952c1.225,7.721,2.542,20.206,1.375,29.779,15.768,2.9,28.619,1.279,38.09-1.616-1-11.748-3.7-48.245-12.162-57.637-10.419-3.051-22.1-1.737-27.819,3.428a16.19,16.19,0,0,0-2.581,3.066V542.4a45.653,45.653,0,0,0,3.1-5.445" transform="translate(-41.021 -132.746)" fill="#f79f2d" fill-rule="evenodd"/>
    <path id="Path_205142" data-name="Path 205142" d="M1304.73,505.511c-3.6-.638-7.927-1.338-13.548.729,1.317,7.076,5.742,7.952,9.122,7.769,4.574-.248,6.32-4.378,4.425-8.5" transform="translate(-61.472 -132.09)" fill="#f1800e"/>
    <path id="Path_205143" data-name="Path 205143" d="M1279.853,633.4s13.891.872,16.42.436a8.1,8.1,0,0,0,3.4-1.134,14.525,14.525,0,0,0,5.784.25c1.236-.236,4.151-1.91,2.126-2.78l-5.686-2.442-12.735-.611-7.676.393-2.617,2.442Z" transform="translate(-53.359 -212.662)" fill="#f1800e" fill-rule="evenodd"/>
    <path id="Path_205144" data-name="Path 205144" d="M1273.214,564.209s.741,9.282,1.569,12.248c1.139,4.078,12.487,4.294,14.741,8.766l-20.345,2.355s-4.1-7.109-3.707-8.984,7.742-14.384,7.742-14.384" transform="translate(-44.511 -171.202)" fill="#f1800e" fill-rule="evenodd"/>
    <path id="Path_205145" data-name="Path 205145" d="M1272.26,614.573c14.451,2.4,26.371,1,35.393-1.594-2.034.266-5.006.674-9.506.956-10.82.679-17.023-1.258-22.17-9.731-2.061-3.392-2.987-19.89-4.134-26.19a40.3,40.3,0,0,1-2.609,6.492c1.14,7.85,2.431,21.118,1.375,29.779q.828.152,1.651.289Z" transform="translate(-47.006 -180.3)" fill="#f1800e" fill-rule="evenodd"/>
    <path id="Path_205146" data-name="Path 205146" d="M1302.166,454.234a9.842,9.842,0,0,1-4.061,4.723l.173,3.087c3.7,6.252-8.706,9.038-9.144.2l.634-.763-.018-4.378c-.262,0-2.206-1.016-2.78-1.168a2.942,2.942,0,0,1-1.545-2.365c-.1-1.15,1.7-.844,1.7-.844-2.268-2.872-4.8-5.192-1.734-7.97s10.288-4.6,10.288-4.6l4.323-1.683c-.5,1.532.069,6.19,1.312,9.3,1.114,2.787,2.181,3.557.854,6.465" transform="translate(-56.718 -88.339)" fill="#f7aaac" fill-rule="evenodd"/>
    <path id="Path_205147" data-name="Path 205147" d="M1307.045,494.674c1.53,2.411,3.3,4.9,6.441,4.409l-.173-3.087c-1.394.278-2.77.219-6.267-1.322" transform="translate(-71.926 -125.377)" fill="#d76f75" fill-rule="evenodd"/>
    <path id="Path_205148" data-name="Path 205148" d="M1295.02,442.3c-3.528,1.978-7.751-.053-9.753,2.492-.992,1.261-.821,3.018.443,5.695.372.789.852,1.362-.526.786-.632-.264-1.671-.628-2.009-.333a1.61,1.61,0,0,0,.324,2.367c.284.18.819.444.819.444a8.528,8.528,0,0,1-7.115-8.542c-.285-15.788,20.683-11.159,20.785-8.428a5.553,5.553,0,0,1-2.131,4.871,5.4,5.4,0,0,1-.836.648" transform="translate(-52.257 -85.375)" fill="#0f4884" fill-rule="evenodd"/>
    <path id="Path_205149" data-name="Path 205149" d="M1282.349,913.082h3.252a.809.809,0,0,1,.806.807v3.227a.809.809,0,0,1-.806.807h-3.252a.809.809,0,0,1-.807-.807v-3.227a.809.809,0,0,1,.807-.807" transform="translate(-55.118 -401.121)" fill="#d5155f" fill-rule="evenodd"/>
    <path id="Path_205150" data-name="Path 205150" d="M1261.673,534.142c-2.613-4.637-7.115-9.514-9.613-4.2-4.77,10.153-2.877,29.127,1.12,33.1,4.07,3.965,23.629,4.731,25.486,3.442,2.188-1.518,3.852-4.23.308-6.05-2.209-1.337-4.875-1.728-8.645-2.355-5.845-.972-7.966-2.024-8.53-7.2-.626-5.74,2.3-12.438-.126-16.746" transform="translate(-33.829 -147.094)" fill="#f79f2d"/>
    <path id="Path_205151" data-name="Path 205151" d="M1337.86,618.727c.678-.612,3.4-3.008,4.256-3.117.438-.057.418.1.42.338a1.671,1.671,0,0,1-.4.872c-.448.485-.755,1.643-1.04,1.873,3.007,2.274,8.05,1.16,7.856,3.141-.257.308-2.293,1.46-2.739,1.9-1.418,1.383-2.265,1.912-9.583.273-.346-.077-1.311-.1-1.686-.188a6.527,6.527,0,0,1,.84-4.314Z" transform="translate(-90.255 -205.069)" fill="#f8bdbe" fill-rule="evenodd"/>
    <path id="Path_205152" data-name="Path 205152" d="M1543.353,518.226c3.438,7.782,4.668,24.421,14.451,31.719,7.859,3.164,10.584,8.638,15.563,4.277,2.164-1.895,2.269-3.823,1.4-4.586-3.911-3.081-14.013-11.821-14.83-12.744-2.363-2.667-7.126-29.291-17.742-32.991-.843-.557-1.286,10.556,1.155,14.325" transform="translate(-226.459 -131.444)" fill="#5cbdff" fill-rule="evenodd"/>
    <path id="Path_205153" data-name="Path 205153" d="M1558.763,557.24c2.4,3.752.964,18.326,10.544,24.2,3.521,1.52,9.955,6.645,15.232,5l-.421-.124s-9.489-4.546-14.085-7.949-10.685-27.8-10.685-27.8.148,5.068-.585,6.666" transform="translate(-237.816 -162.217)" fill="#3bb0ff" fill-rule="evenodd"/>
    <path id="Path_205154" data-name="Path 205154" d="M1477.611,902.7l.6-6.373-6.394.154.061,7.3Z" transform="translate(-180.518 -390.077)" fill="#3c8ac9" fill-rule="evenodd"/>
    <path id="Path_205155" data-name="Path 205155" d="M1470.924,913.437c1.807,3.247,4.752,6.352,2.453,9.11h-11.705c-.02-.053-.039-.11-.057-.171a1.9,1.9,0,0,1-.295-1.919c.679-2.568,2.672-6.514,3.357-6.717,1.359-.4,3.287.732,6.247-.3" transform="translate(-173.516 -401.355)" fill="#031542" fill-rule="evenodd"/>
    <path id="Path_205156" data-name="Path 205156" d="M1474.047,933.857v.005a2.143,2.143,0,0,1-.873,2.143h-11.705c-.6-.351-.762-.592-.351-2.09Z" transform="translate(-173.314 -414.812)" fill="#187bd8" fill-rule="evenodd"/>
    <path id="Path_205157" data-name="Path 205157" d="M1491.686,642.748l-6.851,27.825-3.5,16.565L1475.72,727.7a40.716,40.716,0,0,1-6.413.38,35.9,35.9,0,0,1-5.878-1.013c-.058-11.914,1.571-27.46,1.47-41.861-.089-12.664-.416-23.924-.464-33.529-.021-4.157,4.7-15.915,4.644-15.765Z" transform="translate(-174.987 -218.458)" fill="#0f4884" fill-rule="evenodd"/>
    <path id="Path_205158" data-name="Path 205158" d="M1492.3,671.833l-1.756,7.133c-8.987,1.12-18.374.353-24.144-1.216q-.011-1.215-.017-2.4a15.124,15.124,0,0,1,.473-3.215c8.147-.047,21.454-.138,22.746-.228.428-.03,1.421-.055,2.7-.076" transform="translate(-176.933 -242.13)" fill="#12143c" fill-rule="evenodd"/>
    <path id="Path_205159" data-name="Path 205159" d="M1559.283,902.276l-.024-6.591-6.394.154.688,7.515Z" transform="translate(-233.928 -389.655)" fill="#3c8ac9" fill-rule="evenodd"/>
    <path id="Path_205160" data-name="Path 205160" d="M1557.692,910.878s10.039,4.127,12.855,5.507c2.188,1.072,3.426,3.327,1.63,4.476h-21.885c-.019-.053-.038-.11-.057-.171-.325-1.082-1.176-8.808,1.1-8.636a9.761,9.761,0,0,0,6.355-1.176" transform="translate(-231.915 -399.668)" fill="#031542" fill-rule="evenodd"/>
    <path id="Path_205161" data-name="Path 205161" d="M1573.1,933.857v.005l.015.48a2,2,0,0,1-.892,1.663H1550.24c-.019-.053-.039-.11-.057-.171-.064-.211-.219-1.31-.3-1.919Z" transform="translate(-231.967 -414.812)" fill="#187bd8" fill-rule="evenodd"/>
    <path id="Path_205162" data-name="Path 205162" d="M1528.032,641.527l2.274,39.482.16,46.8a69.371,69.371,0,0,1-8.057.438,11.628,11.628,0,0,1-4.073-.856l-4.22-43.522s-1.39-10-4.642-17.8c-2.348-5.629-5.229-7.251-4.8-13.792.441-6.773-.129-12.023.8-14.364s5.586-1.4,5.586-1.4Z" transform="translate(-202.14 -218.733)" fill="#0f4884" fill-rule="evenodd"/>
    <path id="Path_205163" data-name="Path 205163" d="M1528.4,671.557l.27,4.686a71.9,71.9,0,0,1-23.848,3.044,13.251,13.251,0,0,1-.175-3.79c.082-1.266.129-2.479.157-3.629,5.035-.042,9.276-.091,9.978-.14,1.556-.109,10.587-.157,13.618-.17" transform="translate(-202.119 -241.948)" fill="#12143c" fill-rule="evenodd"/>
    <path id="Path_205164" data-name="Path 205164" d="M1529.071,745.458l-1.376-9.836a94.6,94.6,0,0,0-2.463-11.442h0l1.3-9.321,2.7,23.376Z" transform="translate(-215.718 -270.486)" fill="#12143c" fill-rule="evenodd"/>
    <path id="Path_205165" data-name="Path 205165" d="M1428.167,527.744c1.112,7.932,2.326,23.206,1.7,34.554,15.306,2.629,28.94,2.1,38.081-.815.706-10.449.919-58.794-13-62.091-5.031-1.41-8.939-1.283-14.274-.739-31.274,3.188-30.543,60.781-26.671,59.6,2.545-.778,5.942,3.27,6.238-1.256.821-6.826,4.221-23.275,7.93-29.251" transform="translate(-141.172 -127.748)" fill="#76c5fb" fill-rule="evenodd"/>
    <path id="Path_205166" data-name="Path 205166" d="M1459.189,576.264c1.192,7.591,1.983,25.028,1.7,34.554,13.956,2.4,26.9,2.4,36.515-.392-6.152.713-29.654,1.085-31.488-4.812-1.049-3.371-1.709-23.877-3.62-33.719a16.621,16.621,0,0,0-3.107,4.369" transform="translate(-172.194 -176.268)" fill="#3bb0ff" fill-rule="evenodd"/>
    <path id="Path_205167" data-name="Path 205167" d="M1493.744,435.537c8.245-8.454,16.531,1.227,13.967,5.169-.171.262-1.136-2.667-1.391-2.474,0,0-1.772-.926-6.458-.993s-5.018-1.794-6.117-1.7" transform="translate(-194.966 -84.188)" fill="#fff" fill-rule="evenodd"/>
    <path id="Path_205168" data-name="Path 205168" d="M1502.919,447.178c-1.1,2.182-2.277,3.776-3.989,4.6l.059,3.171.462.392c1.807,1.936-.533,3.771-2.59,3.649-8.091.4-5.554-2.415-6.9-4.655l.784-4.709a7.335,7.335,0,0,1-3.234-1.834c-.581-.179-.991-1.1-1.049-2.279s1.457-.541,1.457-.541c-5.654-7.737-2.831-13.709,6.525-13.575,6.423.092,8.136,8.175,8.164,8.148.128.446.264.872.406,1.269,1.035,2.9,1.383,3.438-.089,6.368" transform="translate(-189.209 -83.671)" fill="#f7aaac" fill-rule="evenodd"/>
    <path id="Path_205169" data-name="Path 205169" d="M1484.759,436.693c.947-4.893,7.861-6.263,11.67-4.992-3.68-.111-8.437,1.837-9.894,4.894Z" transform="translate(-189.045 -83.581)" fill="#ea8287" fill-rule="evenodd"/>
    <path id="Path_205170" data-name="Path 205170" d="M1507.148,486.492s2.543,4.361,4.632,4.756,1.021.1,1.8.011l-.059-3.171c-1.439.232-2.848.118-6.373-1.6" transform="translate(-203.8 -119.985)" fill="#ea8287" fill-rule="evenodd"/>
    <path id="Path_205171" data-name="Path 205171" d="M1486.883,443.415c2.393.857,2.242,11.286,1.078,10.746-.646-.3-1.71-.717-2.073-.423a1.673,1.673,0,0,0,.244,2.469c.288.2.833.492.833.492-6.539-1.88-8.13-16.165-.082-13.283" transform="translate(-186.855 -91.343)" fill="#fff" fill-rule="evenodd"/>
    <path id="Path_205172" data-name="Path 205172" d="M1486.872,465.321a1,1,0,0,0-.8.043,1.673,1.673,0,0,0,.245,2.469c.288.2.833.492.833.492-3.026-.87-4.991-4.4-5.432-7.651a9.037,9.037,0,0,0,4.136,4.1l1.018.545" transform="translate(-187.041 -102.97)" fill="#ddeaf8" fill-rule="evenodd"/>
    <path id="Path_205173" data-name="Path 205173" d="M1502.815,502.072c-.96,1.117-2.651,2.9-3.611,4.016a19.674,19.674,0,0,1-5.161-7.852c.467-.472,1.4-1,1.87-1.468,1.063,2.057,3.028,3.9,6.9,5.3" transform="translate(-195.164 -126.757)" fill="#e0ecf8" fill-rule="evenodd"/>
    <path id="Path_205174" data-name="Path 205174" d="M1519.768,503.348c1.08.97,2.848,2.162,3.928,3.132a16,16,0,0,0-.578-7.135l-1.187-.641a8.457,8.457,0,0,1-2.163,4.645" transform="translate(-212.117 -128.032)" fill="#e0ecf8" fill-rule="evenodd"/>
    <path id="Path_205175" data-name="Path 205175" d="M1474.786,912.506h2.711a.679.679,0,0,1,.677.677v3.486a.679.679,0,0,1-.677.677h-2.711a.679.679,0,0,1-.677-.677v-3.486a.679.679,0,0,1,.677-.677" transform="translate(-182.026 -400.741)" fill="#0f4884" fill-rule="evenodd"/>
    <path id="Path_205176" data-name="Path 205176" d="M1579.8,913.962c3.044,1.265,8.145,3.408,10.24,4.41a3,3,0,0,1-2.14.676s-5.942-1.854-7.632-3.053a1.369,1.369,0,0,1-.467-2.034" transform="translate(-251.503 -401.701)" fill="#0f4884" fill-rule="evenodd"/>
    <path id="Path_205177" data-name="Path 205177" d="M1480.531,562.107l8.809-.776.243,1.753-8.808.779Z" transform="translate(-186.258 -169.306)" fill="#94d9f7" fill-rule="evenodd"/>
    <path id="Path_205178" data-name="Path 205178" d="M1411.576,658.45c-.44,3.118-.545,5.168,1.821,6.532,2.233,1.288,5.56.34,6.043-.8a12.594,12.594,0,0,0,.633-3.109s-.142-1.22-2.005-2.271-5.6-1.157-6.492-.354" transform="translate(-140.651 -232.962)" fill="#e0ecf8" fill-rule="evenodd"/>
    <path id="Path_205179" data-name="Path 205179" d="M1418.649,702.4V779h-2.027V702.4c0-6.112-8.819-6.693-8.819,0v1.073c-.512.8-1.551,1.181-2.028,0V702.4c0-9.374,12.875-8.778,12.875,0" transform="translate(-136.991 -257.79)" fill="#8b3202"/>
    <path id="Path_205180" data-name="Path 205180" d="M1418.28,671.98l-.154,2.2c.623,1.4.938,2.956,1.677,4.407a7.774,7.774,0,0,0,1.111,1.781c.547.557-.387.849-.852.695a6.05,6.05,0,0,1-2.094-1.528c-.308.325-.277,2.007-.4,2.007-3.559,2.4-5.5-.155-5.513-1.667-.015-2.219,1.244-4.363.9-8.255.052-1.883,4.594-.562,5.323.365" transform="translate(-141.132 -241.356)" fill="#f7aaac" fill-rule="evenodd"/>
    <path id="Path_205181" data-name="Path 205181" d="M1897.222,438.879s-6.773.591-9.375-1.351c-4.493-3.361-2.817-14.311,10.581-11.375,10.66,2.337,4.883,15.372,18.641,19.142,7.3,2,10.572,9.09,6.017,18.794-.024.019-.467-3.475-3.279-3.626,3.419,6.039-.428,11.733-1.308,12.643-.4-6.24-5.62-16.93-15.924-19.658-5.107-3.2,2.123-14-5.354-14.569" transform="translate(-453.219 -79.893)" fill="#555556" fill-rule="evenodd"/>
    <path id="Path_205182" data-name="Path 205182" d="M1821.276,526.038c-3.5,7.674-5.505,13.745-13.618,17.131-9.108,1.625-18.715-15.553-18.01-18.179.447-1.663,3.828-2.842,4.927-1.742,1.195,1.2,10.354,9.414,10.519,9.4,1.155-.081,10.616-16.1,17.642-17.954.842-.542,1,7.635-1.46,11.342" transform="translate(-389.952 -138.555)" fill="#2b5a8c" fill-rule="evenodd"/>
    <path id="Path_205183" data-name="Path 205183" d="M1887.532,460.012a18.666,18.666,0,0,0-.1,6.135,17.416,17.416,0,0,1-2.183,10.507c-1.725,3.278.079,9.927.768,10.321s9.853,4.028,11.854,4.26,13.244-8.6,13.244-8.6l.895-9.544Z" transform="translate(-452.5 -102.533)" fill="#555556" fill-rule="evenodd"/>
    <path id="Path_205184" data-name="Path 205184" d="M1863.355,615.162c-3.636,12.069-3.025,27.968-1.139,47.8,13.652,3.506,32.4,2.913,37.423-1.328-1.653-28-2.423-43.794-7.772-48.369-11.273-26.344-26.859-4.79-28.511,1.9" transform="translate(-436.809 -195.122)" fill="#f66161" fill-rule="evenodd"/>
    <path id="Path_205185" data-name="Path 205185" d="M1896.365,511.983c2.792,11.389-4.89,14.374-5.031,32.336-.076,9.7,4.2,14.906,5.316,23.3-7.349,3.383-13.524,2.845-21.339,2.411l-4.071-6.919c-1.988,3.995-3.9,3.326-5.884,7.321-2.307-.342-4.658.312-7.322-.878,1.479-7.148,3.762-15.115,4.1-22.328a148.966,148.966,0,0,0-.7-18.928,26.791,26.791,0,0,1,4.527-17.653c2.833-4.386,24.971-6.748,30.4,1.343" transform="translate(-435.045 -133.253)" fill="#2b5a8c" fill-rule="evenodd"/>
    <path id="Path_205186" data-name="Path 205186" d="M1890.775,508.054a23.613,23.613,0,0,0-3.029,10.833c-.2,6.339,1.089,20.1,1.089,20.1l-5.894-14.39,2.5-1.741-2.964-1.181c.423-2.99,3.2-12.338,6.829-13.475Z" transform="translate(-451.154 -134.195)" fill="#051847" fill-rule="evenodd"/>
    <path id="Path_205187" data-name="Path 205187" d="M1909.975,506.4s1.581,5.11-3.526,15.464-7.574,19.1-7.574,20.264-2.321-19.821-1.964-25.714a17.918,17.918,0,0,1,3.372-9.578c3.138-.69,5.037-1.286,9.693-.436" transform="translate(-460.641 -132.828)" fill="#f66161" fill-rule="evenodd"/>
    <path id="Path_205188" data-name="Path 205188" d="M1931.2,600.846c-.1,1.636-.386,3.809-.313,5.73l-2.5,1.114-10.338.142,12.744-6.891Z" transform="translate(-474.599 -195.347)" fill="#051847" fill-rule="evenodd"/>
    <path id="Path_205189" data-name="Path 205189" d="M1895.858,473.243l.491,3.6-.44.434c-.858,1.68-1.122,6.463,3.141,6.442,4.836-.114,6.6-4.238,6.854-7.438-4.789-3.328,2.2-13.9-5.193-14.46,0,0-6.773.591-9.374-1.351h0c-1.327,4.793.468,11.075,4.521,12.773" transform="translate(-456.708 -102.835)" fill="#f6c2c4" fill-rule="evenodd"/>
    <path id="Path_205190" data-name="Path 205190" d="M1911.793,491.784c-1.312,2.682-2.574,5.7-5.891,5.548l-.471-3.452c1.48.129,2.9-.092,6.362-2.1" transform="translate(-466.281 -123.472)" fill="#ea8287" fill-rule="evenodd"/>
    <path id="Path_205191" data-name="Path 205191" d="M1933.066,514.246c12.042,3.84,15.833,25.34,14.13,32.644-1.45,5.93-21.376,9.486-26.486,7.813-2.408-.789-2.6-2.175.721-4.823,5.023-2.8,15.461-4.616,15.628-6.072.169-4.1-1.772-9.082-3.835-12.111-2.981-4.375-6.959-17.889-.157-17.451" transform="translate(-475.169 -138.268)" fill="#2b5a8c" fill-rule="evenodd"/>
    <path id="Path_205192" data-name="Path 205192" d="M1900.65,617.637l-2.5.7-4.161-.905c-.459-.23-2.719-1.583-2-.282.134.243,1.334,2.4,1.33,2.407-.6,1-6.183,2.189-6.242,2.279-.841,1.26,2.85.647,3.481.572a23.144,23.144,0,0,0-2.335,1.1,1.267,1.267,0,0,0,1.177.407,15.666,15.666,0,0,1,2.435-.441c.17.133-2.372,1.091-2.2,1.2a1.113,1.113,0,0,0,.919.181,21.537,21.537,0,0,1,2.377-.553c.216.1-1.645.675-1.439.746.16.056.191.35.354.336,4.408-.4,3.885-2.426,9.013-3.417,2.524-1.273.743-3.86-.2-4.332" transform="translate(-454.102 -205.726)" fill="#f6c2c4" fill-rule="evenodd"/>
    <path id="Path_205193" data-name="Path 205193" d="M1780.311,521.894l-1.391-1.4-1.243-4.073c-.024-.512-.769-3.556-1.3-2.378-.373.828-.617,2.92-.706,2.917-1.167-.038-5.1-4.411-5.212-4.42-1.51-.118.828,2.8,1.2,3.317a23.2,23.2,0,0,0-2.1-1.5,1.269,1.269,0,0,0,.22,1.226c.523.682,1.607,1.7,1.574,1.91s-2.111-1.537-2.127-1.336a1.114,1.114,0,0,0,.291.89c.56.692,1.623,1.574,1.643,1.8s-1.392-1.105-1.355-.891c.029.167-.212.338-.119.473,2.5,3.651,4.479,2.569,7.232,6.827,1.531,2.368,3.44-2.314,3.391-3.37" transform="translate(-376.513 -137.152)" fill="#f6c2c4" fill-rule="evenodd"/>
    <path id="Path_205194" data-name="Path 205194" d="M1915.632,506.975s1.945-.179,2.646.79c1.811,2.5,2.387,13.685,1.722,13.82l-4.661.946,2.875,2.447-12.488,13.712c2.59-11.159,10.548-20.875,9.906-31.715" transform="translate(-466.475 -133.475)" fill="#051847" fill-rule="evenodd"/>
    <rect id="Rectangle_168873" data-name="Rectangle 168873" width="164.787" height="5.244" transform="translate(1364.223 422.377)" fill="#b1cbef"/>
    <rect id="Rectangle_168874" data-name="Rectangle 168874" width="144.48" height="6.805" transform="translate(1374.377 488.854)" fill="#86a7d5"/>
    <rect id="Rectangle_168875" data-name="Rectangle 168875" width="153.801" height="62.051" transform="translate(1369.716 427.62)" fill="#c9dbf5"/>
    <rect id="Rectangle_168876" data-name="Rectangle 168876" width="153.801" height="26.35" transform="translate(1369.716 494.842)" fill="#c9dbf5"/>
    <rect id="Rectangle_168877" data-name="Rectangle 168877" width="153.801" height="3.205" transform="translate(1369.716 427.62)" fill="#86a7d5"/>
    <rect id="Rectangle_168878" data-name="Rectangle 168878" width="115.371" height="20.099" transform="translate(1388.877 450.023)" fill="#a1c1ea"/>
    <path id="Path_205195" data-name="Path 205195" d="M1619.773,641.881c2.774.7,4.907.4,5.276-.489,1.218-2.948,3.409-2.093,2.5-4.859-.677-.655-1.533-1.43-2.5-2.275a6.365,6.365,0,0,0-5.28,7.623" transform="translate(-277.913 -217.367)" fill="#e0ecf8" fill-rule="evenodd"/>
    <path id="Path_205196" data-name="Path 205196" d="M1635.815,642.757c.875-.248,4.356-1.193,5.172-.913.416.142.329.273.226.486a1.671,1.671,0,0,1-.74.6c-.613.235-1.4,1.136-1.752,1.215,1.687,3.352,6.68,4.573,5.636,6.257-.364.161-2.69.3-3.279.488-1.875.612-2.864.713-8.679-3.967-.275-.221-1.127-.665-1.423-.909a6.5,6.5,0,0,1,2.646-3.483Z" transform="translate(-285.407 -222.333)" fill="#f7aaac" fill-rule="evenodd"/>
    <path id="Path_205197" data-name="Path 205197" d="M1624.937,334.282a37.86,37.86,0,0,0,2.813,15.922,40.179,40.179,0,0,0,14.363,18.245,40.175,40.175,0,0,0,14.363-18.245,37.85,37.85,0,0,0,2.813-15.93,51.726,51.726,0,0,1-8.685-2.321,60.994,60.994,0,0,1-8.49-3.987,61.055,61.055,0,0,1-8.928,4.162,49.116,49.116,0,0,1-8.248,2.154m17.074,41.96c-.574-.367-3.749-2.262-4.3-2.66-12.674-9.051-20.682-25.779-19.434-41.277l.308-3.82,3.785-.6a48.163,48.163,0,0,0,17.357-6.341l2.39-1.348,2.39,1.348a49.354,49.354,0,0,0,17.4,6.348l3.744.624.3,3.784c1.3,16.178-7.482,33.7-21.131,42.424Z" transform="translate(-276.951 -10.394)" fill="#76c5fb" fill-rule="evenodd"/>
    <path id="Path_205198" data-name="Path 205198" d="M1666.307,364.542h5.346v7.393h7.394v5.346h-7.394v7.393h-5.346v-7.393h-7.393v-5.346h7.393Z" transform="translate(-303.818 -39.616)" fill="#76c5fb" fill-rule="evenodd"/>
    <path id="Path_205199" data-name="Path 205199" d="M2064.523,552.849h-36.149c-1.4,0-1.667,1.186-1.93,2.578l-4.6,24.423c-.189,1.184-.7,3.185,2.428,3.194l37.031.027,5.414-28c.232-1.2-.987-2.22-2.194-2.22" transform="translate(-542.901 -163.716)" fill="#91aed8" fill-rule="evenodd"/>
    <path id="Path_205200" data-name="Path 205200" d="M2068.55,552.849h-37.021c-1.4,0-1.667,1.185-1.929,2.578l-4.6,24.423h0l-.254,1.452a1.684,1.684,0,0,0,1.769,1.769h36.722a1.882,1.882,0,0,0,1.769-1.769l.215-1.452h.047l4.6-24.781c.223-1.2-.115-2.22-1.321-2.22" transform="translate(-544.903 -163.716)" fill="#b1cbef" fill-rule="evenodd"/>
    <path id="Path_205201" data-name="Path 205201" d="M2025.631,632.314a1.933,1.933,0,0,0,1.481.71h36.722a1.6,1.6,0,0,0,1.128-.456l-5.388-3.921-24.038.285Z" transform="translate(-545.496 -213.67)" fill="#86a7d5" fill-rule="evenodd"/>
    <path id="Path_205202" data-name="Path 205202" d="M2130.567,583.082a2.271,2.271,0,0,0,.641-1.313l.215-1.452h.047l4.6-24.781a1.934,1.934,0,0,0-.477-1.978l-7.14,6.953-3.275,18.65Z" transform="translate(-611.102 -164.183)" fill="#95b4df" fill-rule="evenodd"/>
    <path id="Path_205203" data-name="Path 205203" d="M2031,553.052c-.945.272-1.172,1.314-1.4,2.508l-4.6,24.423h0l-.253,1.452a1.323,1.323,0,0,0,.288,1.059l9.905-3.381,3.18-18.935Z" transform="translate(-544.903 -163.85)" fill="#ccdef6" fill-rule="evenodd"/>
    <path id="Path_205204" data-name="Path 205204" d="M2080.662,552.849H2043.64a1.907,1.907,0,0,0-.532.069l7.126,7.126h24.132l7.316-6.794a1.3,1.3,0,0,0-1.02-.4" transform="translate(-557.014 -163.716)" fill="#dfebfb" fill-rule="evenodd"/>
    <path id="Path_205205" data-name="Path 205205" d="M2089.613,590.7h-11.1c-.42,0-.5.355-.578.773l-1.379,7.321h0l-.077.435a.505.505,0,0,0,.531.53h11.008a.565.565,0,0,0,.531-.53l.063-.435h.015l1.379-7.428c.067-.36-.035-.666-.4-.666" transform="translate(-579.006 -188.663)" fill="#91aed8" fill-rule="evenodd"/>
    <path id="Path_205206" data-name="Path 205206" d="M2091.894,596.067h-6.308l2.275,18.508h6.308Z" transform="translate(-585.009 -192.198)" fill="#91aed8" fill-rule="evenodd"/>
    <path id="Path_205207" data-name="Path 205207" d="M1882.7,746.57l-.389,2.273h3.565l-.358,2.008h-3.565l-.436,2.444h4.032l-.374,2.1h-6.694l1.93-10.928h6.694l-.373,2.1Zm-14.985,3.347a6.787,6.787,0,0,1,1.206-2.888,6.518,6.518,0,0,1,2.3-1.977,6.351,6.351,0,0,1,2.958-.708,4.7,4.7,0,0,1,3.153,1.027,3.972,3.972,0,0,1,1.362,2.8h-2.927a1.784,1.784,0,0,0-.74-1.019,2.355,2.355,0,0,0-1.315-.351,3.012,3.012,0,0,0-2.133.848,3.945,3.945,0,0,0-1.152,2.265,4.461,4.461,0,0,0-.077.763,2.4,2.4,0,0,0,.607,1.728,2.188,2.188,0,0,0,1.666.638,2.95,2.95,0,0,0,1.424-.358,3.141,3.141,0,0,0,1.113-1.028h2.927a6.233,6.233,0,0,1-2.351,2.795,6.328,6.328,0,0,1-3.518,1.019,5.2,5.2,0,0,1-2.444-.545,3.835,3.835,0,0,1-1.6-1.541,4.655,4.655,0,0,1-.56-2.32A6.018,6.018,0,0,1,1867.714,749.916Zm-1.893,5.48h-2.662l-3.254-6.741-1.2,6.741h-2.662l1.93-10.928h2.662l3.254,6.772,1.2-6.772h2.662Zm-13.849-3.954-.638-4.048-2.086,4.048Zm.311,2.024H1848.2l-1,1.931h-2.786l5.885-10.928h3.083l2.024,10.928h-2.818Zm-9.646-5.448q.031-.25.031-.327a.957.957,0,0,0-.319-.771,1.415,1.415,0,0,0-.942-.273h-1.65l-.483,2.74h1.65a1.753,1.753,0,0,0,1.16-.358A1.675,1.675,0,0,0,1842.638,748.018Zm-.685-3.549a3.832,3.832,0,0,1,2.584.77,2.525,2.525,0,0,1,.888,2,3.409,3.409,0,0,1-.062.669,3.858,3.858,0,0,1-.95,1.946,4.156,4.156,0,0,1-2.039,1.214l1.759,4.328h-3.005l-1.541-4.125h-.638l-.732,4.125h-2.662l1.931-10.928Zm-12.261,0-1.152,6.522a4.37,4.37,0,0,0-.062.561,1.434,1.434,0,0,0,.4,1.1,1.687,1.687,0,0,0,1.2.382,2.2,2.2,0,0,0,1.525-.53,2.533,2.533,0,0,0,.763-1.51l1.152-6.522h2.662l-1.152,6.522a5.647,5.647,0,0,1-1.051,2.5,4.88,4.88,0,0,1-1.914,1.518,6.011,6.011,0,0,1-2.452.5,4.14,4.14,0,0,1-2.764-.887,3.175,3.175,0,0,1-1.051-2.569,6.443,6.443,0,0,1,.094-1.059l1.137-6.522Zm-9.319,11.037a4.97,4.97,0,0,1-2.888-.771,2.5,2.5,0,0,1-1.113-2.187,4.118,4.118,0,0,1,.031-.42h2.771a1.155,1.155,0,0,0,.281.934,1.315,1.315,0,0,0,1,.343,1.553,1.553,0,0,0,.957-.265.882.882,0,0,0,.351-.747.948.948,0,0,0-.444-.809,7.632,7.632,0,0,0-1.377-.7,12.006,12.006,0,0,1-1.471-.708,3.289,3.289,0,0,1-.989-.911,2.4,2.4,0,0,1-.42-1.448,3.139,3.139,0,0,1,.53-1.868,3.459,3.459,0,0,1,1.51-1.214,5.5,5.5,0,0,1,2.21-.42,5.309,5.309,0,0,1,1.993.351,3.019,3.019,0,0,1,1.355,1.012,2.584,2.584,0,0,1,.482,1.564,2.721,2.721,0,0,1-.015.343h-2.833a.819.819,0,0,0,.015-.187.91.91,0,0,0-.3-.709,1.2,1.2,0,0,0-.833-.272,1.443,1.443,0,0,0-.911.272.888.888,0,0,0-.35.74.948.948,0,0,0,.436.786,8.192,8.192,0,0,0,1.355.74,14.356,14.356,0,0,1,1.5.778,3.383,3.383,0,0,1,1,.958,2.5,2.5,0,0,1,.42,1.471,3.024,3.024,0,0,1-.514,1.728,3.379,3.379,0,0,1-1.479,1.191A5.526,5.526,0,0,1,1820.373,755.506Zm-5.707-.109H1812l-3.254-6.741-1.2,6.741h-2.662l1.93-10.928h2.662l3.253,6.772,1.2-6.772h2.662Zm-9.21-10.928-1.93,10.928h-2.662l1.93-10.928Z" transform="translate(-397.368 -289.896)" fill="#fff"/>
  </g>
</svg>
