<svg xmlns="http://www.w3.org/2000/svg" xmlns:xlink="http://www.w3.org/1999/xlink" width="319.291" height="270.898" viewBox="0 0 319.291 270.898">
  <defs>
    <linearGradient id="linear-gradient" y1="0.5" x2="1" y2="0.5" gradientUnits="objectBoundingBox">
      <stop offset="0" stop-color="#57b2fd"/>
      <stop offset="1" stop-color="#497bfd"/>
    </linearGradient>
    <linearGradient id="linear-gradient-4" x1="2.436" y1="0.461" x2="3.357" y2="0.461" gradientUnits="objectBoundingBox">
      <stop offset="0" stop-color="#f6a285"/>
      <stop offset="1" stop-color="#fc6b58"/>
    </linearGradient>
    <linearGradient id="linear-gradient-5" x1="0.218" y1="0.459" x2="-1.542" y2="0.449" gradientUnits="objectBoundingBox">
      <stop offset="0" stop-color="#fde0bb"/>
      <stop offset="1" stop-color="#fc6b58"/>
    </linearGradient>
  </defs>
  <g id="ob2" transform="translate(-20.356 -175.138)">
    <path id="Path_205348" data-name="Path 205348" d="M942.838,1511.245c-21.025,22.562-51.744,31.465-78.788,24.905-16.832-4.1-32.041-13.552-46.795-23.248s-29.506-19.811-45.93-25.409c-23.237-7.893-48.651-5.03-64.371,13.672-17.762,21.054-50.751,12.015-55.925-13.468-6.9-34.2,6.259-61.5,25.289-90.574,18.418-28.113,39.454-54.592,64.924-74.091,25.47-19.451,55.769-31.573,85.372-29.026,23.247,1.994,45.017,12.867,63.747,27.873,18.706,15.006,34.612,34.072,49.546,53.871,10.536,13.948,20.868,28.774,25.7,46.626C973.774,1452.6,963.862,1488.683,942.838,1511.245Z" transform="translate(-628.813 -1114.219)" fill="#ecf5ff"/>
    <g id="ob2-2" data-name="ob2" transform="translate(-311.281 -535.827)">
      <g id="Group_157840" data-name="Group 157840" transform="translate(350 730.965)">
        <g id="Group_157824" data-name="Group 157824" transform="translate(0 9.729)">
          <path id="Path_205216" data-name="Path 205216" d="M350,4176.761c0,1.876,63.248,3.392,141.273,3.392,78.043,0,141.292-1.516,141.292-3.392s-63.248-3.392-141.292-3.392C413.248,4173.369,350,4174.885,350,4176.761Z" transform="translate(-350 -3938.985)" fill="#f8f7fc"/>
          <g id="Group_157784" data-name="Group 157784" transform="translate(11.187 223.042)">
            <path id="Path_205217" data-name="Path 205217" d="M535.135,4013.418l-8.768.006-.868,9.089,7.99.764A19.347,19.347,0,0,1,535.135,4013.418Z" transform="translate(-524.24 -4013.418)" fill="#f6a285"/>
            <g id="Group_157779" data-name="Group 157779" transform="translate(0 3.336)">
              <path id="Path_205218" data-name="Path 205218" d="M516.233,4061.679c.351-.424.645-1.315,1.845-1.2s4.753,4.624,7.24,5.085c2.409.447,7.366,1.355,6.6,6.883a.6.6,0,0,1-.645.5l-22.982-2.2a.591.591,0,0,1-.531-.644l.659-6.893a1.784,1.784,0,0,1,2.732-1.288h0S514.051,4064.313,516.233,4061.679Z" transform="translate(-507.762 -4060.468)" fill="#ffd375"/>
              <path id="Path_205219" data-name="Path 205219" d="M531.957,4173.6a7.248,7.248,0,0,1-.036,1.822.6.6,0,0,1-.645.5l-22.982-2.2a.59.59,0,0,1-.531-.644l.17-1.777Z" transform="translate(-507.76 -4163.449)" fill="#ee9545"/>
              <path id="Path_205220" data-name="Path 205220" d="M554.979,4114.247a1.679,1.679,0,1,0,1.831-1.512A1.679,1.679,0,0,0,554.979,4114.247Z" transform="translate(-551.623 -4109.021)" fill="#ee9545"/>
            </g>
            <g id="Group_157783" data-name="Group 157783" transform="translate(10.095 3.46)">
              <g id="Group_157780" data-name="Group 157780">
                <path id="Path_205221" data-name="Path 205221" d="M650.5,4064.289a.427.427,0,0,1-.258-.117.435.435,0,0,1-.017-.616l1.148-1.211a.436.436,0,0,1,.633.6l-1.148,1.211A.435.435,0,0,1,650.5,4064.289Z" transform="translate(-650.11 -4062.209)" fill="#ee9545"/>
              </g>
              <g id="Group_157781" data-name="Group 157781" transform="translate(1.49 1.195)">
                <path id="Path_205222" data-name="Path 205222" d="M671.509,4081.137a.43.43,0,0,1-.258-.118.435.435,0,0,1-.017-.616l1.147-1.211a.436.436,0,0,1,.633.6L671.867,4081A.436.436,0,0,1,671.509,4081.137Z" transform="translate(-671.115 -4079.057)" fill="#ee9545"/>
              </g>
              <g id="Group_157782" data-name="Group 157782" transform="translate(2.913 2.46)">
                <path id="Path_205223" data-name="Path 205223" d="M691.586,4098.971a.425.425,0,0,1-.258-.117.435.435,0,0,1-.017-.616l1.148-1.212a.436.436,0,0,1,.632.6l-1.148,1.212A.436.436,0,0,1,691.586,4098.971Z" transform="translate(-691.192 -4096.892)" fill="#ee9545"/>
              </g>
            </g>
          </g>
          <g id="Group_157790" data-name="Group 157790" transform="translate(46.775 224.144)">
            <path id="Path_205224" data-name="Path 205224" d="M1023.784,4030.019l-.231,8.466,8.024.219a15.978,15.978,0,0,1,1.018-9.743Z" transform="translate(-1022.564 -4028.961)" fill="#f6a285"/>
            <g id="Group_157785" data-name="Group 157785" transform="translate(0 3.172)">
              <path id="Path_205225" data-name="Path 205225" d="M1017.487,4075.012c.322-.447.555-1.356,1.759-1.324s5.056,4.29,7.569,4.581c2.434.282,7.442.852,7.057,6.418a.6.6,0,0,1-.609.542l-23.078-.629a.59.59,0,0,1-.574-.606l.189-6.922a1.784,1.784,0,0,1,2.639-1.471h0S1015.489,4077.789,1017.487,4075.012Z" transform="translate(-1009.611 -4073.688)" fill="#ffd375"/>
              <path id="Path_205226" data-name="Path 205226" d="M1033.782,4194.522a7.251,7.251,0,0,1,.088,1.82.6.6,0,0,1-.609.543l-23.078-.629a.591.591,0,0,1-.574-.606l.049-1.785Z" transform="translate(-1009.609 -4185.343)" fill="#ee9545"/>
              <path id="Path_205227" data-name="Path 205227" d="M1052.548,4132.347a1.679,1.679,0,1,0,1.725-1.633A1.68,1.68,0,0,0,1052.548,4132.347Z" transform="translate(-1049.502 -4126.669)" fill="#ee9545"/>
            </g>
            <g id="Group_157789" data-name="Group 157789" transform="translate(9.533 3.192)">
              <g id="Group_157786" data-name="Group 157786">
                <path id="Path_205228" data-name="Path 205228" d="M1144.463,4076.132a.428.428,0,0,1-.265-.1.435.435,0,0,1-.059-.613l1.063-1.287a.436.436,0,0,1,.672.556l-1.063,1.287A.437.437,0,0,1,1144.463,4076.132Z" transform="translate(-1144.04 -4073.974)" fill="#ee9545"/>
              </g>
              <g id="Group_157787" data-name="Group 157787" transform="translate(1.567 1.091)">
                <path id="Path_205229" data-name="Path 205229" d="M1166.565,4091.515a.425.425,0,0,1-.266-.1.435.435,0,0,1-.059-.613l1.062-1.287a.436.436,0,0,1,.672.556l-1.062,1.286A.434.434,0,0,1,1166.565,4091.515Z" transform="translate(-1166.141 -4089.357)" fill="#ee9545"/>
              </g>
              <g id="Group_157788" data-name="Group 157788" transform="translate(3.074 2.256)">
                <path id="Path_205230" data-name="Path 205230" d="M1187.807,4107.943a.427.427,0,0,1-.265-.1.435.435,0,0,1-.059-.613l1.063-1.287a.436.436,0,0,1,.672.556l-1.063,1.287A.439.439,0,0,1,1187.807,4107.943Z" transform="translate(-1187.384 -4105.786)" fill="#ee9545"/>
              </g>
            </g>
          </g>
          <path id="Path_205231" data-name="Path 205231" d="M849.419,2541.352c-.134,9.041,2.587,19.985,5.525,28.616l.465,1.368c2.7,7.7,4.686,11.237,5.2,13.357l.017.009a15.84,15.84,0,0,1,.516,4.639c-.319,10.586-1.231,43.331-1.067,56.7.017,1.911,11.242,2.27,11.8.471,5.723-18.229,7.942-49.4,8.243-61.187.27-10.306-3.887-39.354-4.656-45.191Z" transform="translate(-813.999 -2421.572)" fill="#4c5c75"/>
          <path id="Path_205232" data-name="Path 205232" d="M933.114,2791.227l-.013-.012c-.6-2.4-2.656-5.788-5.663-14.727.067-3.115.155.1.5-14.065C928.884,2772.527,933.47,2791.575,933.114,2791.227Z" transform="translate(-886.49 -2628.094)" fill="#111d33"/>
          <path id="Path_205233" data-name="Path 205233" d="M522.576,2656.519c8.365-13.021,12.462-46.035,15.965-60.046a121.978,121.978,0,0,0,2.59-13.856,185.842,185.842,0,0,0,1.343-30.329v-.008l-20.233.938c-.05.119-9.655,6.779-6.721,29.27,2.289,17.686.826,37.67-1.394,54.848-.93,7.186-1.988,13.891-2.961,19.717C510.7,2659.875,521.035,2658.929,522.576,2656.519Z" transform="translate(-499.721 -2432.852)" fill="#4c5c75"/>
          <path id="Path_205234" data-name="Path 205234" d="M595.953,2549.619c1.059,1.257,2.324,2.461,3.933,2.513,2.091.077,3.658-1.781,5.207-3.193a15.877,15.877,0,0,1,8.933-3.976c7.876-.913,10.563,4.289,19.39,3.2a20.154,20.154,0,0,0,7.341-2.384c-.465-3.451-.783-5.637-.783-5.637l-18.71.869V2541l-20.234.938S598.087,2543.99,595.953,2549.619Z" transform="translate(-578.512 -2421.577)" fill="#111d33"/>
          <path id="Path_205235" data-name="Path 205235" d="M560.421,2581.215c-7.38,19.146,5.959,37.483-6.964,68.355-.1-.75-.2-1.487-.3-2.237,2.218-17.175,3.684-37.162,1.388-54.844-2.936-22.544,6.728-29.273,6.728-29.273l3.776-.176C567.018,2570,562.758,2575.227,560.421,2581.215Z" transform="translate(-538.751 -2442.85)" fill="#111d33"/>
          <path id="Path_205236" data-name="Path 205236" d="M1304.919,1492.333s3.075.871.533,2.841c0,0,2.65.731.381,2.643,0,0,1.707,1.3-.325,2.773-.9.665-1.51,1.209-2.216,1.723h-.009a11.767,11.767,0,0,1-2.684,1.407,2.216,2.216,0,0,0-1.368,1.568c-1.141,5.116-5.945,25.387-11.065,27.993-5.867,2.987-16.411-7.119-16.411-7.119l7.687-9.755,4,3.836c-.157-2.244,3.143-6.464,5.344-8.5s3.643-11.391,3.643-11.391,2.385-6.108,6.493-8.453,6.846-2.2,7.342-1.589C1306.644,1490.783,1306.143,1491.7,1304.919,1492.333Z" transform="translate(-1206.389 -1445.835)" fill="#f6a285"/>
          <g id="Group_157815" data-name="Group 157815" transform="translate(93.836)">
            <rect id="Rectangle_168885" data-name="Rectangle 168885" width="122.197" height="156.119" rx="61.098" transform="translate(0 4.844)" fill="url(#linear-gradient)"/>
            <path id="Path_205238" data-name="Path 205238" d="M1716.039,1124.838a5.216,5.216,0,0,1-5.21-5.209V979.261a5.217,5.217,0,0,1,5.21-5.211h106.445a5.217,5.217,0,0,1,5.21,5.211V1119.63a5.216,5.216,0,0,1-5.21,5.209Z" transform="translate(-1708.164 -966.541)" fill="#fff"/>
            <rect id="Rectangle_168886" data-name="Rectangle 168886" width="60.482" height="3.909" rx="1.955" transform="translate(9.442 29.579)" fill="#f3f1fc"/>
            <path id="Path_205239" data-name="Path 205239" d="M1858.048,1429.092h0a1.955,1.955,0,0,1-1.955,1.955h-47.747a1.954,1.954,0,0,1-1.955-1.955h0a1.955,1.955,0,0,1,1.955-1.955h47.747A1.955,1.955,0,0,1,1858.048,1429.092Z" transform="translate(-1796.95 -1387.498)" fill="#f3f1fc"/>
            <path id="Path_205240" data-name="Path 205240" d="M1866.214,1570.957h0a1.955,1.955,0,0,1-1.955,1.955h-55.913a1.955,1.955,0,0,1-1.955-1.955h0a1.955,1.955,0,0,1,1.955-1.955h55.913A1.955,1.955,0,0,1,1866.214,1570.957Z" transform="translate(-1796.95 -1519.303)" fill="#f3f1fc"/>
            <g id="Group_157791" data-name="Group 157791" transform="translate(10.496 62.006)">
              <rect id="Rectangle_168887" data-name="Rectangle 168887" width="15.07" height="15.07" rx="7.535" fill="#ffd375"/>
            </g>
            <g id="Group_157792" data-name="Group 157792" transform="translate(10.496 86.139)">
              <rect id="Rectangle_168888" data-name="Rectangle 168888" width="15.07" height="15.07" rx="7.535" fill="#6eb854"/>
            </g>
            <g id="Group_157793" data-name="Group 157793" transform="translate(10.496 110.272)">
              <rect id="Rectangle_168889" data-name="Rectangle 168889" width="15.07" height="15.07" rx="7.535" fill="#f45170"/>
            </g>
            <g id="Group_157794" data-name="Group 157794" transform="translate(10.496 134.405)">
              <rect id="Rectangle_168890" data-name="Rectangle 168890" width="15.07" height="15.07" rx="7.535" fill="#8eb6ff"/>
            </g>
            <g id="Group_157795" data-name="Group 157795" transform="translate(13.827 67.136)">
              <path id="Path_205241" data-name="Path 205241" d="M1869.686,1819.151l-1.334-2.487a1.051,1.051,0,0,1,1.853-.994l.834,1.555,4.043-2.2a1.051,1.051,0,1,1,1,1.845l-4.972,2.707A1.051,1.051,0,0,1,1869.686,1819.151Z" transform="translate(-1868.227 -1814.896)" fill="#fff"/>
            </g>
            <g id="Group_157796" data-name="Group 157796" transform="translate(13.827 91.269)">
              <path id="Path_205242" data-name="Path 205242" d="M1869.686,2159.462l-1.334-2.487a1.051,1.051,0,0,1,1.853-.993l.834,1.555,4.043-2.2a1.051,1.051,0,1,1,1,1.845l-4.972,2.706A1.051,1.051,0,0,1,1869.686,2159.462Z" transform="translate(-1868.227 -2155.208)" fill="#fff"/>
            </g>
            <g id="Group_157797" data-name="Group 157797" transform="translate(31.863 64.27)">
              <path id="Path_205243" data-name="Path 205243" d="M2174,1775.069h-51.138a.3.3,0,1,1,0-.6H2174a.3.3,0,0,1,0,.6Z" transform="translate(-2122.568 -1774.473)" fill="#e2dff4"/>
            </g>
            <g id="Group_157798" data-name="Group 157798" transform="translate(31.863 69.244)">
              <path id="Path_205244" data-name="Path 205244" d="M2181.419,1845.209h-58.553a.3.3,0,0,1,0-.6h58.553a.3.3,0,1,1,0,.6Z" transform="translate(-2122.568 -1844.613)" fill="#e2dff4"/>
            </g>
            <g id="Group_157799" data-name="Group 157799" transform="translate(31.863 74.218)">
              <path id="Path_205245" data-name="Path 205245" d="M2193.253,1915.349h-70.387a.3.3,0,1,1,0-.6h70.387a.3.3,0,1,1,0,.6Z" transform="translate(-2122.568 -1914.753)" fill="#e2dff4"/>
            </g>
            <g id="Group_157800" data-name="Group 157800" transform="translate(31.863 88.402)">
              <path id="Path_205246" data-name="Path 205246" d="M2174,2115.37h-51.138a.3.3,0,0,1,0-.6H2174a.3.3,0,0,1,0,.6Z" transform="translate(-2122.568 -2114.774)" fill="#e2dff4"/>
            </g>
            <g id="Group_157801" data-name="Group 157801" transform="translate(31.863 93.376)">
              <path id="Path_205247" data-name="Path 205247" d="M2181.419,2185.51h-58.553a.3.3,0,0,1,0-.6h58.553a.3.3,0,1,1,0,.6Z" transform="translate(-2122.568 -2184.914)" fill="#e2dff4"/>
            </g>
            <g id="Group_157802" data-name="Group 157802" transform="translate(31.863 98.351)">
              <path id="Path_205248" data-name="Path 205248" d="M2193.253,2255.666h-70.387a.3.3,0,1,1,0-.6h70.387a.3.3,0,1,1,0,.6Z" transform="translate(-2122.568 -2255.07)" fill="#e2dff4"/>
            </g>
            <g id="Group_157803" data-name="Group 157803" transform="translate(31.863 112.535)">
              <path id="Path_205249" data-name="Path 205249" d="M2174,2455.687h-51.138a.3.3,0,1,1,0-.6H2174a.3.3,0,1,1,0,.6Z" transform="translate(-2122.568 -2455.091)" fill="#e2dff4"/>
            </g>
            <g id="Group_157804" data-name="Group 157804" transform="translate(31.863 117.509)">
              <path id="Path_205250" data-name="Path 205250" d="M2181.419,2525.827h-58.553a.3.3,0,0,1,0-.6h58.553a.3.3,0,1,1,0,.6Z" transform="translate(-2122.568 -2525.231)" fill="#e2dff4"/>
            </g>
            <g id="Group_157805" data-name="Group 157805" transform="translate(31.863 122.483)">
              <path id="Path_205251" data-name="Path 205251" d="M2193.253,2595.967h-70.387a.3.3,0,0,1,0-.6h70.387a.3.3,0,0,1,0,.6Z" transform="translate(-2122.568 -2595.371)" fill="#e2dff4"/>
            </g>
            <g id="Group_157806" data-name="Group 157806" transform="translate(31.863 136.668)">
              <path id="Path_205252" data-name="Path 205252" d="M2174,2796h-51.138a.3.3,0,0,1,0-.6H2174a.3.3,0,0,1,0,.6Z" transform="translate(-2122.568 -2795.408)" fill="#e2dff4"/>
            </g>
            <g id="Group_157807" data-name="Group 157807" transform="translate(31.863 141.642)">
              <path id="Path_205253" data-name="Path 205253" d="M2181.419,2866.144h-58.553a.3.3,0,1,1,0-.6h58.553a.3.3,0,1,1,0,.6Z" transform="translate(-2122.568 -2865.548)" fill="#e2dff4"/>
            </g>
            <g id="Group_157808" data-name="Group 157808" transform="translate(31.863 146.616)">
              <path id="Path_205254" data-name="Path 205254" d="M2193.253,2936.284h-70.387a.3.3,0,0,1,0-.6h70.387a.3.3,0,0,1,0,.6Z" transform="translate(-2122.568 -2935.688)" fill="#e2dff4"/>
            </g>
            <g id="Group_157813" data-name="Group 157813" transform="translate(75.643 24.193)">
              <path id="Path_205255" data-name="Path 205255" d="M2774,1226.363a17.031,17.031,0,1,1-17.026-17.035A17.031,17.031,0,0,1,2774,1226.363Z" transform="translate(-2739.937 -1209.328)" fill="#f2f0fb"/>
              <g id="Group_157812" data-name="Group 157812" transform="translate(4.029 4.026)">
                <path id="Path_205256" data-name="Path 205256" d="M2796.754,1279.11a13,13,0,0,0,26,0,13,13,0,1,0-26,0Z" transform="translate(-2796.754 -1266.1)" fill="#a8dfff"/>
                <path id="Path_205257" data-name="Path 205257" d="M2840.335,1534.414a12.972,12.972,0,0,0,19.819.026,18.71,18.71,0,0,0-6.318-2.268,20.263,20.263,0,0,0-3.6-.315,20.723,20.723,0,0,0-2.884.2A19.209,19.209,0,0,0,2840.335,1534.414Z" transform="translate(-2837.244 -1513.012)" fill="#ffd375"/>
                <path id="Path_205258" data-name="Path 205258" d="M2939.221,1532.055v.052a3.245,3.245,0,0,0,6.489.066,20.263,20.263,0,0,0-3.6-.315A20.721,20.721,0,0,0,2939.221,1532.055Z" transform="translate(-2929.118 -1513.012)" fill="#f35170"/>
                <path id="Path_205259" data-name="Path 205259" d="M2957.785,1484.836v3.59a1.932,1.932,0,0,0,1.932,1.932h0a1.932,1.932,0,0,0,1.932-1.932v-3.59Z" transform="translate(-2946.366 -1469.325)" fill="#f6a285"/>
                <g id="Group_157811" data-name="Group 157811" transform="translate(8.743 5.678)">
                  <g id="Group_157810" data-name="Group 157810" transform="translate(0.194 3.697)">
                    <g id="Group_157809" data-name="Group 157809">
                      <path id="Path_205260" data-name="Path 205260" d="M2922.788,1403.135c.105.734.507,1.294.909,1.242.525,1.871,1.819,3.392,3.34,3.392s2.815-1.521,3.323-3.392h.018c.385.052.8-.507.892-1.242.087-.717-.175-1.347-.56-1.4a.713.713,0,0,0-.192.018,3.592,3.592,0,0,0-3.48-3.253c-1.714,0-3.627-1.443-3.5,3.253a.593.593,0,0,0-.175-.018C2922.963,1401.789,2922.7,1402.418,2922.788,1403.135Z" transform="translate(-2922.771 -1398.292)" fill="#f6a285"/>
                    </g>
                  </g>
                  <path id="Path_205261" data-name="Path 205261" d="M2921.213,1353.645a4.8,4.8,0,0,0,.765-3.408,10.752,10.752,0,0,1,6.672,4.39c2.657,3.813,3.908-5.264-.832-7.769-4.128-2.182-6.89,1.347-6.416,2.686,0,0-1.267-.417-1.353.864a10.55,10.55,0,0,0,.472,3.074S2920.937,1353.028,2921.213,1353.645Z" transform="translate(-2920.041 -1346.162)" fill="#111d33"/>
                </g>
              </g>
            </g>
            <g id="Group_157814" data-name="Group 157814" transform="translate(37.421 10.555)">
              <path id="Path_205262" data-name="Path 205262" d="M2245.858,1024.055h-42.493a2.433,2.433,0,0,1-2.431-2.43v-4.619h47.355v4.619A2.433,2.433,0,0,1,2245.858,1024.055Zm-43.733-5.858v3.428a1.241,1.241,0,0,0,1.24,1.239h42.493a1.241,1.241,0,0,0,1.24-1.239V1018.2Z" transform="translate(-2200.934 -1017.006)" fill="url(#linear-gradient)"/>
            </g>
            <rect id="Rectangle_168891" data-name="Rectangle 168891" width="59.002" height="12.538" rx="6.269" transform="translate(31.598)" fill="url(#linear-gradient)"/>
          </g>
          <path id="Path_205263" data-name="Path 205263" d="M547.093,1613.727c-1.459-.01-4-3.16-4.883-4.329.109.562,2.725,23.418,2.291,35.21-.127,3.51-.522,6.035-1.335,6.723-5.226,4.371-27.212-4.992-41.977,3.022-7.727,4.2.995-37.22.995-37.22l-5.465.116-.075-1.6-5.169.241c.085-3.448.6-19.732,2.509-22.539,2.575-4.178,8.829-8.472,13.637-10.511a21.768,21.768,0,0,1,2.74-.945c2.928-.746,13.973-1.135,20.972.062,4.411.736,9.2,2.092,12.376,4.049,5.4,3.328,11.664,10.73,13.948,16.968C558.939,1606.491,550.864,1613.6,547.093,1613.727Z" transform="translate(-481.443 -1530.627)" fill="#ffd325"/>
          <path id="Path_205264" data-name="Path 205264" d="M625.348,2068.319c-.127,3.51-.522,6.035-1.335,6.723-5.225,4.372-27.212-4.992-41.977,3.022-7.727,4.2.995-37.22.995-37.22l-4.538.1a10.854,10.854,0,0,1,2.024-2.933,2.453,2.453,0,0,1,3.808.28c.637.884.469,1.75.573,2.784.16,1.641.674,3.182.739,4.855.332,8.534-4.468,14.66-2.6,26.283.15.838.431,1.822,1.234,2.117.845.293,1.7-.329,2.426-.847,3.864-2.687,8.969-2.8,13.605-1.977,7.359,1.327,17.68,5.754,21.361.694C622.637,2070.836,623.089,2068.359,625.348,2068.319Z" transform="translate(-562.29 -1954.338)" fill="#ee9545"/>
          <g id="Group_157819" data-name="Group 157819" transform="translate(9.716 79.937)">
            <g id="Group_157816" data-name="Group 157816" transform="translate(0 0)">
              <path id="Path_205265" data-name="Path 205265" d="M514.382,2050.921l-9.067,5.045s-15.949-25.943-17.378-32.673c-1.417-6.641-1.065-20.955.1-27.894l15.1,1.875-1.842,25.874Z" transform="translate(-487.011 -1995.399)" fill="#f6a285"/>
            </g>
            <g id="Group_157818" data-name="Group 157818" transform="translate(17.923 55.538)">
              <g id="Group_157817" data-name="Group 157817">
                <path id="Path_205266" data-name="Path 205266" d="M739.758,2782.8c.35,3.586,1.341,5.552,2.227,6.608.791.984,3.161,3.879,4.475,3.475.842-.26-.427-2.732-.167-3.063.335,1.628,1.871,3.464,2.652,3.148s-.088-2.674.172-3c.129.71.995,3.031,2.292,2.766,1.208-.247-.57-3.436-.3-3.766.129.71,1.547,3.324,2.433,2.952,1.067-.448-.241-4.456-.745-5.818-1.46-3.952,3.463-1.194,4.39-2.646,1.089-1.707-5.677-3.81-8.206-4.874Z" transform="translate(-739.758 -2778.577)" fill="#f6a285"/>
              </g>
            </g>
            <path id="Path_205267" data-name="Path 205267" d="M505.315,2055.967s-15.949-25.943-17.378-32.673c-1.417-6.641-1.065-20.955.1-27.894l15.1,1.875-.737,10.387c-3.29.888-4.178-.381-6.572-.543-2.286-.152-3.875-.264-5.186,1.971-3.062,5.226,3.622,9.222,4.834,13.91,1.152,4.44-.724,8.923-.442,13.4.1,1.515,1.506,2.306,2.531,3.333.983.973,2.049,1.82,2.993,2.843,2.086,2.263,1.445,6.738,3.948,8.577C505.43,2051.84,505.315,2055.967,505.315,2055.967Z" transform="translate(-487.011 -1995.399)" fill="url(#linear-gradient-4)"/>
          </g>
          <path id="Path_205269" data-name="Path 205269" d="M1087.867,1711.3c1.711,5.025,5.74,14.476,8.528,18.992A41.656,41.656,0,0,1,1087.867,1711.3Z" transform="translate(-1035.542 -1651.514)" fill="#ee9545"/>
          <path id="Path_205270" data-name="Path 205270" d="M773.373,1581.977v.009l-3.986,10.834a1.163,1.163,0,0,1-1.862.47l-12.331-10.9v0c3.245-.905,10.4-.706,13.9-.688A39.259,39.259,0,0,1,773.373,1581.977Z" transform="translate(-726.461 -1531.068)" fill="#fff"/>
          <path id="Path_205271" data-name="Path 205271" d="M1264.007,1880.171a1.839,1.839,0,0,1-.894-.288c1.913-3.733,6.975-4.3,9.574-7.449a5.552,5.552,0,0,0,1.277-2.756c.06-.429-.09-1.17.028-1.7.219.488.41.969.583,1.441C1275.881,1872.921,1267.784,1880.052,1264.007,1880.171Z" transform="translate(-1198.361 -1797.077)" fill="#ee9545"/>
          <path id="Path_205272" data-name="Path 205272" d="M486.911,1809.065c.285,2.694,13.945,2.358,15.783.4,3.673-3.943-.512-19.795-.512-19.795l-13.446-.278C486.516,1799.47,486.633,1803.108,486.911,1809.065Z" transform="translate(-477.064 -1724.06)" fill="#ffd375"/>
          <path id="Path_205273" data-name="Path 205273" d="M486.974,1809.065c.051.478.506.852,1.24,1.143a122.82,122.82,0,0,1,2.224-20.784l-1.64-.037C486.654,1799.133,486.678,1802.715,486.974,1809.065Z" transform="translate(-477.128 -1724.06)" fill="#ee9545"/>
          <g id="Group_157822" data-name="Group 157822" transform="translate(25.224 14.051)">
            <path id="Path_205274" data-name="Path 205274" d="M804.319,1367.589l.609,15.325-3.521,8.6-9.334-8.519-.689-14.8Z" transform="translate(-785.308 -1346.223)" fill="#f6a285"/>
            <path id="Path_205276" data-name="Path 205276" d="M779.357,1210.414c.3,6.344-.436,13.009-5.014,12.333-4.994-.72-10.349-3.3-14.492-6.108-1.035-.706-1.626-1.167-1.626-1.167l-.158-3.384c-.049-.119-5.542-5.759-.687-7.873l.521-7.4c8.711-.783,16.9-1.108,20.145,2.846A90.026,90.026,0,0,1,779.357,1210.414Z" transform="translate(-751.855 -1187.103)" fill="url(#linear-gradient-5)"/>
            <path id="Path_205277" data-name="Path 205277" d="M954.355,1356.457a.921.921,0,1,0,.937-.9A.92.92,0,0,0,954.355,1356.457Z" transform="translate(-936.722 -1335.04)" fill="#111d33"/>
            <path id="Path_205278" data-name="Path 205278" d="M969.168,1366.543a.239.239,0,0,0,.007-.479A.239.239,0,1,0,969.168,1366.543Z" transform="translate(-950.264 -1344.807)" fill="#fbfbfb"/>
            <path id="Path_205279" data-name="Path 205279" d="M705.933,1079.959c.718,3.375,3.311,7.93,5.186,10.395-1.255-2.233-2.174-6.031-.09-6.786,2.371-.857,3.642,3.468,3.642,3.468s1.011,2.676,1.695,2.4c1.294-.518-.72-4.877.641-5.537s2.885-1.171,2.853-3.819c-.019-1.455.634-1.975,1.635-2.149,7.016-1.211,8.8,3.307,11.938.087a5.217,5.217,0,0,0,1.64-5.1c-.9-3.235-5.567-6.137-14.534-6.565-13.554-.647-10,6.464-9.924,6.62l0,0C705.985,1073.609,705.218,1076.617,705.933,1079.959Z" transform="translate(-705.701 -1066.309)" fill="#4c5c75"/>
            <path id="Path_205280" data-name="Path 205280" d="M793.331,1074.252a3.89,3.89,0,0,0-.127-.63c-.9-3.24-5.565-6.137-14.531-6.572-8.608-.409-10.318,2.31-10.4,4.388-.258-2.1.733-5.558,10.37-5.1,8.966.427,13.633,3.332,14.531,6.565A4.438,4.438,0,0,1,793.331,1074.252Z" transform="translate(-763.801 -1066.299)" fill="#fff" opacity="0.1"/>
            <path id="Path_205281" data-name="Path 205281" d="M991.739,1266.416a22.887,22.887,0,0,1-2.372-.477c.51.11,1.029.2,1.548.278,8.269,1.222,4.529-22.89,4.529-22.89S1000.288,1267.687,991.739,1266.416Z" transform="translate(-969.251 -1230.773)" fill="#fde0bb" opacity="0.3"/>
            <path id="Path_205282" data-name="Path 205282" d="M902.7,1309.384c-.91.582-.807-1,.467-2.13a5.327,5.327,0,0,1,4.842-1.172,1.648,1.648,0,0,1,.714.444,1,1,0,0,1,.259.783c-.12.831-.954.592-1.533.557C905.295,1307.734,904.505,1308.232,902.7,1309.384Z" transform="translate(-888.175 -1288.909)" fill="#111d33"/>
            <path id="Path_205283" data-name="Path 205283" d="M1028.315,1297.244a5.172,5.172,0,0,1,3.649-.736.888.888,0,0,1,.749.88h0a.887.887,0,0,1-.92.879c-.105,0-.21,0-.316,0a6.562,6.562,0,0,0-2.09.5c-.539.209-1.258.688-1.624-.063A1.2,1.2,0,0,1,1028.315,1297.244Z" transform="translate(-1004.844 -1280.122)" fill="#111d33"/>
            <path id="Path_205284" data-name="Path 205284" d="M769.113,1337.51c-.48-1.668-1.881-2.516-3.217-1.7a.115.115,0,0,0,.12.2c1.217-.742,2.423.062,2.86,1.524a1.034,1.034,0,0,0-1.059-.1c-.608.222-.478.717-.286.666l.006,0a.117.117,0,0,0,.074-.145c-.091-.278.913-.671,1.33-.048,0,.007.014,0,.02.008.228,1.087.083,1.36.295,1.343l.021,0a.114.114,0,0,0,.085-.121" transform="translate(-761.575 -1316.408)" fill="#e17659"/>
            <path id="Path_205285" data-name="Path 205285" d="M747.822,1176.915c-1.255-2.233-2.174-6.031-.09-6.786,2.371-.857,3.642,3.468,3.642,3.468s1.011,2.676,1.695,2.4c1.294-.518-.72-4.877.641-5.537s2.885-1.171,2.853-3.819c-.02-1.455.634-1.976,1.635-2.149,7.016-1.211,8.8,3.307,11.938.087a5.216,5.216,0,0,0,1.64-5.1,2.7,2.7,0,0,1-.27.251c-3.607,2.9-10.7-1.767-15.766.684-1.913.925-3.351,3.105-2.813,5.161.17.65.523,1.248.63,1.914.25,1.516-1.072,2.388-2.288,1.163a16.186,16.186,0,0,0-1.138-1.26,2.455,2.455,0,0,0-3.112.1c-.878.817-1.016,1.973-1.812,5.323A40.321,40.321,0,0,0,747.822,1176.915Z" transform="translate(-742.404 -1152.87)" fill="#111d33"/>
            <path id="Path_205286" data-name="Path 205286" d="M705.933,1167.213c.022-.011.034-.083.033-.218-.026-1.645,1.108-4.667,2.97-5.762,1.817-1.068,4.849.267,4.992.331a5.153,5.153,0,0,0-3.311-1.337C705.985,1160.862,705.218,1163.87,705.933,1167.213Z" transform="translate(-705.701 -1153.562)" fill="#111d33"/>
            <path id="Path_205287" data-name="Path 205287" d="M1017.318,1420.4c-1.567-.538-.695-.483-1.927.09-.634.294.109-1.333.642-1.357S1018.07,1420.658,1017.318,1420.4Z" transform="translate(-993.203 -1394.111)" fill="#e17659"/>
            <path id="Path_205288" data-name="Path 205288" d="M999.084,1480.6a.144.144,0,0,0-.144.2,2.606,2.606,0,0,0,2.5,1.564,2.644,2.644,0,0,0,2.28-1.783.141.141,0,0,0-.16-.184A18.2,18.2,0,0,1,999.084,1480.6Z" transform="translate(-978.133 -1451.029)" fill="#e17659"/>
            <g id="Group_157820" data-name="Group 157820" transform="translate(15.74 20.275)">
              <path id="Path_205289" data-name="Path 205289" d="M932.449,1353.252c-.022.024-.022.024-.044.025-.6-.175-1.237-.371-1.811-.571a6.109,6.109,0,0,1-2.881,1.173.048.048,0,0,1-.047-.043l.022-.023a4.28,4.28,0,0,1,1.286-.986c.486-.226,1-.385,1.486-.589h.023c.141-.056.083-.1,1.942.971A.068.068,0,0,1,932.449,1353.252Z" transform="translate(-927.666 -1352.214)" fill="#111d33"/>
            </g>
            <g id="Group_157821" data-name="Group 157821" transform="translate(22.99 19.939)">
              <path id="Path_205290" data-name="Path 205290" d="M1056.622,1351.693a.921.921,0,1,0,.937-.9A.92.92,0,0,0,1056.622,1351.693Z" transform="translate(-1054.727 -1350.552)" fill="#111d33"/>
              <path id="Path_205291" data-name="Path 205291" d="M1034.681,1348.507c-.021.024-.021.024-.044.025-.6-.175-1.237-.371-1.81-.571a6.11,6.11,0,0,1-2.881,1.173.048.048,0,0,1-.047-.043l.021-.023a6.191,6.191,0,0,1,2.772-1.575h.022a.243.243,0,0,1,.18-.008c.6.311,1.182.645,1.762.98A.068.068,0,0,1,1034.681,1348.507Z" transform="translate(-1029.898 -1347.47)" fill="#111d33"/>
              <path id="Path_205292" data-name="Path 205292" d="M1071.436,1361.78a.239.239,0,0,0,.007-.479A.239.239,0,1,0,1071.436,1361.78Z" transform="translate(-1068.271 -1360.32)" fill="#fbfbfb"/>
            </g>
          </g>
          <g id="Group_157823" data-name="Group 157823" transform="translate(87.672 44.599)">
            <path id="Path_205293" data-name="Path 205293" d="M1589.977,1506.876c3.84-2.305,2.442-5.342,2.442-5.342,2.219-.993,5.09-1.861,4.556-3.462-.649-1.949-6.631.872-8.728,2.844-1.266,1.19-1.884,3.2-1.921,6.68" transform="translate(-1586.326 -1497.391)" fill="#f6a285"/>
            <path id="Path_205294" data-name="Path 205294" d="M1592.239,1504.327a3.668,3.668,0,0,0,.158-3.1c-.111-.227,4.653-1.4,4.6-3.109.107-2.764-8.068.979-9.53,3.55a12.281,12.281,0,0,0-1.142,5.616,12.08,12.08,0,0,1,1.056-5.665c1.358-2.509,9.621-6.436,9.7-3.5.032,1.468-3.015,2.4-4.648,3.121l.012-.032a3.877,3.877,0,0,1-1.166,4.4,7.519,7.519,0,0,1-1.3.956A6.663,6.663,0,0,0,1592.239,1504.327Z" transform="translate(-1586.325 -1497.076)" fill="#e17659"/>
          </g>
        </g>
        <g id="Group_157833" data-name="Group 157833" transform="translate(90.622 198.009)">
          <g id="Group_157832" data-name="Group 157832" transform="translate(0 4.931)">
            <path id="Path_205336" data-name="Path 205336" d="M1689.759,3633.827v34.439a2.807,2.807,0,0,1-2.808,2.805h-56.227a2.807,2.807,0,0,1-2.808-2.805v-34.439a2.809,2.809,0,0,1,2.808-2.808h56.227A2.809,2.809,0,0,1,1689.759,3633.827Z" transform="translate(-1627.916 -3628.305)" fill="#f45170"/>
            <g id="Group_157831" data-name="Group 157831" transform="translate(7.477)">
              <path id="Path_205337" data-name="Path 205337" d="M1740.479,3593.387v2.08h-7.13v-2.08a.634.634,0,0,1,.634-.634h5.863A.634.634,0,0,1,1740.479,3593.387Z" transform="translate(-1733.349 -3592.753)" fill="#df3260"/>
              <path id="Path_205338" data-name="Path 205338" d="M2301.153,3593.387v2.08h-7.13v-2.08a.634.634,0,0,1,.634-.634h5.863A.634.634,0,0,1,2301.153,3593.387Z" transform="translate(-2254.263 -3592.753)" fill="#df3260"/>
            </g>
            <rect id="Rectangle_168892" data-name="Rectangle 168892" width="61.843" height="3.678" transform="translate(0 10.281)" fill="#df3260"/>
            <path id="Path_205339" data-name="Path 205339" d="M1930.861,3837.891a11,11,0,1,1-11-11A11,11,0,0,1,1930.861,3837.891Z" transform="translate(-1888.942 -3810.29)" fill="#fff"/>
          </g>
          <path id="Path_205340" data-name="Path 205340" d="M1928.763,3524.734v6.129h-2.721v-4.018a1.15,1.15,0,0,0-1.15-1.15h-14.6a1.15,1.15,0,0,0-1.15,1.15v4.018h-2.72v-6.129a1.518,1.518,0,0,1,1.518-1.518h19.307A1.519,1.519,0,0,1,1928.763,3524.734Z" transform="translate(-1886.67 -3523.216)" fill="#df3260"/>
          <path id="Path_205341" data-name="Path 205341" d="M1988.386,3901.161l-2.956-1.707,2.889-1.668a.431.431,0,0,0,.158-.589l-1.068-1.85a.431.431,0,0,0-.589-.158l-3,1.733v-3.543a.431.431,0,0,0-.431-.431h-2.137a.431.431,0,0,0-.431.431v3.413l-2.889-1.668a.431.431,0,0,0-.589.158l-1.068,1.85a.431.431,0,0,0,.158.589l3,1.733-3.069,1.772a.431.431,0,0,0-.158.589l1.068,1.85a.431.431,0,0,0,.589.158l2.956-1.707v3.336a.431.431,0,0,0,.431.431h2.137a.431.431,0,0,0,.431-.431v-3.466l3.069,1.772a.431.431,0,0,0,.589-.158l1.068-1.851A.431.431,0,0,0,1988.386,3901.161Z" transform="translate(-1951.453 -3866.728)" fill="#df3260"/>
        </g>
        <g id="Group_157836" data-name="Group 157836" transform="translate(182.408 138.343)">
          <path id="Path_205342" data-name="Path 205342" d="M2969.423,2691.59a1.7,1.7,0,0,1,1.464,1.68l.032,24.682a17.144,17.144,0,0,1-7.208,13.993l-16.092,11.442a1.7,1.7,0,0,1-1.968,0l-16.122-11.4a17.143,17.143,0,0,1-7.245-13.974l-.032-24.682a1.7,1.7,0,0,1,1.46-1.685,9.881,9.881,0,0,0,8.294-8.316,1.7,1.7,0,0,1,1.681-1.464l25.736-.034a1.7,1.7,0,0,1,1.685,1.46A9.881,9.881,0,0,0,2969.423,2691.59Z" transform="translate(-2922.252 -2681.836)" fill="#6eb854"/>
          <g id="Group_157834" data-name="Group 157834" transform="translate(7.156 10.199)">
            <circle id="Ellipse_10414" data-name="Ellipse 10414" cx="12.15" cy="12.15" r="12.15" transform="translate(0 17.182) rotate(-45)" fill="#fff"/>
          </g>
          <g id="Group_157835" data-name="Group 157835" transform="translate(19.046 24.047)">
            <path id="Path_205343" data-name="Path 205343" d="M3193.471,3027.635l-2.27-2.622a1.5,1.5,0,0,1,2.27-1.965l1.328,1.534,4.183-3.318a1.5,1.5,0,1,1,1.866,2.352l-5.31,4.212A1.5,1.5,0,0,1,3193.471,3027.635Z" transform="translate(-3190.835 -3020.938)" fill="#6eb854"/>
          </g>
        </g>
        <g id="Group_157839" data-name="Group 157839" transform="translate(206.743 -20)">
          <g id="Group_157837" data-name="Group 157837">
            <path id="Path_205344" data-name="Path 205344" d="M3595.6,732.117v14.289a1.151,1.151,0,0,1-1.151,1.152h-8.9l-3.246,4.682a1.152,1.152,0,0,1-1.892,0l-2.906-4.187a1.152,1.152,0,0,0-.946-.5h-8.3a1.152,1.152,0,0,1-1.152-1.152V732.117a1.152,1.152,0,0,1,1.152-1.151h26.186A1.151,1.151,0,0,1,3595.6,732.117Z" transform="translate(-3567.112 -730.965)" fill="#c5adff"/>
          </g>
          <g id="Group_157838" data-name="Group 157838" transform="translate(4.615 5.457)">
            <path id="Path_205345" data-name="Path 205345" d="M3637.121,810.376a2.464,2.464,0,1,1-2.47-2.459A2.467,2.467,0,0,1,3637.121,810.376Z" transform="translate(-3632.192 -807.917)" fill="#976ff8"/>
            <path id="Path_205346" data-name="Path 205346" d="M3738.159,810.376a2.464,2.464,0,1,1-2.47-2.459A2.467,2.467,0,0,1,3738.159,810.376Z" transform="translate(-3726.065 -807.917)" fill="#976ff8"/>
            <path id="Path_205347" data-name="Path 205347" d="M3839.2,810.376a2.465,2.465,0,1,1-2.47-2.459A2.467,2.467,0,0,1,3839.2,810.376Z" transform="translate(-3819.939 -807.917)" fill="#976ff8"/>
          </g>
        </g>
      </g>
    </g>
  </g>
</svg>
