<svg xmlns="http://www.w3.org/2000/svg" xmlns:xlink="http://www.w3.org/1999/xlink" width="346.999" height="236.414" viewBox="0 0 346.999 236.414">
  <defs>
    <linearGradient id="linear-gradient" y1="0.5" x2="1" y2="0.5" gradientUnits="objectBoundingBox">
      <stop offset="0" stop-color="#2e7feb"/>
      <stop offset="1" stop-color="#46bae1"/>
    </linearGradient>
    <linearGradient id="linear-gradient-2" y1="0.5" x2="1" y2="0.5" gradientUnits="objectBoundingBox">
      <stop offset="0" stop-color="#2e7feb"/>
      <stop offset="1" stop-color="#3b4d87"/>
    </linearGradient>
    <linearGradient id="linear-gradient-3" x1="-77.36" y1="0.5" x2="-76.36" y2="0.5" gradientUnits="objectBoundingBox">
      <stop offset="0" stop-color="#3d342b"/>
      <stop offset="1" stop-color="#291c17"/>
    </linearGradient>
    <linearGradient id="linear-gradient-4" x1="-74.422" y1="0.5" x2="-73.422" y2="0.5" xlink:href="#linear-gradient-3"/>
    <linearGradient id="linear-gradient-5" x1="-168.407" y1="0.5" x2="-167.407" y2="0.5" xlink:href="#linear-gradient-3"/>
    <linearGradient id="linear-gradient-6" x1="-168.354" y1="0.5" x2="-167.354" y2="0.5" xlink:href="#linear-gradient-3"/>
  </defs>
  <g id="ob3" transform="translate(-10.423 -92.916)">
    <g id="Group_157681" data-name="Group 157681" transform="translate(10.423 105.961)" style="mix-blend-mode: multiply;isolation: isolate">
      <g id="Group_157680" data-name="Group 157680">
        <g id="Group_157679" data-name="Group 157679" transform="translate(68.285 31.884)">
          <path id="Path_205009" data-name="Path 205009" d="M71.227,159.463c13.3-9.408,17.1-26.9,8.5-39.057s-28.377-10.879-41.677-1.466-15.1,23.384-6.491,35.549S57.924,168.871,71.227,159.463Z" transform="translate(-26.296 -111.583)" fill="#eefaff"/>
        </g>
        <path id="Path_205010" data-name="Path 205010" d="M349.237,326.8a76.215,76.215,0,0,0-2.733-45.133c-8.779-23.29-23.822-30.915-31.185-50.451A76.161,76.161,0,0,1,312,188.918a.754.754,0,0,0-.137-.113,76.5,76.5,0,0,0-103.01-80.436c-40.808,15.383-46.881,51.151-46.987,51.159A65.874,65.874,0,0,1,120.8,206.667c-21.855,8.235-36.358,3.852-54.366,10.644A88.937,88.937,0,0,0,12.818,326.8Z" transform="translate(-8.833 -103.429)" fill="#ecf5ff"/>
      </g>
    </g>
    <g id="Group_157767" data-name="Group 157767" transform="translate(18.004 92.916)">
      <ellipse id="Ellipse_10413" data-name="Ellipse 10413" cx="169.709" cy="3.578" rx="169.709" ry="3.578" transform="translate(0 229.257)" fill="#bdd1e9" opacity="0.4" style="mix-blend-mode: multiply;isolation: isolate"/>
      <g id="Group_157682" data-name="Group 157682" transform="translate(207.137 180.082)">
        <path id="Path_205011" data-name="Path 205011" d="M114.091,155h-8.418a8.419,8.419,0,0,0-8.383-7.752H90.127A8.415,8.415,0,0,0,81.748,155H73.334a9.059,9.059,0,0,0-9.057,9.061v25.462a9.062,9.062,0,0,0,9.057,9.061h40.758a9.06,9.06,0,0,0,9.049-9.061V164.063A9.058,9.058,0,0,0,114.091,155Zm-23.965-4.8h7.164a5.5,5.5,0,0,1,5.44,4.8H84.687A5.512,5.512,0,0,1,90.127,150.2Z" transform="translate(-64.277 -147.251)" fill="#25a9e0"/>
        <path id="Path_205012" data-name="Path 205012" d="M90.879,159.919H82.955V152H76.918v7.922H69v6.035h7.922v7.926h6.037v-7.926h7.924Z" transform="translate(-50.503 -133.397)" fill="#f7f7f7"/>
      </g>
      <g id="Group_157684" data-name="Group 157684" transform="translate(78.072)">
        <g id="Group_157683" data-name="Group 157683" transform="translate(4.382 18.074)">
          <path id="Path_205013" data-name="Path 205013" d="M109.792,105.965c-16.091,7.5-47.925,28.323-51.053,76.044a17.909,17.909,0,0,0-26.277-.87C37.815,141.726,70.033,110.448,109.792,105.965Z" transform="translate(-32.462 -105.757)" fill="#25a9e0"/>
          <path id="Path_205014" data-name="Path 205014" d="M92.016,106.231C83.606,114.817,68,136.815,67.2,181.648a18.138,18.138,0,0,0-13.971-6.568,17.95,17.95,0,0,0-13.411,6.082C43.185,132.085,77.665,112.349,92.016,106.231Z" transform="translate(-10.999 -104.981)" fill="#25a9e0"/>
          <path id="Path_205015" data-name="Path 205015" d="M61.166,176.046a18.058,18.058,0,0,0-13.724,6.184c1.042-50.461,21.582-71.424,27.351-76.319l-.035,76.319A18.122,18.122,0,0,0,61.166,176.046Z" transform="translate(11.265 -105.912)" fill="#25a9e0"/>
          <path id="Path_205016" data-name="Path 205016" d="M55.115,105.956c5.976,5.177,26.03,26.206,27,76.009a17.795,17.795,0,0,0-26.974.282l-.1-.039Z" transform="translate(33.446 -105.784)" fill="#25a9e0"/>
          <path id="Path_205017" data-name="Path 205017" d="M81.008,181.864c-.7-44.97-16.3-67.038-24.717-75.625,14.359,6.121,48.835,25.928,52.1,75.037a17.772,17.772,0,0,0-27.382.588Z" transform="translate(37.095 -104.958)" fill="#25a9e0"/>
          <path id="Path_205018" data-name="Path 205018" d="M134.655,181.28a17.929,17.929,0,0,0-26.445,1.039c-2.959-47.925-34.859-68.814-50.986-76.354C97.122,110.413,129.376,141.792,134.655,181.28Z" transform="translate(39.815 -105.757)" fill="#25a9e0"/>
        </g>
        <path id="Path_205019" data-name="Path 205019" d="M210.2,194.9c-5.279-39.488-37.532-70.867-77.432-75.315,16.127,7.54,48.027,28.428,50.986,76.354A17.929,17.929,0,0,1,210.2,194.9Zm-58.906.658c-.972-49.8-21.025-70.832-27-76.009l-.074,76.252.1.039a17.795,17.795,0,0,1,26.974-.282Zm-22.178-74.9c8.414,8.587,24.016,30.654,24.717,75.625a17.773,17.773,0,0,1,27.382-.588C177.947,146.584,143.471,126.777,129.112,120.656ZM62,195.626c3.127-47.722,34.961-68.539,51.053-76.044-39.758,4.483-71.976,35.761-77.33,75.174a17.909,17.909,0,0,1,26.277.87Zm29.922.415c.8-44.833,16.409-66.831,24.819-75.417-14.351,6.118-48.831,25.854-52.2,74.931a17.95,17.95,0,0,1,13.411-6.082A18.138,18.138,0,0,1,91.925,196.042Zm29.859-76.667c-5.769,4.895-26.308,25.858-27.351,76.319a18.173,18.173,0,0,1,27.315,0Zm-2.332,79.309a14.478,14.478,0,0,0-24.709,3.406,1.937,1.937,0,0,1-3.41,0,14.5,14.5,0,0,0-26.445-.658,1.824,1.824,0,0,1-1.6,1h-.071a1.819,1.819,0,0,1-1.666-1.039,14.382,14.382,0,0,0-13.035-8.234,14.555,14.555,0,0,0-13.587,9.523,1.858,1.858,0,0,1-2.124,1.18,1.836,1.836,0,0,1-1.458-1.912c2.328-47.055,41.149-85.007,88.487-86.606a1.036,1.036,0,0,1,.345-.071h.106s.764-13.971,2.743-13.971c2.018,0,2.747,13.971,2.747,13.971h.106a2,2,0,0,1,.451.071c47.3,1.7,86.022,39.727,88.279,86.782a1.914,1.914,0,0,1-1.493,1.916,2.021,2.021,0,0,1-.388.027A1.877,1.877,0,0,1,211,202.857a14.44,14.44,0,0,0-26.724-1.184,1.906,1.906,0,0,1-1.669,1.042,1.816,1.816,0,0,1-1.666-1.042,14.5,14.5,0,0,0-26.383.137,1.8,1.8,0,0,1-1.666,1.078,1.872,1.872,0,0,1-1.7-1.078,14.582,14.582,0,0,0-13.215-8.583,14.361,14.361,0,0,0-11.33,5.6,1.84,1.84,0,0,1-1.462.694h-.243l.243,65.157a3.592,3.592,0,0,1,1.673,2.99l-.039,30.2a11.146,11.146,0,1,1-22.28-.035V284.2a3.651,3.651,0,0,1,7.3,0l-.035,13.626a3.895,3.895,0,1,0,7.752,0l.035-30.164a3.516,3.516,0,0,1,1.669-2.99l-.282-65.157A1.877,1.877,0,0,1,119.452,198.683Z" transform="translate(-31.344 -101.3)" fill="#00a0c6"/>
        <path id="Path_205020" data-name="Path 205020" d="M66.742,191.509a3.563,3.563,0,0,0-1.677,2.975l-.031,30.2a3.887,3.887,0,1,1-7.736,0l.008-13.619a3.635,3.635,0,0,0-7.27-.008l-.016,13.622a11.149,11.149,0,1,0,22.283.016l.031-30.192a3.588,3.588,0,0,0-1.666-2.986l-.251-65.146-3.942,0Z" transform="translate(23.172 -28.138)" fill="#292f61"/>
        <path id="Path_205021" data-name="Path 205021" d="M59.553,115.264S58.828,101.3,56.814,101.3s-2.779,13.971-2.779,13.971l5.612,0A.691.691,0,0,1,59.553,115.264Z" transform="translate(34.892 -101.297)" fill="#292f61"/>
      </g>
      <path id="Path_205022" data-name="Path 205022" d="M117.846,116.262l-.016-3.754-1.411-.639c-3.053-1.387-13.948-5.9-25.908-5.9s-22.856,4.511-25.912,5.894l-1.415.643-.02,7.215c0,11.745.506,23.945,6.568,32.79,6.588,9.609,15.907,15.386,19.611,17.432l1.168.647,1.164-.647c3.7-2.046,13.023-7.818,19.6-17.432,6.071-8.849,6.576-21.045,6.576-32.786Z" transform="translate(139.611 -87.665)" fill="#fff"/>
      <path id="Path_205023" data-name="Path 205023" d="M63.8,112.262c0,.835-.016,5.671-.016,5.671,0,11.357.47,23.146,6.149,31.411,6.388,9.327,15.6,14.935,18.784,16.7,3.178-1.76,12.388-7.368,18.78-16.7,5.671-8.265,6.145-20.053,6.145-31.415l0-3.457s-.008-1.332-.008-2.21c-2.755-1.238-13.364-5.675-24.913-5.675S66.547,111.023,63.8,112.262Z" transform="translate(141.409 -85.867)" fill="#292f61"/>
      <path id="Path_205024" data-name="Path 205024" d="M95.355,120.177H84.715v-10.64H77.092v10.64H66.454v7.62H77.092V138.44h7.624V127.8H95.355Z" transform="translate(149.215 -77.256)" fill="#fff"/>
      <g id="Group_157695" data-name="Group 157695" transform="translate(12.779 137.271)">
        <g id="Group_157685" data-name="Group 157685" transform="translate(50.817 26.633)">
          <path id="Path_205025" data-name="Path 205025" d="M27.65,148.97a5.859,5.859,0,1,0,5.859-5.847A5.859,5.859,0,0,0,27.65,148.97Z" transform="translate(-27.65 -143.123)" fill="#d9d9d9"/>
          <path id="Path_205026" data-name="Path 205026" d="M27.987,147.992a4.538,4.538,0,1,0,4.538-4.534A4.539,4.539,0,0,0,27.987,147.992Z" transform="translate(-26.666 -142.145)" fill="#1f1632"/>
          <path id="Path_205027" data-name="Path 205027" d="M28.29,147.108a3.353,3.353,0,1,0,3.351-3.347A3.357,3.357,0,0,0,28.29,147.108Z" transform="translate(-25.782 -141.261)" fill="#b2b2b2"/>
        </g>
        <g id="Group_157688" data-name="Group 157688" transform="translate(9.898 14.437)">
          <g id="Group_157687" data-name="Group 157687">
            <g id="Group_157686" data-name="Group 157686">
              <path id="Path_205028" data-name="Path 205028" d="M57.308,140.011a7.384,7.384,0,0,1,7.379,7.379V157.78a.723.723,0,0,1-1.446,0V147.39a5.941,5.941,0,0,0-5.933-5.941H47.46a5.94,5.94,0,0,0-5.929,5.941V166.1a7.386,7.386,0,0,1-7.376,7.379h-9.57a7.383,7.383,0,0,1-7.376-7.379V157.78a.717.717,0,1,1,1.434,0V166.1a5.947,5.947,0,0,0,5.941,5.937h9.57a5.937,5.937,0,0,0,5.929-5.937V147.39a7.378,7.378,0,0,1,7.376-7.379Z" transform="translate(-17.209 -140.011)" fill="#1f1632"/>
            </g>
          </g>
        </g>
        <g id="Group_157694" data-name="Group 157694">
          <g id="Group_157690" data-name="Group 157690">
            <g id="Group_157689" data-name="Group 157689" transform="translate(0 5.748)">
              <path id="Path_205029" data-name="Path 205029" d="M17.778,137.83a.592.592,0,0,1,.349.76l-.314.862L16.5,143.211a11.775,11.775,0,0,0-.521,5.369l.384,2.575.592,3.99a.591.591,0,0,1-1.168.184l-.6-4-.388-2.567a13.081,13.081,0,0,1,.564-5.91l1.332-3.809.31-.854A.6.6,0,0,1,17.778,137.83Z" transform="translate(-14.683 -137.794)" fill="#b2b2b2"/>
            </g>
            <path id="Path_205030" data-name="Path 205030" d="M15.081,142.452l1.963-5.224a1.386,1.386,0,0,1,2.6.968l-1.963,5.228Z" transform="translate(-13.522 -136.327)" fill="#315f69"/>
          </g>
          <g id="Group_157692" data-name="Group 157692" transform="translate(15.915)">
            <g id="Group_157691" data-name="Group 157691" transform="translate(2.725 5.748)">
              <path id="Path_205031" data-name="Path 205031" d="M19.822,137.83a.593.593,0,0,0-.345.76l.314.862,1.317,3.758a11.994,11.994,0,0,1,.521,5.369l-.388,2.575-.6,3.99a.589.589,0,0,0,.5.674.574.574,0,0,0,.67-.49l.6-4,.384-2.567a13.076,13.076,0,0,0-.56-5.91l-1.34-3.809-.31-.854A.6.6,0,0,0,19.822,137.83Z" transform="translate(-19.439 -137.794)" fill="#b2b2b2"/>
            </g>
            <path id="Path_205032" data-name="Path 205032" d="M23.387,142.452l-1.959-5.224a1.385,1.385,0,1,0-2.594.968l1.967,5.228Z" transform="translate(-18.744 -136.327)" fill="#315f69"/>
          </g>
          <g id="Group_157693" data-name="Group 157693" transform="translate(0.646 21.762)">
            <path id="Path_205033" data-name="Path 205033" d="M16.823,142.868a8.278,8.278,0,0,0,8.442,8.081,8.6,8.6,0,0,0,5.988-2.375,7.866,7.866,0,0,0,2.461-5.706.984.984,0,1,1,1.967,0,9.806,9.806,0,0,1-3.061,7.121,10.535,10.535,0,0,1-7.356,2.935,10.254,10.254,0,0,1-10.417-10.056.988.988,0,0,1,1.975,0Z" transform="translate(-14.848 -141.88)" fill="#1f1632"/>
          </g>
        </g>
      </g>
      <g id="Group_157700" data-name="Group 157700" transform="translate(47.377 187.438)">
        <g id="Group_157696" data-name="Group 157696">
          <path id="Path_205034" data-name="Path 205034" d="M32.623,183.561h7.485s19.336-6.964,19.168-31.18c0,0-24.388,1.92-26.653,23.342C32.447,180.6,32.623,183.561,32.623,183.561Z" transform="translate(2.857 -139.633)" fill="url(#linear-gradient)"/>
          <path id="Path_205035" data-name="Path 205035" d="M50.2,158.288c1.642-1.564,5.087-5.2,5.087-5.2a59.486,59.486,0,0,0-5.694,4.221c-13.658,12.909-16.515,23.549-16.64,24.035l.537.141h.588C34.459,180.2,37.743,170.162,50.2,158.288Z" transform="translate(4.051 -137.56)" fill="#94b6fd" opacity="0.6" style="mix-blend-mode: screen;isolation: isolate"/>
          <path id="Path_205036" data-name="Path 205036" d="M61.061,193.056H50.507s-27.241-9.813-26.994-43.928c0,0,34.354,2.7,37.548,32.888C61.3,188.89,61.061,193.056,61.061,193.056Z" transform="translate(-23.512 -149.128)" fill="url(#linear-gradient-2)"/>
          <path id="Path_205037" data-name="Path 205037" d="M55.031,190.773h1.2c-1.023-3.453-7.325-22.3-26.559-37.56a50.157,50.157,0,0,0-5.4-3.3s2.978,2.853,4.515,4.068C47.33,168.615,53.753,186.662,55.031,190.773Z" transform="translate(-21.318 -146.845)" fill="#ff3a72" opacity="0.3" style="mix-blend-mode: multiply;isolation: isolate"/>
        </g>
        <g id="Group_157699" data-name="Group 157699" transform="translate(23.03 43.603)">
          <g id="Group_157698" data-name="Group 157698">
            <g id="Group_157697" data-name="Group 157697" opacity="0.6" style="mix-blend-mode: multiply;isolation: isolate">
              <path id="Path_205038" data-name="Path 205038" d="M29.654,160.254a.257.257,0,0,0-.266.255.263.263,0,0,0,.266.263H55.763a.259.259,0,0,0,.259-.263.253.253,0,0,0-.259-.255Z" transform="translate(-29.388 -160.254)" fill="#a3b5e9"/>
            </g>
          </g>
        </g>
      </g>
      <g id="Group_157706" data-name="Group 157706" transform="translate(103.488 118.086)">
        <path id="Path_205039" data-name="Path 205039" d="M44.069,136.21s5.549,7.078,9.315,10.362c1.693,1.591,9.037-4.993,13.6-9.641a5.7,5.7,0,0,1,2.877,4.08s-3.95,3.848-9.817,9.817c-5.063,5.173-9.449,4.863-14.661-1.426S44.069,136.21,44.069,136.21Z" transform="translate(-23.71 -117.483)" fill="#b6cae3"/>
        <path id="Path_205040" data-name="Path 205040" d="M50.25,136.829c-1,1.325-1.086,2.884-.2,3.484s2.414.012,3.417-1.309,1.1-2.88.2-3.48S51.253,135.508,50.25,136.829Z" transform="translate(-3.939 -120.179)" fill="#ffad97"/>
        <path id="Path_205041" data-name="Path 205041" d="M48.21,152.02a82.665,82.665,0,0,0-4.746-15.21l.267,7.2.368,4.824A13.43,13.43,0,0,0,48.21,152.02Z" transform="translate(-21.381 -115.732)" fill="#cde0ef" style="mix-blend-mode: multiply;isolation: isolate"/>
        <g id="Group_157701" data-name="Group 157701" transform="translate(20.998 107.279)">
          <path id="Path_205042" data-name="Path 205042" d="M43.4,158.978v3.307h3.132v-3.479Z" transform="translate(-42.568 -158.806)" fill="#ffad97"/>
          <path id="Path_205043" data-name="Path 205043" d="M44.018,159.41a1.914,1.914,0,0,0-.831,1.658v2.387H55.759s.227-1.407-1.5-1.407a11.961,11.961,0,0,1-5.318-1.677,2.622,2.622,0,0,0-1.791-.96Z" transform="translate(-43.187 -157.042)" fill="url(#linear-gradient-3)"/>
        </g>
        <g id="Group_157702" data-name="Group 157702" transform="translate(2.371 107.279)">
          <path id="Path_205044" data-name="Path 205044" d="M38.644,158.978v3.307h3.133v-3.479Z" transform="translate(-37.821 -158.806)" fill="#ffad97"/>
          <path id="Path_205045" data-name="Path 205045" d="M39.257,159.41a1.917,1.917,0,0,0-.823,1.658v2.387H51s.227-1.407-1.5-1.407a11.908,11.908,0,0,1-5.314-1.677,2.643,2.643,0,0,0-1.8-.96Z" transform="translate(-38.434 -157.042)" fill="url(#linear-gradient-4)"/>
        </g>
        <path id="Path_205046" data-name="Path 205046" d="M56.706,148.65l-1.2,60.09a15.278,15.278,0,0,1-5.436,0c-1.814-8.935-2.23-30.02-4.836-42.976s-4.491-15.641-4.491-21.449S56.706,148.65,56.706,148.65Z" transform="translate(-29.332 -99.058)" fill="#3b3687"/>
        <g id="Group_157703" data-name="Group 157703" transform="translate(2.1 43.1)">
          <path id="Path_205047" data-name="Path 205047" d="M59.724,148.013s-8.477,34.808-11,41.361-5.263,19.787-5.263,19.787a11.59,11.59,0,0,1-5.095-.255s4.483-32.9,5.749-40.048,1.732-22.785,3.308-25.756S59.724,148.013,59.724,148.013Z" transform="translate(-38.365 -142.429)" fill="#3b3687"/>
          <path id="Path_205048" data-name="Path 205048" d="M59.724,148.013s-8.477,34.808-11,41.361-5.263,19.787-5.263,19.787a11.59,11.59,0,0,1-5.095-.255s4.483-32.9,5.749-40.048,1.732-22.785,3.308-25.756S59.724,148.013,59.724,148.013Z" transform="translate(-38.365 -142.429)" fill="#3b3687"/>
          <path id="Path_205049" data-name="Path 205049" d="M59.724,148.013s-8.477,34.808-11,41.361-5.263,19.787-5.263,19.787a11.59,11.59,0,0,1-5.095-.255s4.483-32.9,5.749-40.048,1.732-22.785,3.308-25.756S59.724,148.013,59.724,148.013Z" transform="translate(-38.365 -142.429)" fill="#444199"/>
        </g>
        <g id="Group_157705" data-name="Group 157705" transform="translate(5.863)">
          <g id="Group_157704" data-name="Group 157704">
            <path id="Path_205050" data-name="Path 205050" d="M50.476,140.372a16.012,16.012,0,0,0-1.717-8.05c-.651.294-2.257.533-3.378.835s-.8,1.846-.713,2.579-.176,2.457-.553,2.653c-.368-.78-.925-3.421-2-2.246s-.572,1.509-.172,3.033-1.579,1.6-1.579,1.6c1.415,3.578,1.015,4.656,1.728,5.393,1.622,1.681,5.894,2.637,5.349-.4-.752-1.7-1.305-2.912-1.305-2.912C49.108,143.926,50.253,142.68,50.476,140.372Z" transform="translate(-36.301 -128.832)" fill="#ffad97"/>
            <path id="Path_205051" data-name="Path 205051" d="M51.783,134.921s2.1-.8,2.12-2.01-3-.631-5.663-1.117-6.6-1.031-7.7,2.379a3.186,3.186,0,0,0-1.05,3.382c.682,1.995,2.594,3.237,3.9,5.824,0,0,1.979-.078,1.579-1.6s-.9-1.869.172-3.033,1.634,1.466,2,2.246c.376-.2.631-1.912.553-2.653s-.411-2.273.713-2.579S51.133,135.215,51.783,134.921Z" transform="translate(-39.325 -131.432)" fill="#2a375e"/>
          </g>
        </g>
        <path id="Path_205052" data-name="Path 205052" d="M47.837,136s-5.514,2.108-7.027,5.193,3.754,8.861,5.624,26.59C46.575,169.085,38.267,207,38.267,207s14.469,5.8,29.138,1.489c0,0-2.03-41.545-6.839-62.022-1.568-6.654-2.653-8.724-7.223-10.711A14.133,14.133,0,0,0,47.837,136Z" transform="translate(-36.551 -119.277)" fill="#cde0ef"/>
        <path id="Path_205053" data-name="Path 205053" d="M42.853,138.061l-3.382,5.667,0,0c.31.988.635,2.073.952,3.245A34.057,34.057,0,0,0,42.853,138.061Z" transform="translate(-33.036 -112.08)" fill="#cde0ef" style="mix-blend-mode: multiply;isolation: isolate"/>
        <path id="Path_205054" data-name="Path 205054" d="M42.573,149.688a6.067,6.067,0,0,1-.815-.854c-1.184-1.5-1.442-3.21-.572-3.821.713-.506,1.967-.082,3.053.921Z" transform="translate(-29.535 -92.414)" fill="#ffad97"/>
        <path id="Path_205055" data-name="Path 205055" d="M40.843,135.882c2.59,4.362,11.42,21.233,10.891,74,1.16-.082,2.34-.227,3.531-.423.145-8.3.439-52.816-9.288-73.7l-.153-.071A25.43,25.43,0,0,0,40.843,135.882Z" transform="translate(-29.031 -119.213)" fill="#1b8ea9"/>
        <path id="Path_205056" data-name="Path 205056" d="M40.712,135.975c1.058.968,3.743,3.225,4.832,3.276,1.066.059.756-3.457.662-3.5A14.935,14.935,0,0,0,40.712,135.975Z" transform="translate(-29.414 -119.275)" fill="#ffad97"/>
        <path id="Path_205057" data-name="Path 205057" d="M47.889,179.94c.074-4.342.188-18.6-1.105-34.209l-3.413.141c.717,9.343,1.125,20.688.988,34.491C45.518,180.281,46.7,180.136,47.889,179.94Z" transform="translate(-21.655 -89.692)" fill="#3b3687"/>
        <path id="Path_205058" data-name="Path 205058" d="M40.219,142.767c.149,1,.286,2.038.411,3.127l2.183,2.665Z" transform="translate(-30.853 -98.344)" fill="#cde0ef" style="mix-blend-mode: multiply;isolation: isolate"/>
        <path id="Path_205059" data-name="Path 205059" d="M42.089,137.907c-2.1,2.763-4.044,12.631-4.256,16.82s8.269,13.411,9.95,14.622c0,0,2.1-1.023,2.171-2.853,0,0-6.055-9.17-6.541-11.992-.5-2.841,3.848-9.684,4.233-12.529C47.936,139.866,44.84,134.3,42.089,137.907Z" transform="translate(-37.829 -115.994)" fill="#cde0ef"/>
      </g>
      <g id="Group_157718" data-name="Group 157718" transform="translate(170.152 115.513)">
        <path id="Path_205060" data-name="Path 205060" d="M77.582,136.021s-6.086,7.129-10.221,10.44c-1.862,1.6-13.74-1.736-7.309,4.287,5.557,5.208,10.37,4.9,16.087-1.438S77.582,136.021,77.582,136.021Z" transform="translate(-45.147 -115.462)" fill="#33b58a"/>
        <path id="Path_205061" data-name="Path 205061" d="M61.3,151.959c1.293-6.917,5.208-15.335,5.208-15.335l-.3,7.262-.4,4.863A14.723,14.723,0,0,1,61.3,151.959Z" transform="translate(-35.97 -113.702)" opacity="0.2" style="mix-blend-mode: multiply;isolation: isolate"/>
        <g id="Group_157707" data-name="Group 157707" transform="translate(17.928 109.802)">
          <path id="Path_205062" data-name="Path 205062" d="M65.265,158.961v3.333H61.828v-3.5Z" transform="translate(-52.369 -158.793)" fill="#ffad97"/>
          <path id="Path_205063" data-name="Path 205063" d="M72.311,159.4a1.907,1.907,0,0,1,.905,1.666v2.41H59.425s-.251-1.419,1.642-1.419a13.923,13.923,0,0,0,5.843-1.693,2.975,2.975,0,0,1,1.963-.964Z" transform="translate(-59.414 -157.015)" fill="url(#linear-gradient-5)"/>
        </g>
        <g id="Group_157708" data-name="Group 157708" transform="translate(38.373 109.802)">
          <path id="Path_205064" data-name="Path 205064" d="M70.481,158.961v3.333H67.046v-3.5Z" transform="translate(-57.581 -158.793)" fill="#ffad97"/>
          <path id="Path_205065" data-name="Path 205065" d="M77.532,159.4a1.907,1.907,0,0,1,.905,1.666v2.41H64.643s-.255-1.419,1.642-1.419a13.866,13.866,0,0,0,5.839-1.693A3,3,0,0,1,74.1,159.4Z" transform="translate(-64.631 -157.015)" fill="url(#linear-gradient-6)"/>
        </g>
        <path id="Path_205066" data-name="Path 205066" d="M61.152,148.555l1.321,60.56a18.011,18.011,0,0,0,5.965,0c1.991-9.006,2.442-30.251,5.3-43.309s4.934-15.762,4.934-21.617S61.152,148.555,61.152,148.555Z" transform="translate(-36.414 -96.895)" fill="#2b2161"/>
        <g id="Group_157709" data-name="Group 157709" transform="translate(29.033 45.111)">
          <path id="Path_205067" data-name="Path 205067" d="M62.248,147.921s9.3,35.083,12.07,41.686S80.1,209.552,80.1,209.552a13.751,13.751,0,0,0,5.581-.266s-4.918-33.147-6.3-40.358-1.909-22.954-3.641-25.963S62.248,147.921,62.248,147.921Z" transform="translate(-62.248 -142.286)" fill="#ffbf00"/>
          <path id="Path_205068" data-name="Path 205068" d="M62.248,147.921s9.3,35.083,12.07,41.686S80.1,209.552,80.1,209.552a13.751,13.751,0,0,0,5.581-.266s-4.918-33.147-6.3-40.358-1.909-22.954-3.641-25.963S62.248,147.921,62.248,147.921Z" transform="translate(-62.248 -142.286)" fill="#3b3687"/>
          <path id="Path_205069" data-name="Path 205069" d="M62.248,147.921s9.3,35.083,12.07,41.686S80.1,209.552,80.1,209.552a13.751,13.751,0,0,0,5.581-.266s-4.918-33.147-6.3-40.358-1.909-22.954-3.641-25.963S62.248,147.921,62.248,147.921Z" transform="translate(-62.248 -142.286)" fill="#444199"/>
        </g>
        <g id="Group_157711" data-name="Group 157711" transform="translate(31.458)">
          <g id="Group_157710" data-name="Group 157710">
            <path id="Path_205070" data-name="Path 205070" d="M63.24,140.213a15.06,15.06,0,0,1,1.893-8.112c.705.294,2.469.533,3.7.839s.874,1.858.78,2.6.2,2.477.611,2.677c.4-.788,1.015-3.449,2.2-2.269,1.168,1.176.627,1.521.18,3.061s1.74,1.622,1.74,1.622c-1.548,3.6-1.113,4.683-1.9,5.428-1.779,1.689-6.462,2.669-5.871-.4.831-1.717,1.438-2.939,1.438-2.939C64.741,143.8,63.491,142.541,63.24,140.213Z" transform="translate(-61.914 -126.905)" fill="#ffad97"/>
            <path id="Path_205071" data-name="Path 205071" d="M64.146,137.147c-1.924-.694-2.395-6.129,3.8-6.365,2.951-.11,9.261,1,10.475,4.436,0,0,1.67,1.25.89,4.675-.474,2.093-3.19,5.824-4.589,6.462,0,0-1.6-1.94-1.16-3.476s.988-1.885-.18-3.061c-1.184-1.18-1.795,1.481-2.2,2.269-.415-.2-.694-1.932-.611-2.677s.455-2.293-.78-2.6S66.074,137.852,64.146,137.147Z" transform="translate(-62.867 -130.775)" fill="#2a375e"/>
          </g>
        </g>
        <path id="Path_205072" data-name="Path 205072" d="M83.52,178.116c-1.262-5.585-2.183-9.86-2.132-10.284,2.054-17.863,7.834-23.675,6.172-26.794s-7.709-5.228-7.709-5.228a16.752,16.752,0,0,0-6.043-.251c-5.016,2-6.2,4.084-7.924,10.8-2.214,8.661-3.892,21.061-5.091,32.539C64.109,179.7,74.918,181.847,83.52,178.116Z" transform="translate(-37.459 -117.274)" fill="#57d09e"/>
        <path id="Path_205073" data-name="Path 205073" d="M66.068,137.886l3.715,5.7-.008.012c-.337,1-.694,2.085-1.042,3.272A32.176,32.176,0,0,1,66.068,137.886Z" transform="translate(-22.064 -110.018)" opacity="0.3" style="mix-blend-mode: multiply;isolation: isolate"/>
        <path id="Path_205074" data-name="Path 205074" d="M70.4,135.784c-1.168.972-4.107,3.249-5.3,3.312-1.168.043-1.109-2.308-1.023-3.413.1-.039.188-.086.294-.125A17.911,17.911,0,0,1,70.4,135.784Z" transform="translate(-28.014 -117.272)" fill="#ffad97"/>
        <path id="Path_205075" data-name="Path 205075" d="M68.313,142.626c-.161,1.015-.31,2.057-.447,3.155l-2.4,2.688Z" transform="translate(-23.816 -96.182)" fill="#d9d9d9"/>
        <path id="Path_205076" data-name="Path 205076" d="M58.976,143.788c.549,1.728.114,3.288-.96,3.476s-2.391-1.062-2.939-2.794-.118-3.284.964-3.468S58.435,142.064,58.976,143.788Z" transform="translate(-54.84 -100.978)" fill="#ffad97"/>
        <g id="Group_157716" data-name="Group 157716" transform="translate(3.07 28.577)">
          <path id="Path_205077" data-name="Path 205077" d="M92.441,157.5l.915-1.282-5.228-11.412-3.389-5.373-4.38,1.634-14.3,1.229-8.4,6.418-1,7.968.942,1.29L66.64,162.2,80.3,164.188Z" transform="translate(-52.617 -134.078)" fill="#fff"/>
          <g id="Group_157715" data-name="Group 157715">
            <g id="Group_157714" data-name="Group 157714">
              <g id="Group_157712" data-name="Group 157712" transform="translate(4.977 13.423)">
                <path id="Path_205078" data-name="Path 205078" d="M83.311,150.925l-1.1-9.433L80.391,155.6a.666.666,0,0,1-.6.568h-.039a.663.663,0,0,1-.631-.478l-3.006-11-2.14,6.521a.646.646,0,0,1-.6.447H68.7a.625.625,0,0,1-.58-.376l-4.272-9.355-4.844,9.684a.645.645,0,0,1-.572.357h-1.54c5.761,7.587,14.751,14.712,16.989,16.44l.259.192.255-.192c2.285-1.764,11.6-9.151,17.345-16.91H83.954A.645.645,0,0,1,83.311,150.925Z" transform="translate(-56.893 -141.492)" fill="#f17578"/>
              </g>
              <g id="Group_157713" data-name="Group 157713">
                <path id="Path_205079" data-name="Path 205079" d="M88.754,138.067a11.767,11.767,0,0,0-10.907,6.509,11.769,11.769,0,0,0-10.91-6.509c-3.3,0-11.314,2.833-11.314,12.745,0,3.029,1.65,6.466,4.037,9.86h2.081l5.267-10.534a.633.633,0,0,1,.592-.353.645.645,0,0,1,.572.368l4.652,10.209h3.782l2.661-8.116a.644.644,0,0,1,.627-.443.654.654,0,0,1,.607.47l2.728,9.982,2.081-16.111a.643.643,0,0,1,1.278,0l1.65,14.061h8.124c2.214-3.245,3.707-6.505,3.707-9.4C100.068,140.9,92.05,138.067,88.754,138.067Z" transform="translate(-55.623 -138.067)" fill="#f17578"/>
              </g>
            </g>
          </g>
        </g>
        <g id="Group_157717" data-name="Group 157717" transform="translate(37.758 22.568)">
          <path id="Path_205080" data-name="Path 205080" d="M74.052,137.73c2.3,2.782,4.436,12.733,4.675,16.95C78.95,158.9,69.651,168.2,67.8,169.423c0,0-2.3-1.031-2.383-2.877,0,0,6.647-9.241,7.176-12.09s-4.229-9.758-4.644-12.623C67.636,139.713,71.034,134.093,74.052,137.73Z" transform="translate(-61.708 -136.534)" fill="#33b58a"/>
          <path id="Path_205081" data-name="Path 205081" d="M65.281,146.408c1.035-1.376,2.7-2.014,3.7-1.442s.964,2.144-.086,3.511c-1.031,1.368-2.688,2.014-3.692,1.442S64.234,147.768,65.281,146.408Z" transform="translate(-64.474 -112.532)" fill="#ffad97"/>
        </g>
      </g>
      <g id="Group_157738" data-name="Group 157738" transform="translate(42.684 69.644)">
        <g id="Group_157719" data-name="Group 157719">
          <path id="Rectangle_168871" data-name="Rectangle 168871" d="M.86,0H46.992a.86.86,0,0,1,.86.86v65.2a.861.861,0,0,1-.861.861H.861A.861.861,0,0,1,0,66.064V.86A.86.86,0,0,1,.86,0Z" transform="translate(0 9.378)" fill="#292f61"/>
          <path id="Path_205082" data-name="Path 205082" d="M65.193,172.611l-9.768,9.005H23.065V122.069H65.193Z" transform="translate(-20.121 -110.319)" fill="#fff"/>
          <path id="Path_205083" data-name="Path 205083" d="M43.181,123.805a5.434,5.434,0,0,0-10.777,0H25.236v8.445H50.353v-8.445Zm-5.389,4.166a3.437,3.437,0,1,1,3.437-3.437A3.438,3.438,0,0,1,37.792,127.971Z" transform="translate(-13.785 -119.071)" fill="#25a9e0"/>
          <path id="Path_205084" data-name="Path 205084" d="M41.116,134.966h-9.8l.034,9.005Z" transform="translate(3.956 -72.674)" fill="#aeb7c0"/>
        </g>
        <g id="Group_157725" data-name="Group 157725" transform="translate(6.262 49.56)">
          <g id="Group_157720" data-name="Group 157720" transform="translate(11.777 3.272)">
            <path id="Path_205085" data-name="Path 205085" d="M27.618,132.552a.7.7,0,1,0,0,1.4H39.485a.7.7,0,1,0,0-1.4Z" transform="translate(-26.917 -132.552)" fill="#679ce0"/>
          </g>
          <g id="Group_157721" data-name="Group 157721" transform="translate(26.144 3.272)">
            <path id="Path_205086" data-name="Path 205086" d="M31.281,132.552a.7.7,0,1,0,0,1.4h7.274a.7.7,0,1,0,0-1.4Z" transform="translate(-30.583 -132.552)" fill="#679ce0"/>
          </g>
          <g id="Group_157722" data-name="Group 157722" transform="translate(11.358 7.007)">
            <path id="Path_205087" data-name="Path 205087" d="M27.508,133.5a.7.7,0,0,0,0,1.4H32.2a.7.7,0,0,0,0-1.4Z" transform="translate(-26.81 -133.505)" fill="#679ce0"/>
          </g>
          <g id="Group_157723" data-name="Group 157723" transform="translate(19.066 7.007)">
            <path id="Path_205088" data-name="Path 205088" d="M29.479,133.5a.7.7,0,1,0,0,1.4H43.814a.7.7,0,0,0,0-1.4Z" transform="translate(-28.777 -133.505)" fill="#679ce0"/>
          </g>
          <g id="Group_157724" data-name="Group 157724">
            <path id="Path_205089" data-name="Path 205089" d="M31.672,132.112s-3.359,4.785-4.483,6.376c-.69-1-1.572-2.281-1.572-2.281a.935.935,0,0,0-1.54,1.062l2.336,3.386a.928.928,0,0,0,1.536.008l5.251-7.47a.936.936,0,1,0-1.528-1.082Z" transform="translate(-23.912 -131.717)" fill="#679ce0"/>
          </g>
        </g>
        <g id="Group_157731" data-name="Group 157731" transform="translate(6.262 34.771)">
          <g id="Group_157726" data-name="Group 157726" transform="translate(11.777 3.263)">
            <path id="Path_205090" data-name="Path 205090" d="M27.618,128.776a.705.705,0,0,0,0,1.411H39.485a.705.705,0,0,0,0-1.411Z" transform="translate(-26.917 -128.776)" fill="#679ce0"/>
          </g>
          <g id="Group_157727" data-name="Group 157727" transform="translate(26.144 3.263)">
            <path id="Path_205091" data-name="Path 205091" d="M31.281,128.776a.705.705,0,0,0,0,1.411h7.274a.705.705,0,0,0,0-1.411Z" transform="translate(-30.583 -128.776)" fill="#679ce0"/>
          </g>
          <g id="Group_157728" data-name="Group 157728" transform="translate(11.358 7.006)">
            <path id="Path_205092" data-name="Path 205092" d="M27.508,129.731a.7.7,0,0,0,0,1.4H32.2a.7.7,0,1,0,0-1.4Z" transform="translate(-26.81 -129.731)" fill="#679ce0"/>
          </g>
          <g id="Group_157729" data-name="Group 157729" transform="translate(19.066 7.006)">
            <path id="Path_205093" data-name="Path 205093" d="M29.479,129.731a.7.7,0,1,0,0,1.4H43.814a.7.7,0,1,0,0-1.4Z" transform="translate(-28.777 -129.731)" fill="#679ce0"/>
          </g>
          <g id="Group_157730" data-name="Group 157730">
            <path id="Path_205094" data-name="Path 205094" d="M31.672,128.338s-3.359,4.781-4.483,6.38c-.69-1.007-1.572-2.285-1.572-2.285a.933.933,0,0,0-1.54,1.054l2.336,3.4a.946.946,0,0,0,1.536,0l5.251-7.477a.934.934,0,0,0-.223-1.3A.947.947,0,0,0,31.672,128.338Z" transform="translate(-23.912 -127.943)" fill="#679ce0"/>
          </g>
        </g>
        <g id="Group_157737" data-name="Group 157737" transform="translate(6.262 20.6)">
          <g id="Group_157732" data-name="Group 157732" transform="translate(11.777 3.271)">
            <path id="Path_205095" data-name="Path 205095" d="M27.618,125.162a.7.7,0,1,0,0,1.4H39.485a.7.7,0,0,0,0-1.4Z" transform="translate(-26.917 -125.162)" fill="#679ce0"/>
          </g>
          <g id="Group_157733" data-name="Group 157733" transform="translate(26.144 3.271)">
            <path id="Path_205096" data-name="Path 205096" d="M31.281,125.162a.7.7,0,0,0,0,1.4h7.274a.7.7,0,0,0,0-1.4Z" transform="translate(-30.583 -125.162)" fill="#679ce0"/>
          </g>
          <g id="Group_157734" data-name="Group 157734" transform="translate(11.358 7.005)">
            <path id="Path_205097" data-name="Path 205097" d="M27.508,126.115a.7.7,0,0,0,0,1.407H32.2a.7.7,0,0,0,0-1.407Z" transform="translate(-26.81 -126.115)" fill="#679ce0"/>
          </g>
          <g id="Group_157735" data-name="Group 157735" transform="translate(19.066 7.005)">
            <path id="Path_205098" data-name="Path 205098" d="M29.479,126.115a.7.7,0,0,0,0,1.407H43.814a.7.7,0,0,0,0-1.407Z" transform="translate(-28.777 -126.115)" fill="#679ce0"/>
          </g>
          <g id="Group_157736" data-name="Group 157736">
            <path id="Path_205099" data-name="Path 205099" d="M31.672,124.725s-3.359,4.777-4.483,6.38c-.69-1.007-1.572-2.285-1.572-2.285a.934.934,0,0,0-1.54,1.058l2.336,3.386a.941.941,0,0,0,1.536.012L33.2,125.8a.933.933,0,1,0-1.528-1.07Z" transform="translate(-23.912 -124.327)" fill="#679ce0"/>
          </g>
        </g>
      </g>
      <g id="Group_157741" data-name="Group 157741" transform="translate(234.829 117.93)">
        <path id="Path_205100" data-name="Path 205100" d="M101.233,146.351A14.945,14.945,0,1,1,86.29,131.392,14.947,14.947,0,0,1,101.233,146.351Z" transform="translate(-71.343 -131.392)" fill="#292f61"/>
        <g id="Group_157740" data-name="Group 157740" transform="translate(7.151 8.44)">
          <g id="Group_157739" data-name="Group 157739">
            <path id="Path_205101" data-name="Path 205101" d="M85.255,134.311s-4.26,5.408-6.157,7.807c-1.168-1.223-2.442-2.543-2.442-2.543a2.026,2.026,0,1,0-2.924,2.806l4.048,4.221a2.031,2.031,0,0,0,1.564.619,2.009,2.009,0,0,0,1.489-.764l7.6-9.629a2.028,2.028,0,0,0-3.182-2.516Z" transform="translate(-73.168 -133.546)" fill="#fff"/>
          </g>
        </g>
      </g>
      <g id="Group_157743" data-name="Group 157743" transform="translate(247.232 161.204)">
        <g id="Group_157742" data-name="Group 157742">
          <path id="Path_205102" data-name="Path 205102" d="M74.508,147.305a4.871,4.871,0,1,0,4.871-4.871A4.881,4.881,0,0,0,74.508,147.305Zm1.865,0a3.008,3.008,0,1,1,3.006,3.006A3.011,3.011,0,0,1,76.373,147.305Z" transform="translate(-74.508 -142.434)" fill="#bdd1e9"/>
        </g>
      </g>
      <g id="Group_157745" data-name="Group 157745" transform="translate(18.782 105.143)">
        <g id="Group_157744" data-name="Group 157744">
          <path id="Path_205103" data-name="Path 205103" d="M16.215,133a4.871,4.871,0,1,0,4.871-4.867A4.876,4.876,0,0,0,16.215,133Zm1.869,0a3,3,0,1,1,3,3A3,3,0,0,1,18.084,133Z" transform="translate(-16.215 -128.129)" fill="#bdd1e9"/>
        </g>
      </g>
      <g id="Group_157749" data-name="Group 157749" transform="translate(168.578 217.579)">
        <g id="Group_157748" data-name="Group 157748">
          <g id="Group_157746" data-name="Group 157746">
            <path id="Path_205104" data-name="Path 205104" d="M55.371,156.819a.935.935,0,0,0,0,1.869H64.71a.935.935,0,0,0,0-1.869Z" transform="translate(-54.438 -156.819)" fill="#bdd1e9"/>
          </g>
          <g id="Group_157747" data-name="Group 157747" transform="translate(13.336)">
            <path id="Path_205105" data-name="Path 205105" d="M58.778,156.819a.935.935,0,1,0,0,1.869h1.709a.935.935,0,0,0,0-1.869Z" transform="translate(-57.841 -156.819)" fill="#bdd1e9"/>
          </g>
        </g>
      </g>
      <g id="Group_157753" data-name="Group 157753" transform="translate(78.269 183.327)">
        <g id="Group_157752" data-name="Group 157752">
          <g id="Group_157750" data-name="Group 157750">
            <path id="Path_205106" data-name="Path 205106" d="M32.327,148.079a.933.933,0,0,0,0,1.865h9.339a.933.933,0,1,0,0-1.865Z" transform="translate(-31.394 -148.079)" fill="#bdd1e9"/>
          </g>
          <g id="Group_157751" data-name="Group 157751" transform="translate(13.34)">
            <path id="Path_205107" data-name="Path 205107" d="M35.735,148.079a.933.933,0,1,0,0,1.865h1.709a.933.933,0,0,0,0-1.865Z" transform="translate(-34.798 -148.079)" fill="#bdd1e9"/>
          </g>
        </g>
      </g>
      <g id="Group_157757" data-name="Group 157757" transform="translate(274.998 178.792)">
        <g id="Group_157756" data-name="Group 157756">
          <g id="Group_157754" data-name="Group 157754">
            <path id="Path_205108" data-name="Path 205108" d="M82.526,146.922a.933.933,0,1,0,0,1.865h9.343a.933.933,0,1,0,0-1.865Z" transform="translate(-81.593 -146.922)" fill="#bdd1e9"/>
          </g>
          <g id="Group_157755" data-name="Group 157755" transform="translate(13.34)">
            <path id="Path_205109" data-name="Path 205109" d="M85.934,146.922a.933.933,0,1,0,0,1.865h1.713a.933.933,0,1,0,0-1.865Z" transform="translate(-84.997 -146.922)" fill="#bdd1e9"/>
          </g>
        </g>
      </g>
      <g id="Group_157761" data-name="Group 157761" transform="translate(61.452 51.3)">
        <g id="Group_157760" data-name="Group 157760">
          <g id="Group_157758" data-name="Group 157758">
            <path id="Path_205110" data-name="Path 205110" d="M28.036,114.39a.931.931,0,1,0,0,1.862h9.343a.931.931,0,1,0,0-1.862Z" transform="translate(-27.103 -114.39)" fill="#bdd1e9"/>
          </g>
          <g id="Group_157759" data-name="Group 157759" transform="translate(13.34)">
            <path id="Path_205111" data-name="Path 205111" d="M31.444,114.39a.931.931,0,1,0,0,1.862h1.709a.931.931,0,1,0,0-1.862Z" transform="translate(-30.507 -114.39)" fill="#bdd1e9"/>
          </g>
        </g>
      </g>
      <g id="Group_157765" data-name="Group 157765" transform="translate(269.469 66.243)">
        <g id="Group_157764" data-name="Group 157764">
          <g id="Group_157762" data-name="Group 157762">
            <path id="Path_205112" data-name="Path 205112" d="M81.115,118.2a.935.935,0,0,0,0,1.869h9.339a.935.935,0,0,0,0-1.869Z" transform="translate(-80.182 -118.203)" fill="#bdd1e9"/>
          </g>
          <g id="Group_157763" data-name="Group 157763" transform="translate(13.332)">
            <path id="Path_205113" data-name="Path 205113" d="M84.528,118.2a.935.935,0,1,0,0,1.869h1.7a.935.935,0,0,0,0-1.869Z" transform="translate(-83.584 -118.203)" fill="#bdd1e9"/>
          </g>
        </g>
      </g>
      <path id="Path_205114" data-name="Path 205114" d="M56.467,132.556H54.077v-2.391a.935.935,0,0,0-1.869,0v2.391H49.817a.937.937,0,0,0,0,1.873h2.391v2.391a.935.935,0,0,0,1.869,0V134.43h2.391a.937.937,0,0,0,0-1.873Z" transform="translate(97.916 -19.764)" fill="#bdd1e9"/>
      <path id="Path_205115" data-name="Path 205115" d="M91.428,133.672h-2.4v-2.391a.926.926,0,0,0-.921-.937.936.936,0,0,0-.944.937v2.391H84.778a.935.935,0,1,0,0,1.869h2.387v2.391a.942.942,0,0,0,.944.941.932.932,0,0,0,.921-.941v-2.391h2.4a.935.935,0,0,0,0-1.869Z" transform="translate(199.967 -16.518)" fill="#bdd1e9"/>
      <path id="Path_205116" data-name="Path 205116" d="M22.455,156.875H20.061v-2.4a.933.933,0,0,0-1.865,0v2.4H15.8a.933.933,0,1,0,0,1.865H18.2v2.391a.933.933,0,1,0,1.865,0v-2.391h2.395a.933.933,0,1,0,0-1.865Z" transform="translate(-1.353 51.212)" fill="#bdd1e9"/>
      <g id="Group_157766" data-name="Group 157766" transform="translate(246.812 195.029)">
        <path id="Path_205117" data-name="Path 205117" d="M98.1,175.284l5.334-.137a37.035,37.035,0,0,0,6.086-13.795l-4.178-.29,4.53-1.579a45.867,45.867,0,0,0,.725-8.418,44.6,44.6,0,0,0-15.045,4.526l-.368,3.551-.705-2.963a28.767,28.767,0,0,0-11.9,12l1.352,5.737-2.332-3.66a29.09,29.09,0,0,0-1.952,7.909c-.208,5.667,0,9.1,0,9.1h8.7a35.779,35.779,0,0,0,13.94-10.648Z" transform="translate(-59.375 -151.065)" fill="#52c7a3"/>
        <path id="Path_205118" data-name="Path 205118" d="M96.375,172.983a19.856,19.856,0,0,0-2.763-8.383l-1.278,2.688.415-3.911a22.789,22.789,0,0,0-9.762-7.4l-.255,2.426-.666-2.779a31.48,31.48,0,0,0-7.666-1.881,30.571,30.571,0,0,0,1.83,10.91l2.218.7-1.877.188a25.682,25.682,0,0,0,6.69,9.468l4.35.231-2.83,1.035a23.27,23.27,0,0,0,5.416,3.17h6.176S96.513,177.008,96.375,172.983Z" transform="translate(-74.401 -143.242)" fill="#78c7c7"/>
        <path id="Path_205119" data-name="Path 205119" d="M79.182,158.612c-1.356-1.285-4.193-4.28-4.193-4.28a48.2,48.2,0,0,1,4.695,3.48c11.259,10.636,13.611,19.4,13.713,19.807l-.447.118h-.482C92.154,176.67,89.45,168.4,79.182,158.612Z" transform="translate(-72.684 -141.529)" fill="#fff" opacity="0.25" style="mix-blend-mode: screen;isolation: isolate"/>
        <path id="Path_205120" data-name="Path 205120" d="M81.121,185.4h-1a65.945,65.945,0,0,1,21.9-30.96,42.846,42.846,0,0,1,4.456-2.728s-2.457,2.359-3.727,3.359A65.284,65.284,0,0,0,81.121,185.4Z" transform="translate(-57.689 -149.188)" fill="#fff" opacity="0.21" style="mix-blend-mode: screen;isolation: isolate"/>
      </g>
    </g>
  </g>
</svg>
