<svg xmlns="http://www.w3.org/2000/svg" width="131.242" height="88.269" viewBox="0 0 131.242 88.269">
  <g id="Policy_holder_name" transform="translate(-196.278 -281.731)">
    <g id="Group_1180" data-name="Group 1180" transform="translate(312.897 370) rotate(-150)">
      <path id="Path_115663" data-name="Path 115663" d="M0,24.276S-.324,8.564,4.707,2.421s8.468.974,5.216,4.067S2.773,11.816,0,24.276Zm0,0" transform="translate(0 0)" fill="#ffcf00" fill-rule="evenodd"/>
      <path id="Path_115664" data-name="Path 115664" d="M0,13.985S1.443,4.34,5.161,1.108s5.079,1.48,2.764,3.035S3,6.653,0,13.985Zm0,0" transform="translate(5.027 13.242)" fill="#ffcf00" fill-rule="evenodd"/>
    </g>
    <g id="Group_1181" data-name="Group 1181" transform="matrix(0.978, -0.208, 0.208, 0.978, 196.278, 319.93)">
      <path id="Path_115663-2" data-name="Path 115663" d="M0,24.276S-.324,8.564,4.707,2.421s8.468.974,5.216,4.067S2.773,11.816,0,24.276Zm0,0" transform="translate(0 0)" fill="#ffcf00" fill-rule="evenodd"/>
      <path id="Path_115664-2" data-name="Path 115664" d="M0,13.985S1.443,4.34,5.161,1.108s5.079,1.48,2.764,3.035S3,6.653,0,13.985Zm0,0" transform="translate(5.027 13.242)" fill="#ffcf00" fill-rule="evenodd"/>
    </g>
    <path id="Path_115672" data-name="Path 115672" d="M1604.147,1695.557c-1.589,7.989,3.974,20.7,3.179,33.408s-16.69,22.695-2.385,32.319,45.1-5.266,81.266-7.082,35.567-53.381,22.453-58.464-27.818,5.629-40.931,6.355c-17.013.942-58.762-30.765-63.583-6.536Zm0,0" transform="translate(-1389.338 -1404.685)" fill="#ffcf00" fill-rule="evenodd"/>
    <g id="client" transform="translate(246.838 303)">
      <path id="Path_115707" data-name="Path 115707" d="M43.389,41.778A3.389,3.389,0,1,0,40,38.389,3.389,3.389,0,0,0,43.389,41.778Z" transform="translate(-10.631 -10.631)" fill="#fff"/>
      <path id="Path_115708" data-name="Path 115708" d="M47.846,54.778H37C37,51.389,38.463,48,42.423,48S47.846,51.389,47.846,54.778Z" transform="translate(-9.665 -14.819)" fill="#fff"/>
      <path id="Path_115709" data-name="Path 115709" d="M28.242,31.845A6.082,6.082,0,0,1,26.7,28.436H23.946V25.725h3.067a6.121,6.121,0,0,1,1.918-2.711H23.946V20.3h6.778v1.712a6.054,6.054,0,0,1,2.034-.356,6.125,6.125,0,0,1,1.356.157V7.423a1.356,1.356,0,0,0-1.356-1.356H29.369V3.356A1.356,1.356,0,0,0,28.013,2h-12.2a1.356,1.356,0,0,0-1.356,1.356V6.067H11.067A1.356,1.356,0,0,0,9.711,7.423V34.537H8.356A1.356,1.356,0,0,0,7,35.892v1.356H24.9A8.625,8.625,0,0,1,28.242,31.845Zm-4.3-22.389h6.778v2.711H23.946Zm0,5.423h6.778V17.59H23.946ZM19.879,28.436H13.1V25.725h6.778Zm0-5.423H13.1V20.3h6.778Zm0-5.423H13.1V14.879h6.778Zm0-5.423H13.1V9.456h6.778Z" fill="#fff"/>
    </g>
  </g>
</svg>
