<svg xmlns="http://www.w3.org/2000/svg" width="114.244" height="74.376" viewBox="0 0 114.244 74.376">
  <g id="Policy_number" transform="translate(-223.565 -403.525)">
    <path id="Path_115679" data-name="Path 115679" d="M269.442,1679.739c-11.093,4.469-21.524,14.238-14.9,31.458s20.86,18.918,29.469,16.931,11.5-11.509,28.48-8.488c52.612,9.359,50.348-44.038,15.4-46.027-14.785-.842-15.067-17.881-31.955-16.888s-15.4,18.544-26.491,23.014Zm0,0" transform="translate(-28.055 -1253.158)" fill="#fe0444" fill-rule="evenodd"/>
    <path id="Path_115680" data-name="Path 115680" d="M5.517,11.83S.223,6.285.009,2.418s3.366-2.44,3.216-.255S2.408,6.436,5.517,11.83Zm0,0" transform="translate(231.169 417.153) rotate(40)" fill="#d21341" fill-rule="evenodd"/>
    <path id="Path_115685" data-name="Path 115685" d="M5.517,11.83S.223,6.285.009,2.418s3.366-2.44,3.216-.255S2.408,6.436,5.517,11.83Zm0,0" transform="translate(324.822 477.9) rotate(-140)" fill="#d21341" fill-rule="evenodd"/>
    <path id="Path_115681" data-name="Path 115681" d="M1.614,7.813s-2.1-4.269-1.508-6.6S2.553.4,2.057,1.663.777,4.04,1.614,7.813Zm0,0" transform="translate(232.526 425.153) rotate(40)" fill="#d21341" fill-rule="evenodd"/>
    <path id="Path_115684" data-name="Path 115684" d="M1.614,7.813s-2.1-4.269-1.508-6.6S2.553.4,2.057,1.663.777,4.04,1.614,7.813Zm0,0" transform="translate(323.465 469.9) rotate(-140)" fill="#d21341" fill-rule="evenodd"/>
    <path id="Path_115686" data-name="Path 115686" d="M1219.212,2016.981a.484.484,0,0,1-.715.064.566.566,0,0,1-.06-.762c2.771-3.485,4.9-9.183,5.8-15.07.841-5.477.617-11.1-1.142-15.216a.557.557,0,0,1,.25-.717.494.494,0,0,1,.671.268c1.848,4.325,2.091,10.17,1.223,15.838-.931,6.069-3.142,11.964-6.027,15.594Zm0,0" transform="matrix(0.966, -0.259, 0.259, 0.966, -1368.23, -1175.514)" fill="#fe0444"/>
    <g id="health_insurance" transform="translate(260 425)">
      <path id="Path_115693" data-name="Path 115693" d="M28,3a3,3,0,0,1,3,3v4a1,1,0,0,1-1,1H25V6A3,3,0,0,1,28,3ZM14,11H13V10a1,1,0,0,0-2,0v1H10a1,1,0,0,0,0,2h1v1a1,1,0,0,0,2,0V13h1a1,1,0,0,0,0-2ZM26,1a3,3,0,0,0-3,3V18.76a8.426,8.426,0,0,1-3,.78H18v5.08A7.8,7.8,0,0,0,20.92,31H2a1,1,0,0,1-1-1V4A3,3,0,0,1,4,1ZM15,25a1,1,0,0,0-1-1H6a1,1,0,0,0,0,2h8A1,1,0,0,0,15,25Zm0-4a1,1,0,0,0-1-1H6a1,1,0,0,0,0,2h8A1,1,0,0,0,15,21Zm2-9a5,5,0,1,0-5,5A5,5,0,0,0,17,12Zm13,9.539v3.076c0,4.23-3.077,5.615-5,6.385-1.923-.77-5-2.154-5-6.385V21.539A12.25,12.25,0,0,0,25,20,12.25,12.25,0,0,0,30,21.539Zm-2.043,1.754a1,1,0,0,0-1.414,0L24.25,25.586l-.793-.793a1,1,0,0,0-1.414,1.414l1.5,1.5a1,1,0,0,0,1.414,0l3-3a1,1,0,0,0,0-1.414Z" fill="#fff"/>
    </g>
  </g>
</svg>
