<svg xmlns="http://www.w3.org/2000/svg" width="83.146" height="69.376" viewBox="0 0 83.146 69.376">
  <g id="Policy_Expiry_Date_" data-name="Policy_Expiry_Date " transform="translate(-244 -525.312)">
    <path id="Path_115687" data-name="Path 115687" d="M380.226,1715c-18.16-3.463-35.591-4.029-39.789,7.723s23.169,52.549,36.935,56.243,20.986-14.774,35.089-22.5,13.048-40.817,3.813-45.35-17.887,7.343-36.048,3.88Zm0,0" transform="translate(-96.005 -1184.76)" fill="#338dff" fill-rule="evenodd"/>
    <path id="Path_115688" data-name="Path 115688" d="M1095.407,1634.408a5.711,5.711,0,1,1-5.711-5.711,5.711,5.711,0,0,1,5.711,5.711Zm0,0" transform="translate(-774.811 -1048.197)" fill="#338dff" fill-rule="evenodd"/>
    <g id="Layer_2" data-name="Layer 2" transform="translate(273 544)">
      <path id="Path_115690" data-name="Path 115690" d="M23.9,3.427H21.628V2.213a1.213,1.213,0,0,0-2.427,0V3.427h-3.64V2.213a1.213,1.213,0,1,0-2.427,0V3.427H9.494V2.213a1.213,1.213,0,1,0-2.427,0V3.427H4.792A3.8,3.8,0,0,0,1,7.219v3.488H27.695V7.219A3.8,3.8,0,0,0,23.9,3.427Z" fill="#fff"/>
      <path id="Path_115691" data-name="Path 115691" d="M1,21.769a3.8,3.8,0,0,0,3.792,3.792H23.9a3.8,3.8,0,0,0,3.792-3.792V11H1Zm8.849-4.875a1.213,1.213,0,0,1,1.716,0l1.569,1.568,4-3.994a1.213,1.213,0,1,1,1.716,1.716l-4.854,4.853a1.213,1.213,0,0,1-1.716,0L9.849,18.609A1.213,1.213,0,0,1,9.849,16.893Z" transform="translate(0 2.134)" fill="#fff"/>
    </g>
  </g>
</svg>
