<svg xmlns="http://www.w3.org/2000/svg" width="24.001" height="24.001" viewBox="0 0 24.001 24.001">
  <g id="Profile" transform="translate(12692 13923.133)">
    <g id="Group_309" data-name="Group 309" transform="translate(-12692 -13923.187)">
      <rect id="Rectangle_167666" data-name="Rectangle 167666" width="24" height="24" transform="translate(0 0.054)" fill="none"/>
      <g id="Group_315" data-name="Group 315" transform="translate(-278.628 -144.865)">
        <rect id="Rectangle_167462" data-name="Rectangle 167462" width="24" height="24" transform="translate(278.629 144.92)" fill="none"/>
        <g id="user" transform="translate(279.889 144.919)">
          <g id="Group_215" data-name="Group 215" transform="translate(0)">
            <g id="Group_214" data-name="Group 214">
              <path id="Path_114063" data-name="Path 114063" d="M117.023,12.462a6.231,6.231,0,1,0-6.231-6.231A6.247,6.247,0,0,0,117.023,12.462Z" transform="translate(-106.281 0)" fill="#c5c5c5"/>
              <path id="Path_114064" data-name="Path 114064" d="M45.6,252.374a5.809,5.809,0,0,0-.626-1.143,7.745,7.745,0,0,0-5.36-3.374,1.147,1.147,0,0,0-.789.19,6.642,6.642,0,0,1-7.836,0,1.021,1.021,0,0,0-.789-.19,7.689,7.689,0,0,0-5.36,3.374,6.7,6.7,0,0,0-.626,1.143.579.579,0,0,0,.027.517,10.857,10.857,0,0,0,.735,1.088,10.343,10.343,0,0,0,1.252,1.415,16.32,16.32,0,0,0,1.252,1.088,12.408,12.408,0,0,0,14.8,0,11.967,11.967,0,0,0,1.252-1.088,12.57,12.57,0,0,0,1.252-1.415,9.543,9.543,0,0,0,.735-1.088A.464.464,0,0,0,45.6,252.374Z" transform="translate(-24.165 -234.933)" fill="#c5c5c5"/>
            </g>
          </g>
        </g>
      </g>
    </g>
  </g>
</svg>
