<svg xmlns="http://www.w3.org/2000/svg" width="18.5" height="18.5" viewBox="0 0 18.5 18.5">
  <g id="hospital" transform="translate(-4 -4)">
    <path id="Path_116622" data-name="Path 116622" d="M4.463,22.5H22.038a.463.463,0,0,0,.462-.462v-11.1a.463.463,0,0,0-.462-.462H19.725V6.313a.463.463,0,0,0-.462-.462H16.95V5.387A1.387,1.387,0,0,0,15.563,4H10.938A1.388,1.388,0,0,0,9.55,5.388V5.85H7.238a.462.462,0,0,0-.463.462v4.163H4.463A.462.462,0,0,0,4,10.938v11.1A.463.463,0,0,0,4.463,22.5ZM19.725,11.4h1.85V21.575h-1.85ZM14.638,21.575H11.863V18.337h2.775ZM10.475,5.387a.462.462,0,0,1,.462-.462h4.625a.462.462,0,0,1,.462.462v4.625a.463.463,0,0,1-.462.462H10.938a.463.463,0,0,1-.462-.462ZM7.7,6.775H9.55v3.238A1.387,1.387,0,0,0,10.938,11.4h4.625a1.387,1.387,0,0,0,1.388-1.387V6.775H18.8v14.8H15.563v-3.7a.463.463,0,0,0-.462-.462H11.4a.463.463,0,0,0-.462.462v3.7H7.7ZM4.925,11.4h1.85V21.575H4.925Z" fill="#a8a8a8"/>
    <path id="Path_116623" data-name="Path 116623" d="M20.463,10.313h.925v.925a.462.462,0,1,0,.925,0v-.925h.925a.462.462,0,1,0,0-.925h-.925V8.462a.462.462,0,0,0-.925,0v.925h-.925a.462.462,0,1,0,0,.925Z" transform="translate(-8.6 -2.15)" fill="#a8a8a8"/>
    <path id="Path_116624" data-name="Path 116624" d="M16.463,23.925h.925a.462.462,0,1,0,0-.925h-.925a.462.462,0,1,0,0,.925Z" transform="translate(-6.45 -10.212)" fill="#a8a8a8"/>
    <path id="Path_116625" data-name="Path 116625" d="M17.85,28.463A.463.463,0,0,0,17.388,28h-.925a.462.462,0,1,0,0,.925h.925A.462.462,0,0,0,17.85,28.463Z" transform="translate(-6.45 -12.9)" fill="#a8a8a8"/>
    <path id="Path_116626" data-name="Path 116626" d="M22.462,23.925h.925a.462.462,0,1,0,0-.925h-.925a.462.462,0,1,0,0,.925Z" transform="translate(-9.675 -10.212)" fill="#a8a8a8"/>
    <path id="Path_116627" data-name="Path 116627" d="M22.462,28.925h.925a.462.462,0,1,0,0-.925h-.925a.462.462,0,1,0,0,.925Z" transform="translate(-9.675 -12.9)" fill="#a8a8a8"/>
    <path id="Path_116628" data-name="Path 116628" d="M28.463,23.925h.925a.462.462,0,1,0,0-.925h-.925a.462.462,0,1,0,0,.925Z" transform="translate(-12.9 -10.212)" fill="#a8a8a8"/>
    <path id="Path_116629" data-name="Path 116629" d="M28.463,28.925h.925a.462.462,0,1,0,0-.925h-.925a.462.462,0,1,0,0,.925Z" transform="translate(-12.9 -12.9)" fill="#a8a8a8"/>
  </g>
</svg>
