<svg xmlns="http://www.w3.org/2000/svg" width="109.31" height="80.026" viewBox="0 0 109.31 80.026">
  <g id="Sum_Insured" transform="translate(-213.295 -639.987)">
    <path id="Path_115689" data-name="Path 115689" d="M1587.992,1623.886c-13.795,6.225-28.865,18.1-39.7,19.179s-24.562,6.729-22.543,20.187,41.722,33.647,60.227,38.695,34.993-8.412,32.974-32.974-17.16-51.311-30.955-45.087Zm0,0" transform="translate(-1309.941 -982.986)" fill="#ff006f" fill-rule="evenodd"/>
    <path id="Path_115694" data-name="Path 115694" d="M1602.429,1579.855a7.216,7.216,0,1,1-7.216-7.216,7.216,7.216,0,0,1,7.216,7.216Zm0,0" transform="translate(-1374.703 -916.639)" fill="#ff006f" fill-rule="evenodd"/>
    <path id="Path_115695" data-name="Path 115695" d="M1602.429,1579.855a7.216,7.216,0,1,1-7.216-7.216,7.216,7.216,0,0,1,7.216,7.216Zm0,0" transform="translate(-1287.304 -891.57)" fill="#ff006f" fill-rule="evenodd"/>
    <path id="Path_115696" data-name="Path 115696" d="M1596.477,1576.878a4.239,4.239,0,1,1-4.239-4.239,4.239,4.239,0,0,1,4.239,4.239Zm0,0" transform="translate(-1273.872 -879.354)" fill="#ff006f" fill-rule="evenodd"/>
    <g id="insurance_12_" data-name="insurance (12)" transform="translate(255.498 669.249)">
      <path id="Path_115697" data-name="Path 115697" d="M127.615,144.216V141h-1.641v3.22a.82.82,0,0,1-.82.82h-3.22v1.641h3.22a.821.821,0,0,1,.82.82v3.22h1.641V147.5a.821.821,0,0,1,.82-.82h3.22v-1.641h-3.22A.821.821,0,0,1,127.615,144.216Zm0,0" transform="translate(-114.792 -133.285)" fill="#fff"/>
      <path id="Path_115698" data-name="Path 115698" d="M23.145,3.516A18.95,18.95,0,0,0,11.984,0,23.093,23.093,0,0,0,.906,3.488.82.82,0,0,0,.5,4.2v9.66a12.855,12.855,0,0,0,.759,4.57,8.3,8.3,0,0,0,2.76,3.746l7.495,5.665a.82.82,0,0,0,.99,0l7.488-5.666a8.3,8.3,0,0,0,2.757-3.745,12.855,12.855,0,0,0,.758-4.568V4.2a.82.82,0,0,0-.361-.679Zm-4.64,10.7a.821.821,0,0,1-.82.821h-3.22v3.22a.821.821,0,0,1-.82.82H10.362a.821.821,0,0,1-.82-.82v-3.22H6.322a.821.821,0,0,1-.82-.821V10.931a.821.821,0,0,1,.82-.82h3.22V6.89a.821.821,0,0,1,.82-.82h3.282a.821.821,0,0,1,.82.82v3.22h3.22a.821.821,0,0,1,.82.82Zm0,0" fill="#fff"/>
    </g>
  </g>
</svg>
