<svg xmlns="http://www.w3.org/2000/svg" width="22" height="22" viewBox="0 0 22 22">
  <g id="Top_up_Policies" data-name="Top up Policies" transform="translate(-1.986)">
    <g id="insurance_23_" data-name="insurance (23)" transform="translate(1.986)">
      <path id="Path_116979" data-name="Path 116979" d="M17.5,22.833a.688.688,0,0,1-.27-.055C17.018,22.688,12,20.5,12,16.008V12.325a.687.687,0,0,1,.467-.651l4.812-1.637a.688.688,0,0,1,.442,0l4.812,1.637a.687.687,0,0,1,.467.651v3.683c0,4.494-5.018,6.68-5.23,6.771a.7.7,0,0,1-.27.054ZM13.375,12.817v3.19c0,3.055,3.168,4.892,4.125,5.376.957-.484,4.125-2.321,4.125-5.376v-3.19l-4.125-1.4Z" transform="translate(-1 -0.833)" fill="#4bc4f9"/>
      <path id="Path_116980" data-name="Path 116980" d="M17.521,19.042a.682.682,0,0,1-.486-.2L15.2,17.007a.688.688,0,1,1,.973-.973l1.273,1.273,2.273-3.032a.687.687,0,1,1,1.1.826l-2.75,3.667a.687.687,0,0,1-.5.273h-.048Z" transform="translate(-1.25 -1.167)" fill="#4bc4f9"/>
      <path id="Path_116981" data-name="Path 116981" d="M9.707,19.25H2.521A2.523,2.523,0,0,1,0,16.729V2.521A2.523,2.523,0,0,1,2.521,0H13.062a2.523,2.523,0,0,1,2.521,2.521V7.5a.688.688,0,0,1-1.375,0V2.521a1.147,1.147,0,0,0-1.146-1.146H2.521A1.147,1.147,0,0,0,1.375,2.521V16.729a1.147,1.147,0,0,0,1.146,1.146H9.707a.688.688,0,0,1,0,1.375Z" fill="#4bc4f9"/>
      <path id="Path_116982" data-name="Path 116982" d="M12.4,9.375H3.687A.687.687,0,1,1,3.687,8H12.4a.687.687,0,1,1,0,1.375Z" transform="translate(-0.25 -0.667)" fill="#4bc4f9"/>
      <path id="Path_116983" data-name="Path 116983" d="M8.729,13.375H3.687a.688.688,0,0,1,0-1.375H8.729a.688.688,0,0,1,0,1.375Z" transform="translate(-0.25 -1)" fill="#4bc4f9"/>
      <path id="Path_116984" data-name="Path 116984" d="M7.812,5.375H3.687A.687.687,0,1,1,3.687,4H7.812a.687.687,0,1,1,0,1.375Z" transform="translate(-0.25 -0.333)" fill="#4bc4f9"/>
    </g>
  </g>
</svg>
