<svg xmlns="http://www.w3.org/2000/svg" width="20" height="20" viewBox="0 0 20 20">
  <g id="Wellness_Support" data-name="Wellness Support" transform="translate(-6097 14542)">
    <g id="meditation" transform="translate(6095.062 -14544)">
      <path id="Path_114536" data-name="Path 114536" d="M12.435,11.39A6.207,6.207,0,0,1,8.663,9.762,4.541,4.541,0,0,1,7.148,5.125a4.379,4.379,0,0,1,3.863.941,7.591,7.591,0,0,0-.081,1.079,6.141,6.141,0,0,0,1.506,4.246Z" transform="translate(-1.298 -0.857)" fill="#4bc4f9"/>
      <path id="Path_114537" data-name="Path 114537" d="M20.9,7.145a7.591,7.591,0,0,0-.081-1.079,4.379,4.379,0,0,1,3.863-.941,4.54,4.54,0,0,1-1.516,4.637,6.212,6.212,0,0,1-3.772,1.628A6.141,6.141,0,0,0,20.9,7.145Z" transform="translate(-4.836 -0.857)" fill="#4bc4f9"/>
      <path id="Path_114538" data-name="Path 114538" d="M18.287,6.287a4.644,4.644,0,0,1-2.144,4.287A4.644,4.644,0,0,1,14,6.287,4.644,4.644,0,0,1,16.144,2,4.644,4.644,0,0,1,18.287,6.287Z" transform="translate(-3.296)" fill="#4bc4f9"/>
      <path id="Path_114539" data-name="Path 114539" d="M21.108,16.606l-4.023,4.019a2.858,2.858,0,0,1-1.762.825l-5.538.412L6.1,25.542a.358.358,0,0,1-.505,0L2.558,22.51a.358.358,0,0,1,0-.505l5.319-5.31A3.877,3.877,0,0,1,10.8,15.65H15.17a1.236,1.236,0,0,1,1.179.777,1.069,1.069,0,0,1-.88,1.442l-3.032.511a.535.535,0,0,0,.178,1.056l2.972-.5a2.138,2.138,0,0,0,1.859-1.7l2.146-2.142a1.072,1.072,0,0,1,1.516,1.516Z" transform="translate(0 -3.647)" fill="#021b8d"/>
    </g>
    <rect id="Rectangle_167973" data-name="Rectangle 167973" width="20" height="20" transform="translate(6097 -14542)" fill="none"/>
  </g>
</svg>
